<?xml version="1.0" encoding="UTF-8"?>
<svg xmlns="http://www.w3.org/2000/svg"
     viewBox="53.0 -93.0 1230.9 597.0"
     width="1231" height="597">
  <style>
    @font-face {
      font-family: "TGL 0-17_std";
      src: local("TGL 0-17_std");
      font-style: normal;
      font-weight: normal;
    }
    @font-face {
      font-family: "TGL 0-17";
      src: local("TGL 0-17"), local("TGL 0-17 alt");
      font-style: normal;
      font-weight: normal;
    }
    @font-face {
      font-family: "TGL 0-16_std";
      src: local("TGL 0-16_std");
      font-style: normal;
      font-weight: normal;
    }
    @font-face {
      font-family: "TGL 0-16";
      src: local("TGL 0-16");
      font-style: normal;
      font-weight: normal;
    }
  </style>
  <defs>
    <filter id="dropShadow" x="-20%" y="-20%" width="140%" height="140%">
      <feGaussianBlur in="SourceAlpha" stdDeviation="3" result="blur"/>
      <feOffset in="blur" dx="1" dy="1" result="offsetBlur"/>
      <feFlood flood-color="#000000" flood-opacity="0.5" result="shadowColor"/>
      <feComposite in="shadowColor" in2="offsetBlur" operator="in" result="shadow"/>
      <feMerge>
        <feMergeNode in="shadow"/>
        <feMergeNode in="SourceGraphic"/>
      </feMerge>
    </filter>
  </defs>
  <rect x="53.0" y="-93.0" width="1230.9" height="597.0" fill="white"/>
  <rect x="60.0" y="-86.0" width="1216.9" height="583.0" fill="none" stroke="#A0A0A0" stroke-width="2"/>
  <rect x="60.0" y="-86.0" width="1216.9" height="25.0" fill="white" stroke="none"/>
  <line x1="60.0" y1="-61.5" x2="1276.9" y2="-61.5" stroke="#A0A0A0" stroke-width="1"/>
  <text x="65.0" y="-69.3" font-family="'TGL 0-17_std', 'TGL 0-17', 'Times New Roman', Times, serif" font-size="12" font-weight="bold" fill="#333333">Dreieck-Sollwertmarker: Sollwert-Eingabe bewegt das Dreieck und schreibt den Istwert zurueck</text>
  <g id="sidebars">
  </g>
  <g id="connections">
    <polyline points="200.8,177.5 290.8,177.5 295.8,172.5 295.8,90.5 300.8,85.5 450.2,85.5" fill="none" stroke="#63B31F" stroke-width="1.5" stroke-linejoin="round"/>
    <polyline points="525.4,85.5 599.4,85.5 604.4,90.5 604.4,110.5 609.4,115.5 690.0,115.5" fill="none" stroke="#63B31F" stroke-width="1.5" stroke-linejoin="round"/>
    <polyline points="810.4,115.5 944.6,115.5 945.4,116.3 945.4,116.7 946.2,117.5 1110.0,117.5" fill="none" stroke="#63B31F" stroke-width="1.5" stroke-linejoin="round"/>
    <polyline points="200.8,177.5 480.8,177.5 485.8,182.5 485.8,262.5 490.8,267.5 1110.0,267.5" fill="none" stroke="#63B31F" stroke-width="1.5" stroke-linejoin="round"/>
    <polyline points="200.8,245.5 345.8,245.5 350.8,240.5 350.8,124.5 355.8,119.5 450.2,119.5" fill="none" stroke="#DBB418" stroke-width="1.5" stroke-linejoin="round"/>
    <polyline points="525.4,119.5 599.4,119.5 604.4,124.5 604.4,144.5 609.4,149.5 690.0,149.5" fill="none" stroke="#3366FF" stroke-width="1.5" stroke-linejoin="round"/>
    <polyline points="810.4,149.5 835.4,149.5 840.4,154.5 840.4,197.5 845.4,202.5 1110.0,202.5" fill="none" stroke="#18519E" stroke-width="1.5" stroke-linejoin="round"/>
    <polyline points="200.8,245.5 368.8,245.5 373.8,250.5 373.8,313.5 378.8,318.5 1110.0,318.5" fill="none" stroke="#DBB418" stroke-width="1.5" stroke-linejoin="round"/>
  </g>
  <g id="interface_ports">
  </g>
  <g id="instances">
    <g id="fb_Sollwert_N" transform="translate(60.0, 150.0)">
      <path d="M 3 0
            L 137.7890625 0
            A 3 3 0 0 1 140.7890625 3
            L 140.7890625 35
            A 3 3 0 0 1 137.7890625 38
            L 131.7890625 38
            L 131.7890625 52
            L 137.7890625 52
            A 3 3 0 0 1 140.7890625 55
            L 140.7890625 103
            A 3 3 0 0 1 137.7890625 106
            L 3 106
            A 3 3 0 0 1 0 103
            L 0 55
            A 3 3 0 0 1 3 52
            L 9 52
            L 9 38
            L 3 38
            A 3 3 0 0 1 0 35
            L 0 3
            A 3 3 0 0 1 3 0
            Z"
            fill="#FFFFFF" stroke="#A0A0A0" stroke-width="1.5"
            stroke-linejoin="round" filter="url(#dropShadow)"/>
      <!-- Name Section -->
      <path d="M 13.0 37.0
            L 27.0 37.0
            A 1 1 0 0 1 28.0 38.0
            L 28.0 41.0
            L 26.5 41.0
            L 26.5 43.666666666666664
            L 28.0 43.666666666666664
            L 28.0 52.0
            A 1 1 0 0 1 27.0 53.0
            L 13.0 53.0
            A 1 1 0 0 1 12.0 52.0
            L 12.0 43.666666666666664
            L 13.5 43.666666666666664
            L 13.5 41.0
            L 12.0 41.0
            L 12.0 38.0
            A 1 1 0 0 1 13.0 37.0
            Z"
            fill="#87CEEB" stroke="#1565C0" stroke-width="1"/>
      <text x="20.0" y="49.0"
            font-family="'TGL 0-17_std', 'TGL 0-17', 'Times New Roman', Times, serif" font-size="10" font-weight="bold"
            fill="#000000" text-anchor="middle">C</text>
      <text x="30.0" y="49.0"
            font-family="'TGL 0-16_std', 'TGL 0-16', 'Times New Roman', Times, serif" font-size="12"
            fill="#000000">NumericValue_PH…</text>
      <polygon points="0,5.5 5,10.5 0,15.5" fill="#63B31F"/>
      <text x="6" y="14.7" font-family="'TGL 0-17_std', 'TGL 0-17', 'Times New Roman', Times, serif" font-size="12"
            fill="#000000">INIT</text>
      <polygon points="0,22.5 5,27.5 0,32.5" fill="#63B31F"/>
      <text x="6" y="31.7" font-family="'TGL 0-17_std', 'TGL 0-17', 'Times New Roman', Times, serif" font-size="12"
            fill="#000000">REQ</text>
      <polygon points="135.7890625,5.5 140.7890625,10.5 135.7890625,15.5" fill="#63B31F"/>
      <text x="134.7890625" y="14.7" font-family="'TGL 0-17_std', 'TGL 0-17', 'Times New Roman', Times, serif" font-size="12"
            fill="#000000" text-anchor="end">INITO</text>
      <polygon points="135.7890625,22.5 140.7890625,27.5 135.7890625,32.5" fill="#63B31F"/>
      <text x="134.7890625" y="31.7" font-family="'TGL 0-17_std', 'TGL 0-17', 'Times New Roman', Times, serif" font-size="12"
            fill="#000000" text-anchor="end">IND</text>
      <polygon points="0,56.5 5,61.5 0,66.5" fill="#A3B08F"/>
      <text x="6" y="65.7" font-family="'TGL 0-17_std', 'TGL 0-17', 'Times New Roman', Times, serif" font-size="12"
            fill="#000000">QI</text>
      <polygon points="0,73.5 5,78.5 0,83.5" fill="#BD8663"/>
      <text x="6" y="82.7" font-family="'TGL 0-17_std', 'TGL 0-17', 'Times New Roman', Times, serif" font-size="12"
            fill="#000000">PARAMS</text>
      <polygon points="0,90.5 5,95.5 0,100.5" fill="#3366FF"/>
      <text x="6" y="99.7" font-family="'TGL 0-17_std', 'TGL 0-17', 'Times New Roman', Times, serif" font-size="12"
            fill="#000000">stObj</text>
      <polygon points="135.7890625,56.5 140.7890625,61.5 135.7890625,66.5" fill="#A3B08F"/>
      <text x="134.7890625" y="65.7" font-family="'TGL 0-17_std', 'TGL 0-17', 'Times New Roman', Times, serif" font-size="12"
            fill="#000000" text-anchor="end">QO</text>
      <polygon points="135.7890625,73.5 140.7890625,78.5 135.7890625,83.5" fill="#BD8663"/>
      <text x="134.7890625" y="82.7" font-family="'TGL 0-17_std', 'TGL 0-17', 'Times New Roman', Times, serif" font-size="12"
            fill="#000000" text-anchor="end">STATUS</text>
      <polygon points="135.7890625,90.5 140.7890625,95.5 135.7890625,100.5" fill="#DBB418"/>
      <text x="134.7890625" y="99.7" font-family="'TGL 0-17_std', 'TGL 0-17', 'Times New Roman', Times, serif" font-size="12"
            fill="#000000" text-anchor="end">rPhys</text>
      <text x="-3" y="65.7" font-family="'TGL 0-17_std', 'TGL 0-17', 'Times New Roman', Times, serif" font-size="12" fill="#000000" text-anchor="end">TRUE</text>
      <text x="-3" y="99.7" font-family="'TGL 0-17_std', 'TGL 0-17', 'Times New Roman', Times, serif" font-size="12" fill="#000000" text-anchor="end">NumberVariable_Sollwert_N</text>

      <!-- Instance Name -->
      <text x="70.39453125" y="-5"
            font-family="'TGL 0-17_std', 'TGL 0-17', 'Times New Roman', Times, serif" font-size="12"
            fill="#000000" text-anchor="middle">Sollwert_N</text>
    </g>
    <g id="fb_F_ADD_Center" transform="translate(450.2, 75.0)">
      <path d="M 3 0
            L 72.193359375 0
            A 3 3 0 0 1 75.193359375 3
            L 75.193359375 18
            A 3 3 0 0 1 72.193359375 21
            L 66.193359375 21
            L 66.193359375 35
            L 72.193359375 35
            A 3 3 0 0 1 75.193359375 38
            L 75.193359375 69
            A 3 3 0 0 1 72.193359375 72
            L 3 72
            A 3 3 0 0 1 0 69
            L 0 38
            A 3 3 0 0 1 3 35
            L 9 35
            L 9 21
            L 3 21
            A 3 3 0 0 1 0 18
            L 0 3
            A 3 3 0 0 1 3 0
            Z"
            fill="#FFFFFF" stroke="#A0A0A0" stroke-width="1.5"
            stroke-linejoin="round" filter="url(#dropShadow)"/>
      <!-- Name Section -->
      <path d="M 13.0 20.0
            L 27.0 20.0
            A 1 1 0 0 1 28.0 21.0
            L 28.0 24.0
            L 26.5 24.0
            L 26.5 26.666666666666668
            L 28.0 26.666666666666668
            L 28.0 35.0
            A 1 1 0 0 1 27.0 36.0
            L 13.0 36.0
            A 1 1 0 0 1 12.0 35.0
            L 12.0 26.666666666666668
            L 13.5 26.666666666666668
            L 13.5 24.0
            L 12.0 24.0
            L 12.0 21.0
            A 1 1 0 0 1 13.0 20.0
            Z"
            fill="#87CEEB" stroke="#1565C0" stroke-width="1"/>
      <text x="20.0" y="32.0"
            font-family="'TGL 0-17_std', 'TGL 0-17', 'Times New Roman', Times, serif" font-size="10" font-weight="bold"
            fill="#000000" text-anchor="middle">B</text>
      <text x="30.0" y="32.0"
            font-family="'TGL 0-16_std', 'TGL 0-16', 'Times New Roman', Times, serif" font-size="12"
            fill="#000000">F_ADD</text>
      <polygon points="0,5.5 5,10.5 0,15.5" fill="#63B31F"/>
      <text x="6" y="14.7" font-family="'TGL 0-17_std', 'TGL 0-17', 'Times New Roman', Times, serif" font-size="12"
            fill="#000000">REQ</text>
      <polygon points="70.193359375,5.5 75.193359375,10.5 70.193359375,15.5" fill="#63B31F"/>
      <text x="69.193359375" y="14.7" font-family="'TGL 0-17_std', 'TGL 0-17', 'Times New Roman', Times, serif" font-size="12"
            fill="#000000" text-anchor="end">CNF</text>
      <polygon points="0,39.5 5,44.5 0,49.5" fill="#3366FF"/>
      <text x="6" y="48.7" font-family="'TGL 0-17_std', 'TGL 0-17', 'Times New Roman', Times, serif" font-size="12"
            fill="#000000">IN1</text>
      <polygon points="0,56.5 5,61.5 0,66.5" fill="#3366FF"/>
      <text x="6" y="65.7" font-family="'TGL 0-17_std', 'TGL 0-17', 'Times New Roman', Times, serif" font-size="12"
            fill="#000000">IN2</text>
      <polygon points="70.193359375,39.5 75.193359375,44.5 70.193359375,49.5" fill="#3366FF"/>
      <text x="69.193359375" y="48.7" font-family="'TGL 0-17_std', 'TGL 0-17', 'Times New Roman', Times, serif" font-size="12"
            fill="#000000" text-anchor="end">OUT</text>
      <text x="-3" y="65.7" font-family="'TGL 0-17_std', 'TGL 0-17', 'Times New Roman', Times, serif" font-size="12" fill="#000000" text-anchor="end">REAL#42.0</text>

      <!-- Instance Name -->
      <text x="37.5966796875" y="-5"
            font-family="'TGL 0-17_std', 'TGL 0-17', 'Times New Roman', Times, serif" font-size="12"
            fill="#000000" text-anchor="middle">F_ADD_Center</text>
    </g>
    <g id="fb_F_REAL_TO_INT_Pos" transform="translate(690.0, 105.0)">
      <path d="M 3 0
            L 117.439453125 0
            A 3 3 0 0 1 120.439453125 3
            L 120.439453125 18
            A 3 3 0 0 1 117.439453125 21
            L 111.439453125 21
            L 111.439453125 35
            L 117.439453125 35
            A 3 3 0 0 1 120.439453125 38
            L 120.439453125 52
            A 3 3 0 0 1 117.439453125 55
            L 3 55
            A 3 3 0 0 1 0 52
            L 0 38
            A 3 3 0 0 1 3 35
            L 9 35
            L 9 21
            L 3 21
            A 3 3 0 0 1 0 18
            L 0 3
            A 3 3 0 0 1 3 0
            Z"
            fill="#FFFFFF" stroke="#A0A0A0" stroke-width="1.5"
            stroke-linejoin="round" filter="url(#dropShadow)"/>
      <!-- Name Section -->
      <path d="M 13.0 20.0
            L 27.0 20.0
            A 1 1 0 0 1 28.0 21.0
            L 28.0 24.0
            L 26.5 24.0
            L 26.5 26.666666666666668
            L 28.0 26.666666666666668
            L 28.0 35.0
            A 1 1 0 0 1 27.0 36.0
            L 13.0 36.0
            A 1 1 0 0 1 12.0 35.0
            L 12.0 26.666666666666668
            L 13.5 26.666666666666668
            L 13.5 24.0
            L 12.0 24.0
            L 12.0 21.0
            A 1 1 0 0 1 13.0 20.0
            Z"
            fill="#87CEEB" stroke="#1565C0" stroke-width="1"/>
      <text x="20.0" y="32.0"
            font-family="'TGL 0-17_std', 'TGL 0-17', 'Times New Roman', Times, serif" font-size="10" font-weight="bold"
            fill="#000000" text-anchor="middle">B</text>
      <text x="30.0" y="32.0"
            font-family="'TGL 0-16_std', 'TGL 0-16', 'Times New Roman', Times, serif" font-size="12"
            fill="#000000">F_REAL_TO_INT</text>
      <polygon points="0,5.5 5,10.5 0,15.5" fill="#63B31F"/>
      <text x="6" y="14.7" font-family="'TGL 0-17_std', 'TGL 0-17', 'Times New Roman', Times, serif" font-size="12"
            fill="#000000">REQ</text>
      <polygon points="115.439453125,5.5 120.439453125,10.5 115.439453125,15.5" fill="#63B31F"/>
      <text x="114.439453125" y="14.7" font-family="'TGL 0-17_std', 'TGL 0-17', 'Times New Roman', Times, serif" font-size="12"
            fill="#000000" text-anchor="end">CNF</text>
      <polygon points="0,39.5 5,44.5 0,49.5" fill="#3366FF"/>
      <text x="6" y="48.7" font-family="'TGL 0-17_std', 'TGL 0-17', 'Times New Roman', Times, serif" font-size="12"
            fill="#000000">IN</text>
      <polygon points="115.439453125,39.5 120.439453125,44.5 115.439453125,49.5" fill="#3366FF"/>
      <text x="114.439453125" y="48.7" font-family="'TGL 0-17_std', 'TGL 0-17', 'Times New Roman', Times, serif" font-size="12"
            fill="#000000" text-anchor="end">OUT</text>


      <!-- Instance Name -->
      <text x="60.2197265625" y="-5"
            font-family="'TGL 0-17_std', 'TGL 0-17', 'Times New Roman', Times, serif" font-size="12"
            fill="#000000" text-anchor="middle">F_REAL_TO_INT_Pos</text>
    </g>
    <g id="fb_Q_ChildPosition_Dreieck" transform="translate(1110.0, 90.0)">
      <path d="M 3 0
            L 163.935546875 0
            A 3 3 0 0 1 166.935546875 3
            L 166.935546875 35
            A 3 3 0 0 1 163.935546875 38
            L 157.935546875 38
            L 157.935546875 52
            L 163.935546875 52
            A 3 3 0 0 1 166.935546875 55
            L 166.935546875 137
            A 3 3 0 0 1 163.935546875 140
            L 3 140
            A 3 3 0 0 1 0 137
            L 0 55
            A 3 3 0 0 1 3 52
            L 9 52
            L 9 38
            L 3 38
            A 3 3 0 0 1 0 35
            L 0 3
            A 3 3 0 0 1 3 0
            Z"
            fill="#FFFFFF" stroke="#A0A0A0" stroke-width="1.5"
            stroke-linejoin="round" filter="url(#dropShadow)"/>
      <!-- Name Section -->
      <path d="M 36.341796875 37.0
            L 50.341796875 37.0
            A 1 1 0 0 1 51.341796875 38.0
            L 51.341796875 41.0
            L 49.841796875 41.0
            L 49.841796875 43.666666666666664
            L 51.341796875 43.666666666666664
            L 51.341796875 52.0
            A 1 1 0 0 1 50.341796875 53.0
            L 36.341796875 53.0
            A 1 1 0 0 1 35.341796875 52.0
            L 35.341796875 43.666666666666664
            L 36.841796875 43.666666666666664
            L 36.841796875 41.0
            L 35.341796875 41.0
            L 35.341796875 38.0
            A 1 1 0 0 1 36.341796875 37.0
            Z"
            fill="#87CEEB" stroke="#1565C0" stroke-width="1"/>
      <text x="43.341796875" y="49.0"
            font-family="'TGL 0-17_std', 'TGL 0-17', 'Times New Roman', Times, serif" font-size="10" font-weight="bold"
            fill="#000000" text-anchor="middle">Si</text>
      <text x="53.341796875" y="49.0"
            font-family="'TGL 0-16_std', 'TGL 0-16', 'Times New Roman', Times, serif" font-size="12"
            fill="#000000">Q_ChildPosition</text>
      <polygon points="0,5.5 5,10.5 0,15.5" fill="#63B31F"/>
      <text x="6" y="14.7" font-family="'TGL 0-17_std', 'TGL 0-17', 'Times New Roman', Times, serif" font-size="12"
            fill="#000000">INIT</text>
      <polygon points="0,22.5 5,27.5 0,32.5" fill="#63B31F"/>
      <text x="6" y="31.7" font-family="'TGL 0-17_std', 'TGL 0-17', 'Times New Roman', Times, serif" font-size="12"
            fill="#000000">REQ</text>
      <polygon points="161.935546875,5.5 166.935546875,10.5 161.935546875,15.5" fill="#63B31F"/>
      <text x="160.935546875" y="14.7" font-family="'TGL 0-17_std', 'TGL 0-17', 'Times New Roman', Times, serif" font-size="12"
            fill="#000000" text-anchor="end">INITO</text>
      <polygon points="161.935546875,22.5 166.935546875,27.5 161.935546875,32.5" fill="#63B31F"/>
      <text x="160.935546875" y="31.7" font-family="'TGL 0-17_std', 'TGL 0-17', 'Times New Roman', Times, serif" font-size="12"
            fill="#000000" text-anchor="end">CNF</text>
      <polygon points="0,56.5 5,61.5 0,66.5" fill="#18519E"/>
      <text x="6" y="65.7" font-family="'TGL 0-17_std', 'TGL 0-17', 'Times New Roman', Times, serif" font-size="12"
            fill="#000000">u16ObjId</text>
      <polygon points="0,73.5 5,78.5 0,83.5" fill="#18519E"/>
      <text x="6" y="82.7" font-family="'TGL 0-17_std', 'TGL 0-17', 'Times New Roman', Times, serif" font-size="12"
            fill="#000000">u16ObjIdPare…</text>
      <polygon points="0,90.5 5,95.5 0,100.5" fill="#A3B08F"/>
      <text x="6" y="99.7" font-family="'TGL 0-17_std', 'TGL 0-17', 'Times New Roman', Times, serif" font-size="12"
            fill="#000000">xScale</text>
      <polygon points="0,107.5 5,112.5 0,117.5" fill="#18519E"/>
      <text x="6" y="116.7" font-family="'TGL 0-17_std', 'TGL 0-17', 'Times New Roman', Times, serif" font-size="12"
            fill="#000000">s16Xposition</text>
      <polygon points="0,124.5 5,129.5 0,134.5" fill="#18519E"/>
      <text x="6" y="133.7" font-family="'TGL 0-17_std', 'TGL 0-17', 'Times New Roman', Times, serif" font-size="12"
            fill="#000000">s16Yposition</text>
      <polygon points="161.935546875,56.5 166.935546875,61.5 161.935546875,66.5" fill="#BD8663"/>
      <text x="160.935546875" y="65.7" font-family="'TGL 0-17_std', 'TGL 0-17', 'Times New Roman', Times, serif" font-size="12"
            fill="#000000" text-anchor="end">STATUS</text>
      <polygon points="161.935546875,73.5 166.935546875,78.5 161.935546875,83.5" fill="#18519E"/>
      <text x="160.935546875" y="82.7" font-family="'TGL 0-17_std', 'TGL 0-17', 'Times New Roman', Times, serif" font-size="12"
            fill="#000000" text-anchor="end">s16OldXposit…</text>
      <polygon points="161.935546875,90.5 166.935546875,95.5 161.935546875,100.5" fill="#18519E"/>
      <text x="160.935546875" y="99.7" font-family="'TGL 0-17_std', 'TGL 0-17', 'Times New Roman', Times, serif" font-size="12"
            fill="#000000" text-anchor="end">s16OldYposit…</text>
      <polygon points="161.935546875,107.5 166.935546875,112.5 161.935546875,117.5" fill="#18519E"/>
      <text x="160.935546875" y="116.7" font-family="'TGL 0-17_std', 'TGL 0-17', 'Times New Roman', Times, serif" font-size="12"
            fill="#000000" text-anchor="end">s16result</text>
      <text x="-3" y="65.7" font-family="'TGL 0-17_std', 'TGL 0-17', 'Times New Roman', Times, serif" font-size="12" fill="#000000" text-anchor="end">Polygon_Bargraph_Mittelma…</text>
      <text x="-3" y="82.7" font-family="'TGL 0-17_std', 'TGL 0-17', 'Times New Roman', Times, serif" font-size="12" fill="#000000" text-anchor="end">Container_Sollwertmarker</text>
      <text x="-3" y="99.7" font-family="'TGL 0-17_std', 'TGL 0-17', 'Times New Roman', Times, serif" font-size="12" fill="#000000" text-anchor="end">TRUE</text>
      <text x="-3" y="133.7" font-family="'TGL 0-17_std', 'TGL 0-17', 'Times New Roman', Times, serif" font-size="12" fill="#000000" text-anchor="end">INT#0</text>

      <!-- Instance Name -->
      <text x="83.4677734375" y="-5"
            font-family="'TGL 0-17_std', 'TGL 0-17', 'Times New Roman', Times, serif" font-size="12"
            fill="#000000" text-anchor="middle">Q_ChildPosition_Dreieck</text>
    </g>
    <g id="fb_Istwert_N" transform="translate(1110.0, 240.0)">
      <path d="M 3 0
            L 134.173828125 0
            A 3 3 0 0 1 137.173828125 3
            L 137.173828125 35
            A 3 3 0 0 1 134.173828125 38
            L 128.173828125 38
            L 128.173828125 52
            L 134.173828125 52
            A 3 3 0 0 1 137.173828125 55
            L 137.173828125 137
            A 3 3 0 0 1 134.173828125 140
            L 3 140
            A 3 3 0 0 1 0 137
            L 0 55
            A 3 3 0 0 1 3 52
            L 9 52
            L 9 38
            L 3 38
            A 3 3 0 0 1 0 35
            L 0 3
            A 3 3 0 0 1 3 0
            Z"
            fill="#FFFFFF" stroke="#A0A0A0" stroke-width="1.5"
            stroke-linejoin="round" filter="url(#dropShadow)"/>
      <!-- Name Section -->
      <path d="M 13.0 37.0
            L 27.0 37.0
            A 1 1 0 0 1 28.0 38.0
            L 28.0 41.0
            L 26.5 41.0
            L 26.5 43.666666666666664
            L 28.0 43.666666666666664
            L 28.0 52.0
            A 1 1 0 0 1 27.0 53.0
            L 13.0 53.0
            A 1 1 0 0 1 12.0 52.0
            L 12.0 43.666666666666664
            L 13.5 43.666666666666664
            L 13.5 41.0
            L 12.0 41.0
            L 12.0 38.0
            A 1 1 0 0 1 13.0 37.0
            Z"
            fill="#87CEEB" stroke="#1565C0" stroke-width="1"/>
      <text x="20.0" y="49.0"
            font-family="'TGL 0-17_std', 'TGL 0-17', 'Times New Roman', Times, serif" font-size="10" font-weight="bold"
            fill="#000000" text-anchor="middle">C</text>
      <text x="30.0" y="49.0"
            font-family="'TGL 0-16_std', 'TGL 0-16', 'Times New Roman', Times, serif" font-size="12"
            fill="#000000">Q_NumericValue_…</text>
      <polygon points="0,5.5 5,10.5 0,15.5" fill="#63B31F"/>
      <text x="6" y="14.7" font-family="'TGL 0-17_std', 'TGL 0-17', 'Times New Roman', Times, serif" font-size="12"
            fill="#000000">INIT</text>
      <polygon points="0,22.5 5,27.5 0,32.5" fill="#63B31F"/>
      <text x="6" y="31.7" font-family="'TGL 0-17_std', 'TGL 0-17', 'Times New Roman', Times, serif" font-size="12"
            fill="#000000">REQ</text>
      <polygon points="132.173828125,5.5 137.173828125,10.5 132.173828125,15.5" fill="#63B31F"/>
      <text x="131.173828125" y="14.7" font-family="'TGL 0-17_std', 'TGL 0-17', 'Times New Roman', Times, serif" font-size="12"
            fill="#000000" text-anchor="end">INITO</text>
      <polygon points="132.173828125,22.5 137.173828125,27.5 132.173828125,32.5" fill="#63B31F"/>
      <text x="131.173828125" y="31.7" font-family="'TGL 0-17_std', 'TGL 0-17', 'Times New Roman', Times, serif" font-size="12"
            fill="#000000" text-anchor="end">CNF</text>
      <polygon points="0,56.5 5,61.5 0,66.5" fill="#3366FF"/>
      <text x="6" y="65.7" font-family="'TGL 0-17_std', 'TGL 0-17', 'Times New Roman', Times, serif" font-size="12"
            fill="#000000">stObj</text>
      <polygon points="0,73.5 5,78.5 0,83.5" fill="#DBB418"/>
      <text x="6" y="82.7" font-family="'TGL 0-17_std', 'TGL 0-17', 'Times New Roman', Times, serif" font-size="12"
            fill="#000000">rPhys</text>
      <polygon points="132.173828125,56.5 137.173828125,61.5 132.173828125,66.5" fill="#BD8663"/>
      <text x="131.173828125" y="65.7" font-family="'TGL 0-17_std', 'TGL 0-17', 'Times New Roman', Times, serif" font-size="12"
            fill="#000000" text-anchor="end">STATUS</text>
      <polygon points="132.173828125,73.5 137.173828125,78.5 132.173828125,83.5" fill="#18519E"/>
      <text x="131.173828125" y="82.7" font-family="'TGL 0-17_std', 'TGL 0-17', 'Times New Roman', Times, serif" font-size="12"
            fill="#000000" text-anchor="end">u32OldValue</text>
      <polygon points="132.173828125,90.5 137.173828125,95.5 132.173828125,100.5" fill="#18519E"/>
      <text x="131.173828125" y="99.7" font-family="'TGL 0-17_std', 'TGL 0-17', 'Times New Roman', Times, serif" font-size="12"
            fill="#000000" text-anchor="end">s16result</text>
      <polygon points="132.173828125,107.5 137.173828125,112.5 132.173828125,117.5" fill="#A3B08F"/>
      <text x="131.173828125" y="116.7" font-family="'TGL 0-17_std', 'TGL 0-17', 'Times New Roman', Times, serif" font-size="12"
            fill="#000000" text-anchor="end">xOver</text>
      <polygon points="132.173828125,124.5 137.173828125,129.5 132.173828125,134.5" fill="#A3B08F"/>
      <text x="131.173828125" y="133.7" font-family="'TGL 0-17_std', 'TGL 0-17', 'Times New Roman', Times, serif" font-size="12"
            fill="#000000" text-anchor="end">xUnder</text>
      <text x="-3" y="65.7" font-family="'TGL 0-17_std', 'TGL 0-17', 'Times New Roman', Times, serif" font-size="12" fill="#000000" text-anchor="end">NumberVariable_Istwert_N</text>

      <!-- Instance Name -->
      <text x="68.5869140625" y="-5"
            font-family="'TGL 0-17_std', 'TGL 0-17', 'Times New Roman', Times, serif" font-size="12"
            fill="#000000" text-anchor="middle">Istwert_N</text>
    </g>
  </g>
</svg>