<?xml version="1.0" encoding="UTF-8"?>
<svg xmlns="http://www.w3.org/2000/svg"
     viewBox="53.0 -93.0 1126.0 778.0"
     width="1126" height="778">
  <style>
    @font-face {
      font-family: "TGL 0-17_std";
      src: local("TGL 0-17_std"), url("../../../_static/fonts/TGL-0-17_std.ttf") format("truetype");
      font-style: normal;
      font-weight: normal;
    }
    @font-face {
      font-family: "TGL 0-17";
      src: local("TGL 0-17"), local("TGL 0-17 alt"), url("../../../_static/fonts/TGL-0-17_std.ttf") format("truetype");
      font-style: normal;
      font-weight: normal;
    }
    @font-face {
      font-family: "TGL 0-16_std";
      src: local("TGL 0-16_std"), url("../../../_static/fonts/TGL-0-16_std.ttf") format("truetype");
      font-style: normal;
      font-weight: normal;
    }
    @font-face {
      font-family: "TGL 0-16";
      src: local("TGL 0-16"), url("../../../_static/fonts/TGL-0-16_std.ttf") format("truetype");
      font-style: normal;
      font-weight: normal;
    }
  </style>
  <defs>
    <filter id="dropShadow" x="-20%" y="-20%" width="140%" height="140%">
      <feGaussianBlur in="SourceAlpha" stdDeviation="3" result="blur"/>
      <feOffset in="blur" dx="1" dy="1" result="offsetBlur"/>
      <feFlood flood-color="#000000" flood-opacity="0.5" result="shadowColor"/>
      <feComposite in="shadowColor" in2="offsetBlur" operator="in" result="shadow"/>
      <feMerge>
        <feMergeNode in="shadow"/>
        <feMergeNode in="SourceGraphic"/>
      </feMerge>
    </filter>
  </defs>
  <rect x="53.0" y="-93.0" width="1126.0" height="778.0" fill="white"/>
  <rect x="60.0" y="-86.0" width="1112.0" height="764.0" fill="none" stroke="#A0A0A0" stroke-width="2"/>
  <rect x="60.0" y="-86.0" width="1112.0" height="25.0" fill="white" stroke="none"/>
  <line x1="60.0" y1="-61.5" x2="1172.0" y2="-61.5" stroke="#A0A0A0" stroke-width="1"/>
  <text x="65.0" y="-69.3" font-family="'TGL 0-17_std', 'TGL 0-17', 'Times New Roman', Times, serif" font-size="12" font-weight="bold" fill="#333333">Versuch Array Summe</text>
  <g id="sidebars">
  </g>
  <g id="connections">
    <polyline points="817.4,352.5 844.2,352.5 847.4,355.7 847.4,357.3 850.6,360.5 874.1,360.5" fill="none" stroke="#63B31F" stroke-width="1.5" stroke-linejoin="round"/>
    <polyline points="591.2,279.5 616.2,279.5 621.2,284.5 621.2,347.5 626.2,352.5 700.1,352.5" fill="none" stroke="#63B31F" stroke-width="1.5" stroke-linejoin="round"/>
    <polyline points="591.2,279.5 616.2,279.5 621.2,274.5 621.2,90.5 626.2,85.5 649.1,85.5" fill="none" stroke="#63B31F" stroke-width="1.5" stroke-linejoin="round"/>
    <polyline points="591.2,279.5 616.2,279.5 621.2,274.5 621.2,210.5 626.2,205.5 700.1,205.5" fill="none" stroke="#63B31F" stroke-width="1.5" stroke-linejoin="round"/>
    <polyline points="591.2,279.5 616.2,279.5 621.2,284.5 621.2,494.5 626.2,499.5 700.1,499.5" fill="none" stroke="#63B31F" stroke-width="1.5" stroke-linejoin="round"/>
    <polyline points="345.3,220.5 354.1,220.5 357.3,223.7 357.3,225.3 354.1,228.5 265.7,228.5 262.1,232.1 262.1,233.9 265.7,237.5 274.1,237.5" fill="none" stroke="#63B31F" stroke-width="1.5" stroke-linejoin="round"/>
    <polyline points="345.3,237.5 382.3,237.5 387.3,242.5 387.3,274.5 392.3,279.5 443.1,279.5" fill="none" stroke="#63B31F" stroke-width="1.5" stroke-linejoin="round"/>
    <polyline points="817.4,403.5 843.8,403.5 847.4,399.9 847.4,398.1 851.0,394.5 874.1,394.5" fill="none" stroke="#3366FF" stroke-width="1.5" stroke-linejoin="round"/>
    <polyline points="591.2,313.5 616.2,313.5 621.2,318.5 621.2,381.5 626.2,386.5 700.1,386.5" fill="none" stroke="#18519E" stroke-width="3" stroke-linejoin="round"/>
    <polyline points="591.2,313.5 616.2,313.5 621.2,318.5 621.2,381.5 626.2,386.5 700.1,386.5" fill="none" stroke="#4B8CE3" stroke-width="1" stroke-linejoin="round"/>
    <polyline points="591.2,313.5 616.2,313.5 621.2,318.5 621.2,528.5 626.2,533.5 700.1,533.5" fill="none" stroke="#18519E" stroke-width="3" stroke-linejoin="round"/>
    <polyline points="591.2,313.5 616.2,313.5 621.2,318.5 621.2,528.5 626.2,533.5 700.1,533.5" fill="none" stroke="#4B8CE3" stroke-width="1" stroke-linejoin="round"/>
    <polyline points="591.2,313.5 616.2,313.5 621.2,308.5 621.2,244.5 626.2,239.5 700.1,239.5" fill="none" stroke="#18519E" stroke-width="3" stroke-linejoin="round"/>
    <polyline points="591.2,313.5 616.2,313.5 621.2,308.5 621.2,244.5 626.2,239.5 700.1,239.5" fill="none" stroke="#4B8CE3" stroke-width="1" stroke-linejoin="round"/>
    <polyline points="591.2,313.5 616.2,313.5 621.2,308.5 621.2,124.5 626.2,119.5 649.1,119.5" fill="none" stroke="#18519E" stroke-width="3" stroke-linejoin="round"/>
    <polyline points="591.2,313.5 616.2,313.5 621.2,308.5 621.2,124.5 626.2,119.5 649.1,119.5" fill="none" stroke="#4B8CE3" stroke-width="1" stroke-linejoin="round"/>
  </g>
  <g id="interface_ports">
  </g>
  <g id="instances">
    <g id="fb_GET_AT_INDEX" transform="translate(700.1, 342.0)">
      <path d="M 3 0
            L 114.28125 0
            A 3 3 0 0 1 117.28125 3
            L 117.28125 18
            A 3 3 0 0 1 114.28125 21
            L 108.28125 21
            L 108.28125 35
            L 114.28125 35
            A 3 3 0 0 1 117.28125 38
            L 117.28125 69
            A 3 3 0 0 1 114.28125 72
            L 3 72
            A 3 3 0 0 1 0 69
            L 0 38
            A 3 3 0 0 1 3 35
            L 9 35
            L 9 21
            L 3 21
            A 3 3 0 0 1 0 18
            L 0 3
            A 3 3 0 0 1 3 0
            Z"
            fill="#FFFFFF" stroke="#A0A0A0" stroke-width="1.5"
            stroke-linejoin="round" filter="url(#dropShadow)"/>
      <!-- Name Section -->
      <path d="M 13.0 20.0
            L 27.0 20.0
            A 1 1 0 0 1 28.0 21.0
            L 28.0 24.0
            L 26.5 24.0
            L 26.5 26.666666666666668
            L 28.0 26.666666666666668
            L 28.0 35.0
            A 1 1 0 0 1 27.0 36.0
            L 13.0 36.0
            A 1 1 0 0 1 12.0 35.0
            L 12.0 26.666666666666668
            L 13.5 26.666666666666668
            L 13.5 24.0
            L 12.0 24.0
            L 12.0 21.0
            A 1 1 0 0 1 13.0 20.0
            Z"
            fill="#87CEEB" stroke="#1565C0" stroke-width="1"/>
      <text x="20.0" y="32.0"
            font-family="'TGL 0-17_std', 'TGL 0-17', 'Times New Roman', Times, serif" font-size="10" font-weight="bold"
            fill="#000000" text-anchor="middle">Si</text>
      <text x="30.0" y="32.0"
            font-family="'TGL 0-16_std', 'TGL 0-16', 'Times New Roman', Times, serif" font-size="12"
            fill="#000000">GET_AT_INDEX</text>
      <polygon points="0,5.5 5,10.5 0,15.5" fill="#63B31F"/>
      <text x="6" y="14.7" font-family="'TGL 0-17_std', 'TGL 0-17', 'Times New Roman', Times, serif" font-size="12"
            fill="#000000">REQ</text>
      <polygon points="112.28125,5.5 117.28125,10.5 112.28125,15.5" fill="#63B31F"/>
      <text x="111.28125" y="14.7" font-family="'TGL 0-17_std', 'TGL 0-17', 'Times New Roman', Times, serif" font-size="12"
            fill="#000000" text-anchor="end">CNF</text>
      <polygon points="0,39.5 5,44.5 0,49.5" fill="#3366FF"/>
      <text x="6" y="48.7" font-family="'TGL 0-17_std', 'TGL 0-17', 'Times New Roman', Times, serif" font-size="12"
            fill="#000000">IN_ARRAY</text>
      <polygon points="0,56.5 5,61.5 0,66.5" fill="#18519E"/>
      <text x="6" y="65.7" font-family="'TGL 0-17_std', 'TGL 0-17', 'Times New Roman', Times, serif" font-size="12"
            fill="#000000">INDEX</text>
      <polygon points="112.28125,39.5 117.28125,44.5 112.28125,49.5" fill="#A3B08F"/>
      <text x="111.28125" y="48.7" font-family="'TGL 0-17_std', 'TGL 0-17', 'Times New Roman', Times, serif" font-size="12"
            fill="#000000" text-anchor="end">QO</text>
      <polygon points="112.28125,56.5 117.28125,61.5 112.28125,66.5" fill="#3366FF"/>
      <text x="111.28125" y="65.7" font-family="'TGL 0-17_std', 'TGL 0-17', 'Times New Roman', Times, serif" font-size="12"
            fill="#000000" text-anchor="end">OUT</text>
      <text x="-3" y="65.7" font-family="'TGL 0-17_std', 'TGL 0-17', 'Times New Roman', Times, serif" font-size="12" fill="#000000" text-anchor="end">UINT#0</text>

      <!-- Instance Name -->
      <text x="58.640625" y="-5"
            font-family="'TGL 0-17_std', 'TGL 0-17', 'Times New Roman', Times, serif" font-size="12"
            fill="#000000" text-anchor="middle">GET_AT_INDEX</text>
    </g>
    <g id="fb_F_MOVE" transform="translate(874.1, 350.0)">
      <path d="M 3 0
            L 80.80078125 0
            A 3 3 0 0 1 83.80078125 3
            L 83.80078125 18
            A 3 3 0 0 1 80.80078125 21
            L 74.80078125 21
            L 74.80078125 35
            L 80.80078125 35
            A 3 3 0 0 1 83.80078125 38
            L 83.80078125 52
            A 3 3 0 0 1 80.80078125 55
            L 3 55
            A 3 3 0 0 1 0 52
            L 0 38
            A 3 3 0 0 1 3 35
            L 9 35
            L 9 21
            L 3 21
            A 3 3 0 0 1 0 18
            L 0 3
            A 3 3 0 0 1 3 0
            Z"
            fill="#FFFFFF" stroke="#A0A0A0" stroke-width="1.5"
            stroke-linejoin="round" filter="url(#dropShadow)"/>
      <!-- Name Section -->
      <path d="M 13.0 20.0
            L 27.0 20.0
            A 1 1 0 0 1 28.0 21.0
            L 28.0 24.0
            L 26.5 24.0
            L 26.5 26.666666666666668
            L 28.0 26.666666666666668
            L 28.0 35.0
            A 1 1 0 0 1 27.0 36.0
            L 13.0 36.0
            A 1 1 0 0 1 12.0 35.0
            L 12.0 26.666666666666668
            L 13.5 26.666666666666668
            L 13.5 24.0
            L 12.0 24.0
            L 12.0 21.0
            A 1 1 0 0 1 13.0 20.0
            Z"
            fill="#87CEEB" stroke="#1565C0" stroke-width="1"/>
      <text x="20.0" y="32.0"
            font-family="'TGL 0-17_std', 'TGL 0-17', 'Times New Roman', Times, serif" font-size="10" font-weight="bold"
            fill="#000000" text-anchor="middle">Si</text>
      <text x="30.0" y="32.0"
            font-family="'TGL 0-16_std', 'TGL 0-16', 'Times New Roman', Times, serif" font-size="12"
            fill="#000000">F_MOVE</text>
      <polygon points="0,5.5 5,10.5 0,15.5" fill="#63B31F"/>
      <text x="6" y="14.7" font-family="'TGL 0-17_std', 'TGL 0-17', 'Times New Roman', Times, serif" font-size="12"
            fill="#000000">REQ</text>
      <polygon points="78.80078125,5.5 83.80078125,10.5 78.80078125,15.5" fill="#63B31F"/>
      <text x="77.80078125" y="14.7" font-family="'TGL 0-17_std', 'TGL 0-17', 'Times New Roman', Times, serif" font-size="12"
            fill="#000000" text-anchor="end">CNF</text>
      <polygon points="0,39.5 5,44.5 0,49.5" fill="#3366FF"/>
      <text x="6" y="48.7" font-family="'TGL 0-17_std', 'TGL 0-17', 'Times New Roman', Times, serif" font-size="12"
            fill="#000000">IN</text>
      <polygon points="78.80078125,39.5 83.80078125,44.5 78.80078125,49.5" fill="#3366FF"/>
      <text x="77.80078125" y="48.7" font-family="'TGL 0-17_std', 'TGL 0-17', 'Times New Roman', Times, serif" font-size="12"
            fill="#000000" text-anchor="end">OUT</text>


      <!-- Instance Name -->
      <text x="41.900390625" y="-5"
            font-family="'TGL 0-17_std', 'TGL 0-17', 'Times New Roman', Times, serif" font-size="12"
            fill="#000000" text-anchor="middle">F_MOVE</text>
    </g>
    <g id="fb_CountOfElements" transform="translate(649.1, 75.0)">
      <path d="M 3 0
            L 111.22265625 0
            A 3 3 0 0 1 114.22265625 3
            L 114.22265625 18
            A 3 3 0 0 1 111.22265625 21
            L 105.22265625 21
            L 105.22265625 35
            L 111.22265625 35
            A 3 3 0 0 1 114.22265625 38
            L 114.22265625 69
            A 3 3 0 0 1 111.22265625 72
            L 3 72
            A 3 3 0 0 1 0 69
            L 0 38
            A 3 3 0 0 1 3 35
            L 9 35
            L 9 21
            L 3 21
            A 3 3 0 0 1 0 18
            L 0 3
            A 3 3 0 0 1 3 0
            Z"
            fill="#FFFFFF" stroke="#A0A0A0" stroke-width="1.5"
            stroke-linejoin="round" filter="url(#dropShadow)"/>
      <!-- Name Section -->
      <path d="M 13.0 20.0
            L 27.0 20.0
            A 1 1 0 0 1 28.0 21.0
            L 28.0 24.0
            L 26.5 24.0
            L 26.5 26.666666666666668
            L 28.0 26.666666666666668
            L 28.0 35.0
            A 1 1 0 0 1 27.0 36.0
            L 13.0 36.0
            A 1 1 0 0 1 12.0 35.0
            L 12.0 26.666666666666668
            L 13.5 26.666666666666668
            L 13.5 24.0
            L 12.0 24.0
            L 12.0 21.0
            A 1 1 0 0 1 13.0 20.0
            Z"
            fill="#87CEEB" stroke="#1565C0" stroke-width="1"/>
      <text x="20.0" y="32.0"
            font-family="'TGL 0-17_std', 'TGL 0-17', 'Times New Roman', Times, serif" font-size="10" font-weight="bold"
            fill="#000000" text-anchor="middle">B</text>
      <text x="30.0" y="32.0"
            font-family="'TGL 0-16_std', 'TGL 0-16', 'Times New Roman', Times, serif" font-size="12"
            fill="#000000">F_LEN_ARRAY</text>
      <polygon points="0,5.5 5,10.5 0,15.5" fill="#63B31F"/>
      <text x="6" y="14.7" font-family="'TGL 0-17_std', 'TGL 0-17', 'Times New Roman', Times, serif" font-size="12"
            fill="#000000">REQ</text>
      <polygon points="109.22265625,5.5 114.22265625,10.5 109.22265625,15.5" fill="#63B31F"/>
      <text x="108.22265625" y="14.7" font-family="'TGL 0-17_std', 'TGL 0-17', 'Times New Roman', Times, serif" font-size="12"
            fill="#000000" text-anchor="end">CNF</text>
      <polygon points="0,39.5 5,44.5 0,49.5" fill="#3366FF"/>
      <text x="6" y="48.7" font-family="'TGL 0-17_std', 'TGL 0-17', 'Times New Roman', Times, serif" font-size="12"
            fill="#000000">ARR</text>
      <polygon points="0,56.5 5,61.5 0,66.5" fill="#18519E"/>
      <text x="6" y="65.7" font-family="'TGL 0-17_std', 'TGL 0-17', 'Times New Roman', Times, serif" font-size="12"
            fill="#000000">DIM</text>
      <polygon points="109.22265625,39.5 114.22265625,44.5 109.22265625,49.5" fill="#18519E"/>
      <text x="108.22265625" y="48.7" font-family="'TGL 0-17_std', 'TGL 0-17', 'Times New Roman', Times, serif" font-size="12"
            fill="#000000" text-anchor="end">OUT</text>


      <!-- Instance Name -->
      <text x="57.111328125" y="-5"
            font-family="'TGL 0-17_std', 'TGL 0-17', 'Times New Roman', Times, serif" font-size="12"
            fill="#000000" text-anchor="middle">CountOfElements</text>
    </g>
    <g id="fb_F_UPPER_BOUND" transform="translate(700.1, 489.0)">
      <path d="M 3 0
            L 128.291015625 0
            A 3 3 0 0 1 131.291015625 3
            L 131.291015625 18
            A 3 3 0 0 1 128.291015625 21
            L 122.291015625 21
            L 122.291015625 35
            L 128.291015625 35
            A 3 3 0 0 1 131.291015625 38
            L 131.291015625 69
            A 3 3 0 0 1 128.291015625 72
            L 3 72
            A 3 3 0 0 1 0 69
            L 0 38
            A 3 3 0 0 1 3 35
            L 9 35
            L 9 21
            L 3 21
            A 3 3 0 0 1 0 18
            L 0 3
            A 3 3 0 0 1 3 0
            Z"
            fill="#FFFFFF" stroke="#A0A0A0" stroke-width="1.5"
            stroke-linejoin="round" filter="url(#dropShadow)"/>
      <!-- Name Section -->
      <path d="M 13.0 20.0
            L 27.0 20.0
            A 1 1 0 0 1 28.0 21.0
            L 28.0 24.0
            L 26.5 24.0
            L 26.5 26.666666666666668
            L 28.0 26.666666666666668
            L 28.0 35.0
            A 1 1 0 0 1 27.0 36.0
            L 13.0 36.0
            A 1 1 0 0 1 12.0 35.0
            L 12.0 26.666666666666668
            L 13.5 26.666666666666668
            L 13.5 24.0
            L 12.0 24.0
            L 12.0 21.0
            A 1 1 0 0 1 13.0 20.0
            Z"
            fill="#87CEEB" stroke="#1565C0" stroke-width="1"/>
      <text x="20.0" y="32.0"
            font-family="'TGL 0-17_std', 'TGL 0-17', 'Times New Roman', Times, serif" font-size="10" font-weight="bold"
            fill="#000000" text-anchor="middle">B</text>
      <text x="30.0" y="32.0"
            font-family="'TGL 0-16_std', 'TGL 0-16', 'Times New Roman', Times, serif" font-size="12"
            fill="#000000">F_UPPER_BOUND</text>
      <polygon points="0,5.5 5,10.5 0,15.5" fill="#63B31F"/>
      <text x="6" y="14.7" font-family="'TGL 0-17_std', 'TGL 0-17', 'Times New Roman', Times, serif" font-size="12"
            fill="#000000">REQ</text>
      <polygon points="126.291015625,5.5 131.291015625,10.5 126.291015625,15.5" fill="#63B31F"/>
      <text x="125.291015625" y="14.7" font-family="'TGL 0-17_std', 'TGL 0-17', 'Times New Roman', Times, serif" font-size="12"
            fill="#000000" text-anchor="end">CNF</text>
      <polygon points="0,39.5 5,44.5 0,49.5" fill="#3366FF"/>
      <text x="6" y="48.7" font-family="'TGL 0-17_std', 'TGL 0-17', 'Times New Roman', Times, serif" font-size="12"
            fill="#000000">ARR</text>
      <polygon points="0,56.5 5,61.5 0,66.5" fill="#18519E"/>
      <text x="6" y="65.7" font-family="'TGL 0-17_std', 'TGL 0-17', 'Times New Roman', Times, serif" font-size="12"
            fill="#000000">DIM</text>
      <polygon points="126.291015625,39.5 131.291015625,44.5 126.291015625,49.5" fill="#18519E"/>
      <text x="125.291015625" y="48.7" font-family="'TGL 0-17_std', 'TGL 0-17', 'Times New Roman', Times, serif" font-size="12"
            fill="#000000" text-anchor="end">OUT</text>


      <!-- Instance Name -->
      <text x="65.6455078125" y="-5"
            font-family="'TGL 0-17_std', 'TGL 0-17', 'Times New Roman', Times, serif" font-size="12"
            fill="#000000" text-anchor="middle">F_UPPER_BOUND</text>
    </g>
    <g id="fb_F_LOWER_BOUND" transform="translate(700.1, 195.0)">
      <path d="M 3 0
            L 130.177734375 0
            A 3 3 0 0 1 133.177734375 3
            L 133.177734375 18
            A 3 3 0 0 1 130.177734375 21
            L 124.177734375 21
            L 124.177734375 35
            L 130.177734375 35
            A 3 3 0 0 1 133.177734375 38
            L 133.177734375 69
            A 3 3 0 0 1 130.177734375 72
            L 3 72
            A 3 3 0 0 1 0 69
            L 0 38
            A 3 3 0 0 1 3 35
            L 9 35
            L 9 21
            L 3 21
            A 3 3 0 0 1 0 18
            L 0 3
            A 3 3 0 0 1 3 0
            Z"
            fill="#FFFFFF" stroke="#A0A0A0" stroke-width="1.5"
            stroke-linejoin="round" filter="url(#dropShadow)"/>
      <!-- Name Section -->
      <path d="M 13.0 20.0
            L 27.0 20.0
            A 1 1 0 0 1 28.0 21.0
            L 28.0 24.0
            L 26.5 24.0
            L 26.5 26.666666666666668
            L 28.0 26.666666666666668
            L 28.0 35.0
            A 1 1 0 0 1 27.0 36.0
            L 13.0 36.0
            A 1 1 0 0 1 12.0 35.0
            L 12.0 26.666666666666668
            L 13.5 26.666666666666668
            L 13.5 24.0
            L 12.0 24.0
            L 12.0 21.0
            A 1 1 0 0 1 13.0 20.0
            Z"
            fill="#87CEEB" stroke="#1565C0" stroke-width="1"/>
      <text x="20.0" y="32.0"
            font-family="'TGL 0-17_std', 'TGL 0-17', 'Times New Roman', Times, serif" font-size="10" font-weight="bold"
            fill="#000000" text-anchor="middle">B</text>
      <text x="30.0" y="32.0"
            font-family="'TGL 0-16_std', 'TGL 0-16', 'Times New Roman', Times, serif" font-size="12"
            fill="#000000">F_LOWER_BOUND</text>
      <polygon points="0,5.5 5,10.5 0,15.5" fill="#63B31F"/>
      <text x="6" y="14.7" font-family="'TGL 0-17_std', 'TGL 0-17', 'Times New Roman', Times, serif" font-size="12"
            fill="#000000">REQ</text>
      <polygon points="128.177734375,5.5 133.177734375,10.5 128.177734375,15.5" fill="#63B31F"/>
      <text x="127.177734375" y="14.7" font-family="'TGL 0-17_std', 'TGL 0-17', 'Times New Roman', Times, serif" font-size="12"
            fill="#000000" text-anchor="end">CNF</text>
      <polygon points="0,39.5 5,44.5 0,49.5" fill="#3366FF"/>
      <text x="6" y="48.7" font-family="'TGL 0-17_std', 'TGL 0-17', 'Times New Roman', Times, serif" font-size="12"
            fill="#000000">ARR</text>
      <polygon points="0,56.5 5,61.5 0,66.5" fill="#18519E"/>
      <text x="6" y="65.7" font-family="'TGL 0-17_std', 'TGL 0-17', 'Times New Roman', Times, serif" font-size="12"
            fill="#000000">DIM</text>
      <polygon points="128.177734375,39.5 133.177734375,44.5 128.177734375,49.5" fill="#18519E"/>
      <text x="127.177734375" y="48.7" font-family="'TGL 0-17_std', 'TGL 0-17', 'Times New Roman', Times, serif" font-size="12"
            fill="#000000" text-anchor="end">OUT</text>


      <!-- Instance Name -->
      <text x="66.5888671875" y="-5"
            font-family="'TGL 0-17_std', 'TGL 0-17', 'Times New Roman', Times, serif" font-size="12"
            fill="#000000" text-anchor="middle">F_LOWER_BOUND</text>
    </g>
    <g id="fb_VALUES2ARRAY_8_INT" transform="translate(443.1, 269.0)">
      <path d="M 3 0
            L 145.142578125 0
            A 3 3 0 0 1 148.142578125 3
            L 148.142578125 18
            A 3 3 0 0 1 145.142578125 21
            L 139.142578125 21
            L 139.142578125 35
            L 145.142578125 35
            A 3 3 0 0 1 148.142578125 38
            L 148.142578125 171
            A 3 3 0 0 1 145.142578125 174
            L 3 174
            A 3 3 0 0 1 0 171
            L 0 38
            A 3 3 0 0 1 3 35
            L 9 35
            L 9 21
            L 3 21
            A 3 3 0 0 1 0 18
            L 0 3
            A 3 3 0 0 1 3 0
            Z"
            fill="#FFFFFF" stroke="#A0A0A0" stroke-width="1.5"
            stroke-linejoin="round" filter="url(#dropShadow)"/>
      <!-- Name Section -->
      <path d="M 13.0 20.0
            L 27.0 20.0
            A 1 1 0 0 1 28.0 21.0
            L 28.0 24.0
            L 26.5 24.0
            L 26.5 26.666666666666668
            L 28.0 26.666666666666668
            L 28.0 35.0
            A 1 1 0 0 1 27.0 36.0
            L 13.0 36.0
            A 1 1 0 0 1 12.0 35.0
            L 12.0 26.666666666666668
            L 13.5 26.666666666666668
            L 13.5 24.0
            L 12.0 24.0
            L 12.0 21.0
            A 1 1 0 0 1 13.0 20.0
            Z"
            fill="#87CEEB" stroke="#1565C0" stroke-width="1"/>
      <text x="20.0" y="32.0"
            font-family="'TGL 0-17_std', 'TGL 0-17', 'Times New Roman', Times, serif" font-size="10" font-weight="bold"
            fill="#000000" text-anchor="middle">Si</text>
      <text x="30.0" y="32.0"
            font-family="'TGL 0-16_std', 'TGL 0-16', 'Times New Roman', Times, serif" font-size="12"
            fill="#000000">VALUES2ARRAY_8_…</text>
      <polygon points="0,5.5 5,10.5 0,15.5" fill="#63B31F"/>
      <text x="6" y="14.7" font-family="'TGL 0-17_std', 'TGL 0-17', 'Times New Roman', Times, serif" font-size="12"
            fill="#000000">REQ</text>
      <polygon points="143.142578125,5.5 148.142578125,10.5 143.142578125,15.5" fill="#63B31F"/>
      <text x="142.142578125" y="14.7" font-family="'TGL 0-17_std', 'TGL 0-17', 'Times New Roman', Times, serif" font-size="12"
            fill="#000000" text-anchor="end">CNF</text>
      <polygon points="0,39.5 5,44.5 0,49.5" fill="#18519E"/>
      <text x="6" y="48.7" font-family="'TGL 0-17_std', 'TGL 0-17', 'Times New Roman', Times, serif" font-size="12"
            fill="#000000">IN_1</text>
      <polygon points="0,56.5 5,61.5 0,66.5" fill="#18519E"/>
      <text x="6" y="65.7" font-family="'TGL 0-17_std', 'TGL 0-17', 'Times New Roman', Times, serif" font-size="12"
            fill="#000000">IN_2</text>
      <polygon points="0,73.5 5,78.5 0,83.5" fill="#18519E"/>
      <text x="6" y="82.7" font-family="'TGL 0-17_std', 'TGL 0-17', 'Times New Roman', Times, serif" font-size="12"
            fill="#000000">IN_3</text>
      <polygon points="0,90.5 5,95.5 0,100.5" fill="#18519E"/>
      <text x="6" y="99.7" font-family="'TGL 0-17_std', 'TGL 0-17', 'Times New Roman', Times, serif" font-size="12"
            fill="#000000">IN_4</text>
      <polygon points="0,107.5 5,112.5 0,117.5" fill="#18519E"/>
      <text x="6" y="116.7" font-family="'TGL 0-17_std', 'TGL 0-17', 'Times New Roman', Times, serif" font-size="12"
            fill="#000000">IN_5</text>
      <polygon points="0,124.5 5,129.5 0,134.5" fill="#18519E"/>
      <text x="6" y="133.7" font-family="'TGL 0-17_std', 'TGL 0-17', 'Times New Roman', Times, serif" font-size="12"
            fill="#000000">IN_6</text>
      <polygon points="0,141.5 5,146.5 0,151.5" fill="#18519E"/>
      <text x="6" y="150.7" font-family="'TGL 0-17_std', 'TGL 0-17', 'Times New Roman', Times, serif" font-size="12"
            fill="#000000">IN_7</text>
      <polygon points="0,158.5 5,163.5 0,168.5" fill="#18519E"/>
      <text x="6" y="167.7" font-family="'TGL 0-17_std', 'TGL 0-17', 'Times New Roman', Times, serif" font-size="12"
            fill="#000000">IN_8</text>
      <polygon points="143.142578125,39.5 148.142578125,44.5 143.142578125,49.5" fill="#18519E"/>
      <text x="142.142578125" y="48.7" font-family="'TGL 0-17_std', 'TGL 0-17', 'Times New Roman', Times, serif" font-size="12"
            fill="#000000" text-anchor="end">OUT</text>
      <text x="-3" y="48.7" font-family="'TGL 0-17_std', 'TGL 0-17', 'Times New Roman', Times, serif" font-size="12" fill="#000000" text-anchor="end">INT#1</text>
      <text x="-3" y="65.7" font-family="'TGL 0-17_std', 'TGL 0-17', 'Times New Roman', Times, serif" font-size="12" fill="#000000" text-anchor="end">INT#22</text>
      <text x="-3" y="82.7" font-family="'TGL 0-17_std', 'TGL 0-17', 'Times New Roman', Times, serif" font-size="12" fill="#000000" text-anchor="end">INT#333</text>
      <text x="-3" y="99.7" font-family="'TGL 0-17_std', 'TGL 0-17', 'Times New Roman', Times, serif" font-size="12" fill="#000000" text-anchor="end">INT#4444</text>
      <text x="-3" y="116.7" font-family="'TGL 0-17_std', 'TGL 0-17', 'Times New Roman', Times, serif" font-size="12" fill="#000000" text-anchor="end">INT#333</text>
      <text x="-3" y="133.7" font-family="'TGL 0-17_std', 'TGL 0-17', 'Times New Roman', Times, serif" font-size="12" fill="#000000" text-anchor="end">INT#22</text>
      <text x="-3" y="150.7" font-family="'TGL 0-17_std', 'TGL 0-17', 'Times New Roman', Times, serif" font-size="12" fill="#000000" text-anchor="end">INT#1</text>
      <text x="-3" y="167.7" font-family="'TGL 0-17_std', 'TGL 0-17', 'Times New Roman', Times, serif" font-size="12" fill="#000000" text-anchor="end">INT#0</text>

      <!-- Instance Name -->
      <text x="74.0712890625" y="-5"
            font-family="'TGL 0-17_std', 'TGL 0-17', 'Times New Roman', Times, serif" font-size="12"
            fill="#000000" text-anchor="middle">VALUES2ARRAY_8_INT</text>
    </g>
    <g id="fb_INIT" transform="translate(274.1, 210.0)">
      <path d="M 3 0
            L 68.158203125 0
            A 3 3 0 0 1 71.158203125 3
            L 71.158203125 35
            A 3 3 0 0 1 68.158203125 38
            L 62.158203125 38
            L 62.158203125 52
            L 68.158203125 52
            A 3 3 0 0 1 71.158203125 55
            L 71.158203125 52
            A 3 3 0 0 1 68.158203125 55
            L 3 55
            A 3 3 0 0 1 0 52
            L 0 55
            A 3 3 0 0 1 3 52
            L 9 52
            L 9 38
            L 3 38
            A 3 3 0 0 1 0 35
            L 0 3
            A 3 3 0 0 1 3 0
            Z"
            fill="#FFFFFF" stroke="#A0A0A0" stroke-width="1.5"
            stroke-linejoin="round" filter="url(#dropShadow)"/>
      <!-- Name Section -->
      <path d="M 17.955078125 37.0
            L 31.955078125 37.0
            A 1 1 0 0 1 32.955078125 38.0
            L 32.955078125 41.0
            L 31.455078125 41.0
            L 31.455078125 43.666666666666664
            L 32.955078125 43.666666666666664
            L 32.955078125 52.0
            A 1 1 0 0 1 31.955078125 53.0
            L 17.955078125 53.0
            A 1 1 0 0 1 16.955078125 52.0
            L 16.955078125 43.666666666666664
            L 18.455078125 43.666666666666664
            L 18.455078125 41.0
            L 16.955078125 41.0
            L 16.955078125 38.0
            A 1 1 0 0 1 17.955078125 37.0
            Z"
            fill="#87CEEB" stroke="#1565C0" stroke-width="1"/>
      <text x="24.955078125" y="49.0"
            font-family="'TGL 0-17_std', 'TGL 0-17', 'Times New Roman', Times, serif" font-size="10" font-weight="bold"
            fill="#000000" text-anchor="middle">C</text>
      <text x="34.955078125" y="49.0"
            font-family="'TGL 0-16_std', 'TGL 0-16', 'Times New Roman', Times, serif" font-size="12"
            fill="#000000">INIT</text>
      <polygon points="0,5.5 5,10.5 0,15.5" fill="#63B31F"/>
      <text x="6" y="14.7" font-family="'TGL 0-17_std', 'TGL 0-17', 'Times New Roman', Times, serif" font-size="12"
            fill="#000000">INIT</text>
      <polygon points="0,22.5 5,27.5 0,32.5" fill="#63B31F"/>
      <text x="6" y="31.7" font-family="'TGL 0-17_std', 'TGL 0-17', 'Times New Roman', Times, serif" font-size="12"
            fill="#000000">REQ</text>
      <polygon points="66.158203125,5.5 71.158203125,10.5 66.158203125,15.5" fill="#63B31F"/>
      <text x="65.158203125" y="14.7" font-family="'TGL 0-17_std', 'TGL 0-17', 'Times New Roman', Times, serif" font-size="12"
            fill="#000000" text-anchor="end">INITO</text>
      <polygon points="66.158203125,22.5 71.158203125,27.5 66.158203125,32.5" fill="#63B31F"/>
      <text x="65.158203125" y="31.7" font-family="'TGL 0-17_std', 'TGL 0-17', 'Times New Roman', Times, serif" font-size="12"
            fill="#000000" text-anchor="end">CNF</text>



      <!-- Instance Name -->
      <text x="35.5791015625" y="-5"
            font-family="'TGL 0-17_std', 'TGL 0-17', 'Times New Roman', Times, serif" font-size="12"
            fill="#000000" text-anchor="middle">INIT</text>
    </g>
  </g>
</svg>