<?xml version="1.0" encoding="UTF-8"?>
<svg xmlns="http://www.w3.org/2000/svg"
     viewBox="53.0 -93.0 1303.9 1067.0"
     width="1304" height="1067">
  <style>
    @font-face {
      font-family: "TGL 0-17_std";
      src: local("TGL 0-17_std");
      font-style: normal;
      font-weight: normal;
    }
    @font-face {
      font-family: "TGL 0-17";
      src: local("TGL 0-17"), local("TGL 0-17 alt");
      font-style: normal;
      font-weight: normal;
    }
    @font-face {
      font-family: "TGL 0-16_std";
      src: local("TGL 0-16_std");
      font-style: normal;
      font-weight: normal;
    }
    @font-face {
      font-family: "TGL 0-16";
      src: local("TGL 0-16");
      font-style: normal;
      font-weight: normal;
    }
  </style>
  <defs>
    <filter id="dropShadow" x="-20%" y="-20%" width="140%" height="140%">
      <feGaussianBlur in="SourceAlpha" stdDeviation="3" result="blur"/>
      <feOffset in="blur" dx="1" dy="1" result="offsetBlur"/>
      <feFlood flood-color="#000000" flood-opacity="0.5" result="shadowColor"/>
      <feComposite in="shadowColor" in2="offsetBlur" operator="in" result="shadow"/>
      <feMerge>
        <feMergeNode in="shadow"/>
        <feMergeNode in="SourceGraphic"/>
      </feMerge>
    </filter>
  </defs>
  <rect x="53.0" y="-93.0" width="1303.9" height="1067.0" fill="white"/>
  <rect x="60.0" y="-86.0" width="1289.9" height="1053.0" fill="none" stroke="#A0A0A0" stroke-width="2"/>
  <rect x="60.0" y="-86.0" width="1289.9" height="25.0" fill="white" stroke="none"/>
  <line x1="60.0" y1="-61.5" x2="1349.9" y2="-61.5" stroke="#A0A0A0" stroke-width="1"/>
  <text x="65.0" y="-69.3" font-family="'TGL 0-17_std', 'TGL 0-17', 'Times New Roman', Times, serif" font-size="12" font-weight="bold" fill="#333333">Übung zu ISOBUS Send Message GLOBAL TP BAM</text>
  <g id="sidebars">
  </g>
  <g id="connections">
    <polyline points="205.3,297.5 289.3,297.5 294.3,302.5 294.3,800.5 299.3,805.5 405.0,805.5" fill="none" stroke="#63B31F" stroke-width="1.5" stroke-linejoin="round"/>
    <polyline points="205.3,297.5 289.3,297.5 294.3,302.5 294.3,605.5 299.3,610.5 390.0,610.5" fill="none" stroke="#63B31F" stroke-width="1.5" stroke-linejoin="round"/>
    <polyline points="205.3,297.5 289.3,297.5 294.3,302.5 294.3,425.5 299.3,430.5 390.0,430.5" fill="none" stroke="#63B31F" stroke-width="1.5" stroke-linejoin="round"/>
    <polyline points="205.3,297.5 503.3,297.5 508.3,302.5 508.3,305.5 513.3,310.5 840.0,310.5" fill="none" stroke="#63B31F" stroke-width="1.5" stroke-linejoin="round"/>
    <polyline points="180.1,134.5 349.1,134.5 354.1,139.5 354.1,264.5 359.1,269.5 1215.0,269.5" fill="none" stroke="#63B31F" stroke-width="1.5" stroke-linejoin="round"/>
    <polyline points="949.8,310.5 1072.7,310.5 1077.7,305.5 1077.7,257.5 1082.7,252.5 1215.0,252.5" fill="none" stroke="#63B31F" stroke-width="1.5" stroke-linejoin="round"/>
    <polyline points="971.1,85.5 1064.1,85.5 1069.1,90.5 1069.1,230.5 1074.1,235.5 1215.0,235.5" fill="none" stroke="#63B31F" stroke-width="1.5" stroke-linejoin="round"/>
    <polyline points="205.3,382.5 284.3,382.5 289.3,387.5 289.3,834.5 294.3,839.5 405.0,839.5" fill="none" stroke="#3366FF" stroke-width="3" stroke-linejoin="round"/>
    <polyline points="205.3,382.5 284.3,382.5 289.3,387.5 289.3,834.5 294.3,839.5 405.0,839.5" fill="none" stroke="#CCD8FF" stroke-width="1" stroke-linejoin="round"/>
    <polyline points="205.3,348.5 299.3,348.5 304.3,353.5 304.3,459.5 309.3,464.5 390.0,464.5" fill="none" stroke="#3366FF" stroke-width="3" stroke-linejoin="round"/>
    <polyline points="205.3,348.5 299.3,348.5 304.3,353.5 304.3,459.5 309.3,464.5 390.0,464.5" fill="none" stroke="#CCD8FF" stroke-width="1" stroke-linejoin="round"/>
    <polyline points="205.3,365.5 294.3,365.5 299.3,370.5 299.3,639.5 304.3,644.5 390.0,644.5" fill="none" stroke="#3366FF" stroke-width="3" stroke-linejoin="round"/>
    <polyline points="205.3,365.5 294.3,365.5 299.3,370.5 299.3,639.5 304.3,644.5 390.0,644.5" fill="none" stroke="#CCD8FF" stroke-width="1" stroke-linejoin="round"/>
    <polyline points="205.3,348.5 506.7,348.5 508.3,346.9 508.3,346.1 509.9,344.5 840.0,344.5" fill="none" stroke="#3366FF" stroke-width="3" stroke-linejoin="round"/>
    <polyline points="205.3,348.5 506.7,348.5 508.3,346.9 508.3,346.1 509.9,344.5 840.0,344.5" fill="none" stroke="#CCD8FF" stroke-width="1" stroke-linejoin="round"/>
    <polyline points="949.8,344.5 1049.0,344.5 1051.8,341.7 1051.8,340.3 1054.5,337.5 1215.0,337.5" fill="none" stroke="#3366FF" stroke-width="1.5" stroke-linejoin="round"/>
    <polyline points="971.1,119.5 996.1,119.5 1001.1,124.5 1001.1,349.5 1006.1,354.5 1215.0,354.5" fill="none" stroke="#3366FF" stroke-width="1.5" stroke-linejoin="round"/>
  </g>
  <g id="interface_ports">
  </g>
  <g id="instances">
    <g id="fb_STRUCT_DEMUX_3" transform="translate(405.0, 795.0)">
      <path d="M 3 0
            L 123.6875 0
            A 3 3 0 0 1 126.6875 3
            L 126.6875 18
            A 3 3 0 0 1 123.6875 21
            L 117.6875 21
            L 117.6875 35
            L 123.6875 35
            A 3 3 0 0 1 126.6875 38
            L 126.6875 52
            A 3 3 0 0 1 123.6875 55
            L 3 55
            A 3 3 0 0 1 0 52
            L 0 38
            A 3 3 0 0 1 3 35
            L 9 35
            L 9 21
            L 3 21
            A 3 3 0 0 1 0 18
            L 0 3
            A 3 3 0 0 1 3 0
            Z"
            fill="#FFFFFF" stroke="#A0A0A0" stroke-width="1.5"
            stroke-linejoin="round" filter="url(#dropShadow)"/>
      <!-- Name Section -->
      <path d="M 13.0 20.0
            L 27.0 20.0
            A 1 1 0 0 1 28.0 21.0
            L 28.0 24.0
            L 26.5 24.0
            L 26.5 26.666666666666668
            L 28.0 26.666666666666668
            L 28.0 35.0
            A 1 1 0 0 1 27.0 36.0
            L 13.0 36.0
            A 1 1 0 0 1 12.0 35.0
            L 12.0 26.666666666666668
            L 13.5 26.666666666666668
            L 13.5 24.0
            L 12.0 24.0
            L 12.0 21.0
            A 1 1 0 0 1 13.0 20.0
            Z"
            fill="#87CEEB" stroke="#1565C0" stroke-width="1"/>
      <text x="20.0" y="32.0"
            font-family="'TGL 0-17_std', 'TGL 0-17', 'Times New Roman', Times, serif" font-size="10" font-weight="bold"
            fill="#000000" text-anchor="middle">B</text>
      <text x="30.0" y="32.0"
            font-family="'TGL 0-16_std', 'TGL 0-16', 'Times New Roman', Times, serif" font-size="12"
            fill="#000000">STRUCT_DEMUX</text>
      <polygon points="0,5.5 5,10.5 0,15.5" fill="#63B31F"/>
      <text x="6" y="14.7" font-family="'TGL 0-17_std', 'TGL 0-17', 'Times New Roman', Times, serif" font-size="12"
            fill="#000000">REQ</text>
      <polygon points="0,39.5 5,44.5 0,49.5" fill="#3366FF"/>
      <text x="6" y="48.7" font-family="'TGL 0-17_std', 'TGL 0-17', 'Times New Roman', Times, serif" font-size="12"
            fill="#000000">IN</text>


      <!-- Instance Name -->
      <text x="63.34375" y="-5"
            font-family="'TGL 0-17_std', 'TGL 0-17', 'Times New Roman', Times, serif" font-size="12"
            fill="#000000" text-anchor="middle">STRUCT_DEMUX_3</text>
    </g>
    <g id="fb_NmGetCfInfo_1" transform="translate(60.0, 270.0)">
      <path d="M 3 0
            L 142.3125 0
            A 3 3 0 0 1 145.3125 3
            L 145.3125 35
            A 3 3 0 0 1 142.3125 38
            L 136.3125 38
            L 136.3125 52
            L 142.3125 52
            A 3 3 0 0 1 145.3125 55
            L 145.3125 120
            A 3 3 0 0 1 142.3125 123
            L 3 123
            A 3 3 0 0 1 0 120
            L 0 55
            A 3 3 0 0 1 3 52
            L 9 52
            L 9 38
            L 3 38
            A 3 3 0 0 1 0 35
            L 0 3
            A 3 3 0 0 1 3 0
            Z"
            fill="#FFFFFF" stroke="#A0A0A0" stroke-width="1.5"
            stroke-linejoin="round" filter="url(#dropShadow)"/>
      <!-- Name Section -->
      <path d="M 33.25 37.0
            L 47.25 37.0
            A 1 1 0 0 1 48.25 38.0
            L 48.25 41.0
            L 46.75 41.0
            L 46.75 43.666666666666664
            L 48.25 43.666666666666664
            L 48.25 52.0
            A 1 1 0 0 1 47.25 53.0
            L 33.25 53.0
            A 1 1 0 0 1 32.25 52.0
            L 32.25 43.666666666666664
            L 33.75 43.666666666666664
            L 33.75 41.0
            L 32.25 41.0
            L 32.25 38.0
            A 1 1 0 0 1 33.25 37.0
            Z"
            fill="#87CEEB" stroke="#1565C0" stroke-width="1"/>
      <text x="40.25" y="49.0"
            font-family="'TGL 0-17_std', 'TGL 0-17', 'Times New Roman', Times, serif" font-size="10" font-weight="bold"
            fill="#000000" text-anchor="middle">Si</text>
      <text x="50.25" y="49.0"
            font-family="'TGL 0-16_std', 'TGL 0-16', 'Times New Roman', Times, serif" font-size="12"
            fill="#000000">NmGetCfInfo</text>
      <polygon points="0,5.5 5,10.5 0,15.5" fill="#63B31F"/>
      <text x="6" y="14.7" font-family="'TGL 0-17_std', 'TGL 0-17', 'Times New Roman', Times, serif" font-size="12"
            fill="#000000">INIT</text>
      <polygon points="0,22.5 5,27.5 0,32.5" fill="#63B31F"/>
      <text x="6" y="31.7" font-family="'TGL 0-17_std', 'TGL 0-17', 'Times New Roman', Times, serif" font-size="12"
            fill="#000000">RSP</text>
      <polygon points="140.3125,5.5 145.3125,10.5 140.3125,15.5" fill="#63B31F"/>
      <text x="139.3125" y="14.7" font-family="'TGL 0-17_std', 'TGL 0-17', 'Times New Roman', Times, serif" font-size="12"
            fill="#000000" text-anchor="end">INITO</text>
      <polygon points="140.3125,22.5 145.3125,27.5 140.3125,32.5" fill="#63B31F"/>
      <text x="139.3125" y="31.7" font-family="'TGL 0-17_std', 'TGL 0-17', 'Times New Roman', Times, serif" font-size="12"
            fill="#000000" text-anchor="end">IND</text>
      <polygon points="0,56.5 5,61.5 0,66.5" fill="#18519E"/>
      <text x="6" y="65.7" font-family="'TGL 0-17_std', 'TGL 0-17', 'Times New Roman', Times, serif" font-size="12"
            fill="#000000">u8CanIdx</text>
      <polygon points="0,73.5 5,78.5 0,83.5" fill="#18519E"/>
      <text x="6" y="82.7" font-family="'TGL 0-17_std', 'TGL 0-17', 'Times New Roman', Times, serif" font-size="12"
            fill="#000000">member</text>
      <polygon points="0,90.5 5,95.5 0,100.5" fill="#3366FF"/>
      <text x="6" y="99.7" font-family="'TGL 0-17_std', 'TGL 0-17', 'Times New Roman', Times, serif" font-size="12"
            fill="#000000">address</text>
      <polygon points="0,107.5 5,112.5 0,117.5" fill="#3366FF"/>
      <text x="6" y="116.7" font-family="'TGL 0-17_std', 'TGL 0-17', 'Times New Roman', Times, serif" font-size="12"
            fill="#000000">mask</text>
      <polygon points="140.3125,56.5 145.3125,61.5 140.3125,66.5" fill="#A3B08F"/>
      <text x="139.3125" y="65.7" font-family="'TGL 0-17_std', 'TGL 0-17', 'Times New Roman', Times, serif" font-size="12"
            fill="#000000" text-anchor="end">bwaitingForR…</text>
      <polygon points="140.3125,73.5 145.3125,78.5 140.3125,83.5" fill="#3366FF"/>
      <text x="139.3125" y="82.7" font-family="'TGL 0-17_std', 'TGL 0-17', 'Times New Roman', Times, serif" font-size="12"
            fill="#000000" text-anchor="end">sNetEv</text>
      <polygon points="140.3125,90.5 145.3125,95.5 140.3125,100.5" fill="#3366FF"/>
      <text x="139.3125" y="99.7" font-family="'TGL 0-17_std', 'TGL 0-17', 'Times New Roman', Times, serif" font-size="12"
            fill="#000000" text-anchor="end">sCfInfo</text>
      <polygon points="140.3125,107.5 145.3125,112.5 140.3125,117.5" fill="#3366FF"/>
      <text x="139.3125" y="116.7" font-family="'TGL 0-17_std', 'TGL 0-17', 'Times New Roman', Times, serif" font-size="12"
            fill="#000000" text-anchor="end">sNameField</text>
      <text x="-3" y="65.7" font-family="'TGL 0-17_std', 'TGL 0-17', 'Times New Roman', Times, serif" font-size="12" fill="#000000" text-anchor="end">NODE1</text>
      <text x="-3" y="82.7" font-family="'TGL 0-17_std', 'TGL 0-17', 'Times New Roman', Times, serif" font-size="12" fill="#000000" text-anchor="end">thisMember</text>
      <text x="-3" y="99.7" font-family="'TGL 0-17_std', 'TGL 0-17', 'Times New Roman', Times, serif" font-size="12" fill="#000000" text-anchor="end">ADD_ALL_PASS</text>
      <text x="-3" y="116.7" font-family="'TGL 0-17_std', 'TGL 0-17', 'Times New Roman', Times, serif" font-size="12" fill="#000000" text-anchor="end">FLT_ALL_PASS</text>

      <!-- Instance Name -->
      <text x="72.65625" y="-5"
            font-family="'TGL 0-17_std', 'TGL 0-17', 'Times New Roman', Times, serif" font-size="12"
            fill="#000000" text-anchor="middle">NmGetCfInfo_1</text>
    </g>
    <g id="fb_STRUCT_DEMUX_4" transform="translate(390.0, 600.0)">
      <path d="M 3 0
            L 123.6875 0
            A 3 3 0 0 1 126.6875 3
            L 126.6875 18
            A 3 3 0 0 1 123.6875 21
            L 117.6875 21
            L 117.6875 35
            L 123.6875 35
            A 3 3 0 0 1 126.6875 38
            L 126.6875 52
            A 3 3 0 0 1 123.6875 55
            L 3 55
            A 3 3 0 0 1 0 52
            L 0 38
            A 3 3 0 0 1 3 35
            L 9 35
            L 9 21
            L 3 21
            A 3 3 0 0 1 0 18
            L 0 3
            A 3 3 0 0 1 3 0
            Z"
            fill="#FFFFFF" stroke="#A0A0A0" stroke-width="1.5"
            stroke-linejoin="round" filter="url(#dropShadow)"/>
      <!-- Name Section -->
      <path d="M 13.0 20.0
            L 27.0 20.0
            A 1 1 0 0 1 28.0 21.0
            L 28.0 24.0
            L 26.5 24.0
            L 26.5 26.666666666666668
            L 28.0 26.666666666666668
            L 28.0 35.0
            A 1 1 0 0 1 27.0 36.0
            L 13.0 36.0
            A 1 1 0 0 1 12.0 35.0
            L 12.0 26.666666666666668
            L 13.5 26.666666666666668
            L 13.5 24.0
            L 12.0 24.0
            L 12.0 21.0
            A 1 1 0 0 1 13.0 20.0
            Z"
            fill="#87CEEB" stroke="#1565C0" stroke-width="1"/>
      <text x="20.0" y="32.0"
            font-family="'TGL 0-17_std', 'TGL 0-17', 'Times New Roman', Times, serif" font-size="10" font-weight="bold"
            fill="#000000" text-anchor="middle">B</text>
      <text x="30.0" y="32.0"
            font-family="'TGL 0-16_std', 'TGL 0-16', 'Times New Roman', Times, serif" font-size="12"
            fill="#000000">STRUCT_DEMUX</text>
      <polygon points="0,5.5 5,10.5 0,15.5" fill="#63B31F"/>
      <text x="6" y="14.7" font-family="'TGL 0-17_std', 'TGL 0-17', 'Times New Roman', Times, serif" font-size="12"
            fill="#000000">REQ</text>
      <polygon points="0,39.5 5,44.5 0,49.5" fill="#3366FF"/>
      <text x="6" y="48.7" font-family="'TGL 0-17_std', 'TGL 0-17', 'Times New Roman', Times, serif" font-size="12"
            fill="#000000">IN</text>


      <!-- Instance Name -->
      <text x="63.34375" y="-5"
            font-family="'TGL 0-17_std', 'TGL 0-17', 'Times New Roman', Times, serif" font-size="12"
            fill="#000000" text-anchor="middle">STRUCT_DEMUX_4</text>
    </g>
    <g id="fb_STRUCT_DEMUX_5" transform="translate(390.0, 420.0)">
      <path d="M 3 0
            L 123.6875 0
            A 3 3 0 0 1 126.6875 3
            L 126.6875 18
            A 3 3 0 0 1 123.6875 21
            L 117.6875 21
            L 117.6875 35
            L 123.6875 35
            A 3 3 0 0 1 126.6875 38
            L 126.6875 52
            A 3 3 0 0 1 123.6875 55
            L 3 55
            A 3 3 0 0 1 0 52
            L 0 38
            A 3 3 0 0 1 3 35
            L 9 35
            L 9 21
            L 3 21
            A 3 3 0 0 1 0 18
            L 0 3
            A 3 3 0 0 1 3 0
            Z"
            fill="#FFFFFF" stroke="#A0A0A0" stroke-width="1.5"
            stroke-linejoin="round" filter="url(#dropShadow)"/>
      <!-- Name Section -->
      <path d="M 13.0 20.0
            L 27.0 20.0
            A 1 1 0 0 1 28.0 21.0
            L 28.0 24.0
            L 26.5 24.0
            L 26.5 26.666666666666668
            L 28.0 26.666666666666668
            L 28.0 35.0
            A 1 1 0 0 1 27.0 36.0
            L 13.0 36.0
            A 1 1 0 0 1 12.0 35.0
            L 12.0 26.666666666666668
            L 13.5 26.666666666666668
            L 13.5 24.0
            L 12.0 24.0
            L 12.0 21.0
            A 1 1 0 0 1 13.0 20.0
            Z"
            fill="#87CEEB" stroke="#1565C0" stroke-width="1"/>
      <text x="20.0" y="32.0"
            font-family="'TGL 0-17_std', 'TGL 0-17', 'Times New Roman', Times, serif" font-size="10" font-weight="bold"
            fill="#000000" text-anchor="middle">B</text>
      <text x="30.0" y="32.0"
            font-family="'TGL 0-16_std', 'TGL 0-16', 'Times New Roman', Times, serif" font-size="12"
            fill="#000000">STRUCT_DEMUX</text>
      <polygon points="0,5.5 5,10.5 0,15.5" fill="#63B31F"/>
      <text x="6" y="14.7" font-family="'TGL 0-17_std', 'TGL 0-17', 'Times New Roman', Times, serif" font-size="12"
            fill="#000000">REQ</text>
      <polygon points="0,39.5 5,44.5 0,49.5" fill="#3366FF"/>
      <text x="6" y="48.7" font-family="'TGL 0-17_std', 'TGL 0-17', 'Times New Roman', Times, serif" font-size="12"
            fill="#000000">IN</text>


      <!-- Instance Name -->
      <text x="63.34375" y="-5"
            font-family="'TGL 0-17_std', 'TGL 0-17', 'Times New Roman', Times, serif" font-size="12"
            fill="#000000" text-anchor="middle">STRUCT_DEMUX_5</text>
    </g>
    <g id="fb_AlPgnTxNew_TP" transform="translate(1215.0, 225.0)">
      <path d="M 3 0
            L 131.875 0
            A 3 3 0 0 1 134.875 3
            L 134.875 86
            A 3 3 0 0 1 131.875 89
            L 125.875 89
            L 125.875 103
            L 131.875 103
            A 3 3 0 0 1 134.875 106
            L 134.875 188
            A 3 3 0 0 1 131.875 191
            L 3 191
            A 3 3 0 0 1 0 188
            L 0 106
            A 3 3 0 0 1 3 103
            L 9 103
            L 9 89
            L 3 89
            A 3 3 0 0 1 0 86
            L 0 3
            A 3 3 0 0 1 3 0
            Z"
            fill="#FFFFFF" stroke="#A0A0A0" stroke-width="1.5"
            stroke-linejoin="round" filter="url(#dropShadow)"/>
      <!-- Name Section -->
      <path d="M 18.1875 88.0
            L 32.1875 88.0
            A 1 1 0 0 1 33.1875 89.0
            L 33.1875 92.0
            L 31.6875 92.0
            L 31.6875 94.66666666666667
            L 33.1875 94.66666666666667
            L 33.1875 103.0
            A 1 1 0 0 1 32.1875 104.0
            L 18.1875 104.0
            A 1 1 0 0 1 17.1875 103.0
            L 17.1875 94.66666666666667
            L 18.6875 94.66666666666667
            L 18.6875 92.0
            L 17.1875 92.0
            L 17.1875 89.0
            A 1 1 0 0 1 18.1875 88.0
            Z"
            fill="#87CEEB" stroke="#1565C0" stroke-width="1"/>
      <text x="25.1875" y="100.0"
            font-family="'TGL 0-17_std', 'TGL 0-17', 'Times New Roman', Times, serif" font-size="10" font-weight="bold"
            fill="#000000" text-anchor="middle">Si</text>
      <text x="35.1875" y="100.0"
            font-family="'TGL 0-16_std', 'TGL 0-16', 'Times New Roman', Times, serif" font-size="12"
            fill="#000000">AlPgnTxNew_TP</text>
      <polygon points="0,5.5 5,10.5 0,15.5" fill="#63B31F"/>
      <text x="6" y="14.7" font-family="'TGL 0-17_std', 'TGL 0-17', 'Times New Roman', Times, serif" font-size="12"
            fill="#000000">INIT</text>
      <polygon points="0,22.5 5,27.5 0,32.5" fill="#63B31F"/>
      <text x="6" y="31.7" font-family="'TGL 0-17_std', 'TGL 0-17', 'Times New Roman', Times, serif" font-size="12"
            fill="#000000">install</text>
      <polygon points="0,39.5 5,44.5 0,49.5" fill="#63B31F"/>
      <text x="6" y="48.7" font-family="'TGL 0-17_std', 'TGL 0-17', 'Times New Roman', Times, serif" font-size="12"
            fill="#000000">REQ</text>
      <polygon points="129.875,5.5 134.875,10.5 129.875,15.5" fill="#63B31F"/>
      <text x="128.875" y="14.7" font-family="'TGL 0-17_std', 'TGL 0-17', 'Times New Roman', Times, serif" font-size="12"
            fill="#000000" text-anchor="end">INITO</text>
      <polygon points="129.875,22.5 134.875,27.5 129.875,32.5" fill="#63B31F"/>
      <text x="128.875" y="31.7" font-family="'TGL 0-17_std', 'TGL 0-17', 'Times New Roman', Times, serif" font-size="12"
            fill="#000000" text-anchor="end">installO</text>
      <polygon points="129.875,39.5 134.875,44.5 129.875,49.5" fill="#63B31F"/>
      <text x="128.875" y="48.7" font-family="'TGL 0-17_std', 'TGL 0-17', 'Times New Roman', Times, serif" font-size="12"
            fill="#000000" text-anchor="end">CNF</text>
      <polygon points="129.875,56.5 134.875,61.5 129.875,66.5" fill="#63B31F"/>
      <text x="128.875" y="65.7" font-family="'TGL 0-17_std', 'TGL 0-17', 'Times New Roman', Times, serif" font-size="12"
            fill="#000000" text-anchor="end">dataERR</text>
      <polygon points="129.875,73.5 134.875,78.5 129.875,83.5" fill="#63B31F"/>
      <text x="128.875" y="82.7" font-family="'TGL 0-17_std', 'TGL 0-17', 'Times New Roman', Times, serif" font-size="12"
            fill="#000000" text-anchor="end">pgnERR</text>
      <polygon points="0,107.5 5,112.5 0,117.5" fill="#3366FF"/>
      <text x="6" y="116.7" font-family="'TGL 0-17_std', 'TGL 0-17', 'Times New Roman', Times, serif" font-size="12"
            fill="#000000">NmDestin</text>
      <polygon points="0,124.5 5,129.5 0,134.5" fill="#3366FF"/>
      <text x="6" y="133.7" font-family="'TGL 0-17_std', 'TGL 0-17', 'Times New Roman', Times, serif" font-size="12"
            fill="#000000">Data</text>
      <polygon points="0,141.5 5,146.5 0,151.5" fill="#3366FF"/>
      <text x="6" y="150.7" font-family="'TGL 0-17_std', 'TGL 0-17', 'Times New Roman', Times, serif" font-size="12"
            fill="#000000">u32Pgn</text>
      <polygon points="0,158.5 5,163.5 0,168.5" fill="#3366FF"/>
      <text x="6" y="167.7" font-family="'TGL 0-17_std', 'TGL 0-17', 'Times New Roman', Times, serif" font-size="12"
            fill="#000000">u16DaSize</text>
      <polygon points="0,175.5 5,180.5 0,185.5" fill="#3366FF"/>
      <text x="6" y="184.7" font-family="'TGL 0-17_std', 'TGL 0-17', 'Times New Roman', Times, serif" font-size="12"
            fill="#000000">u8Priority</text>
      <polygon points="129.875,107.5 134.875,112.5 129.875,117.5" fill="#18519E"/>
      <text x="128.875" y="116.7" font-family="'TGL 0-17_std', 'TGL 0-17', 'Times New Roman', Times, serif" font-size="12"
            fill="#000000" text-anchor="end">PGN_handle</text>
      <polygon points="129.875,124.5 134.875,129.5 129.875,134.5" fill="#18519E"/>
      <text x="128.875" y="133.7" font-family="'TGL 0-17_std', 'TGL 0-17', 'Times New Roman', Times, serif" font-size="12"
            fill="#000000" text-anchor="end">dataERRC</text>
      <polygon points="129.875,141.5 134.875,146.5 129.875,151.5" fill="#18519E"/>
      <text x="128.875" y="150.7" font-family="'TGL 0-17_std', 'TGL 0-17', 'Times New Roman', Times, serif" font-size="12"
            fill="#000000" text-anchor="end">pgnERRC</text>
      <text x="-3" y="150.7" font-family="'TGL 0-17_std', 'TGL 0-17', 'Times New Roman', Times, serif" font-size="12" fill="#000000" text-anchor="end">PGN_PDU1_PropA</text>
      <text x="-3" y="167.7" font-family="'TGL 0-17_std', 'TGL 0-17', 'Times New Roman', Times, serif" font-size="12" fill="#000000" text-anchor="end">0</text>
      <text x="-3" y="184.7" font-family="'TGL 0-17_std', 'TGL 0-17', 'Times New Roman', Times, serif" font-size="12" fill="#000000" text-anchor="end">3</text>

      <!-- Instance Name -->
      <text x="67.4375" y="-5"
            font-family="'TGL 0-17_std', 'TGL 0-17', 'Times New Roman', Times, serif" font-size="12"
            fill="#000000" text-anchor="middle">AlPgnTxNew_TP</text>
    </g>
    <g id="fb_DigitalInput_CLK_I1" transform="translate(60.0, 90.0)">
      <path d="M 3 0
            L 117.125 0
            A 3 3 0 0 1 120.125 3
            L 120.125 52
            A 3 3 0 0 1 117.125 55
            L 111.125 55
            L 111.125 69
            L 117.125 69
            A 3 3 0 0 1 120.125 72
            L 120.125 137
            A 3 3 0 0 1 117.125 140
            L 3 140
            A 3 3 0 0 1 0 137
            L 0 72
            A 3 3 0 0 1 3 69
            L 9 69
            L 9 55
            L 3 55
            A 3 3 0 0 1 0 52
            L 0 3
            A 3 3 0 0 1 3 0
            Z"
            fill="#FFFFFF" stroke="#A0A0A0" stroke-width="1.5"
            stroke-linejoin="round" filter="url(#dropShadow)"/>
      <!-- Name Section -->
      <path d="M 24.4375 54.0
            L 38.4375 54.0
            A 1 1 0 0 1 39.4375 55.0
            L 39.4375 58.0
            L 37.9375 58.0
            L 37.9375 60.666666666666664
            L 39.4375 60.666666666666664
            L 39.4375 69.0
            A 1 1 0 0 1 38.4375 70.0
            L 24.4375 70.0
            A 1 1 0 0 1 23.4375 69.0
            L 23.4375 60.666666666666664
            L 24.9375 60.666666666666664
            L 24.9375 58.0
            L 23.4375 58.0
            L 23.4375 55.0
            A 1 1 0 0 1 24.4375 54.0
            Z"
            fill="#87CEEB" stroke="#1565C0" stroke-width="1"/>
      <text x="31.4375" y="66.0"
            font-family="'TGL 0-17_std', 'TGL 0-17', 'Times New Roman', Times, serif" font-size="10" font-weight="bold"
            fill="#000000" text-anchor="middle">Si</text>
      <text x="41.4375" y="66.0"
            font-family="'TGL 0-16_std', 'TGL 0-16', 'Times New Roman', Times, serif" font-size="12"
            fill="#000000">logiBUS_IE</text>
      <polygon points="0,5.5 5,10.5 0,15.5" fill="#63B31F"/>
      <text x="6" y="14.7" font-family="'TGL 0-17_std', 'TGL 0-17', 'Times New Roman', Times, serif" font-size="12"
            fill="#000000">INIT</text>
      <polygon points="0,22.5 5,27.5 0,32.5" fill="#63B31F"/>
      <text x="6" y="31.7" font-family="'TGL 0-17_std', 'TGL 0-17', 'Times New Roman', Times, serif" font-size="12"
            fill="#000000">REQ</text>
      <polygon points="115.125,5.5 120.125,10.5 115.125,15.5" fill="#63B31F"/>
      <text x="114.125" y="14.7" font-family="'TGL 0-17_std', 'TGL 0-17', 'Times New Roman', Times, serif" font-size="12"
            fill="#000000" text-anchor="end">INITO</text>
      <polygon points="115.125,22.5 120.125,27.5 115.125,32.5" fill="#63B31F"/>
      <text x="114.125" y="31.7" font-family="'TGL 0-17_std', 'TGL 0-17', 'Times New Roman', Times, serif" font-size="12"
            fill="#000000" text-anchor="end">CNF</text>
      <polygon points="115.125,39.5 120.125,44.5 115.125,49.5" fill="#63B31F"/>
      <text x="114.125" y="48.7" font-family="'TGL 0-17_std', 'TGL 0-17', 'Times New Roman', Times, serif" font-size="12"
            fill="#000000" text-anchor="end">IND</text>
      <polygon points="0,73.5 5,78.5 0,83.5" fill="#A3B08F"/>
      <text x="6" y="82.7" font-family="'TGL 0-17_std', 'TGL 0-17', 'Times New Roman', Times, serif" font-size="12"
            fill="#000000">QI</text>
      <polygon points="0,90.5 5,95.5 0,100.5" fill="#BD8663"/>
      <text x="6" y="99.7" font-family="'TGL 0-17_std', 'TGL 0-17', 'Times New Roman', Times, serif" font-size="12"
            fill="#000000">PARAMS</text>
      <polygon points="0,107.5 5,112.5 0,117.5" fill="#3366FF"/>
      <text x="6" y="116.7" font-family="'TGL 0-17_std', 'TGL 0-17', 'Times New Roman', Times, serif" font-size="12"
            fill="#000000">Input</text>
      <polygon points="0,124.5 5,129.5 0,134.5" fill="#3366FF"/>
      <text x="6" y="133.7" font-family="'TGL 0-17_std', 'TGL 0-17', 'Times New Roman', Times, serif" font-size="12"
            fill="#000000">InputEvent</text>
      <polygon points="115.125,73.5 120.125,78.5 115.125,83.5" fill="#A3B08F"/>
      <text x="114.125" y="82.7" font-family="'TGL 0-17_std', 'TGL 0-17', 'Times New Roman', Times, serif" font-size="12"
            fill="#000000" text-anchor="end">QO</text>
      <polygon points="115.125,90.5 120.125,95.5 115.125,100.5" fill="#BD8663"/>
      <text x="114.125" y="99.7" font-family="'TGL 0-17_std', 'TGL 0-17', 'Times New Roman', Times, serif" font-size="12"
            fill="#000000" text-anchor="end">STATUS</text>
      <text x="-3" y="82.7" font-family="'TGL 0-17_std', 'TGL 0-17', 'Times New Roman', Times, serif" font-size="12" fill="#000000" text-anchor="end">TRUE</text>
      <text x="-3" y="116.7" font-family="'TGL 0-17_std', 'TGL 0-17', 'Times New Roman', Times, serif" font-size="12" fill="#000000" text-anchor="end">Input_I1</text>
      <text x="-3" y="133.7" font-family="'TGL 0-17_std', 'TGL 0-17', 'Times New Roman', Times, serif" font-size="12" fill="#000000" text-anchor="end">BUTTON_SINGLE_CLICK</text>

      <!-- Instance Name -->
      <text x="60.0625" y="-5"
            font-family="'TGL 0-17_std', 'TGL 0-17', 'Times New Roman', Times, serif" font-size="12"
            fill="#000000" text-anchor="middle">DigitalInput_CLK_I1</text>
    </g>
    <g id="fb_NetEv2NetEv" transform="translate(840.0, 300.0)">
      <path d="M 3 0
            L 106.75 0
            A 3 3 0 0 1 109.75 3
            L 109.75 18
            A 3 3 0 0 1 106.75 21
            L 100.75 21
            L 100.75 35
            L 106.75 35
            A 3 3 0 0 1 109.75 38
            L 109.75 69
            A 3 3 0 0 1 106.75 72
            L 3 72
            A 3 3 0 0 1 0 69
            L 0 38
            A 3 3 0 0 1 3 35
            L 9 35
            L 9 21
            L 3 21
            A 3 3 0 0 1 0 18
            L 0 3
            A 3 3 0 0 1 3 0
            Z"
            fill="#FFFFFF" stroke="#A0A0A0" stroke-width="1.5"
            stroke-linejoin="round" filter="url(#dropShadow)"/>
      <!-- Name Section -->
      <path d="M 13.0 20.0
            L 27.0 20.0
            A 1 1 0 0 1 28.0 21.0
            L 28.0 24.0
            L 26.5 24.0
            L 26.5 26.666666666666668
            L 28.0 26.666666666666668
            L 28.0 35.0
            A 1 1 0 0 1 27.0 36.0
            L 13.0 36.0
            A 1 1 0 0 1 12.0 35.0
            L 12.0 26.666666666666668
            L 13.5 26.666666666666668
            L 13.5 24.0
            L 12.0 24.0
            L 12.0 21.0
            A 1 1 0 0 1 13.0 20.0
            Z"
            fill="#87CEEB" stroke="#1565C0" stroke-width="1"/>
      <text x="20.0" y="32.0"
            font-family="'TGL 0-17_std', 'TGL 0-17', 'Times New Roman', Times, serif" font-size="10" font-weight="bold"
            fill="#000000" text-anchor="middle">B</text>
      <text x="30.0" y="32.0"
            font-family="'TGL 0-16_std', 'TGL 0-16', 'Times New Roman', Times, serif" font-size="12"
            fill="#000000">NetEv2NetEv</text>
      <polygon points="0,5.5 5,10.5 0,15.5" fill="#63B31F"/>
      <text x="6" y="14.7" font-family="'TGL 0-17_std', 'TGL 0-17', 'Times New Roman', Times, serif" font-size="12"
            fill="#000000">REQ</text>
      <polygon points="104.75,5.5 109.75,10.5 104.75,15.5" fill="#63B31F"/>
      <text x="103.75" y="14.7" font-family="'TGL 0-17_std', 'TGL 0-17', 'Times New Roman', Times, serif" font-size="12"
            fill="#000000" text-anchor="end">CNF</text>
      <polygon points="0,39.5 5,44.5 0,49.5" fill="#3366FF"/>
      <text x="6" y="48.7" font-family="'TGL 0-17_std', 'TGL 0-17', 'Times New Roman', Times, serif" font-size="12"
            fill="#000000">IN</text>
      <polygon points="0,56.5 5,61.5 0,66.5" fill="#3366FF"/>
      <text x="6" y="65.7" font-family="'TGL 0-17_std', 'TGL 0-17', 'Times New Roman', Times, serif" font-size="12"
            fill="#000000">s16Handle</text>
      <polygon points="104.75,39.5 109.75,44.5 104.75,49.5" fill="#3366FF"/>
      <text x="103.75" y="48.7" font-family="'TGL 0-17_std', 'TGL 0-17', 'Times New Roman', Times, serif" font-size="12"
            fill="#000000" text-anchor="end"></text>
      <text x="-3" y="65.7" font-family="'TGL 0-17_std', 'TGL 0-17', 'Times New Roman', Times, serif" font-size="12" fill="#000000" text-anchor="end">GLOBAL_A</text>

      <!-- Instance Name -->
      <text x="54.875" y="-5"
            font-family="'TGL 0-17_std', 'TGL 0-17', 'Times New Roman', Times, serif" font-size="12"
            fill="#000000" text-anchor="middle">NetEv2NetEv</text>
    </g>
    <g id="fb_INIT_ARR_0032_BYTE" transform="translate(825.0, 75.0)">
      <path d="M 3 0
            L 143.0625 0
            A 3 3 0 0 1 146.0625 3
            L 146.0625 18
            A 3 3 0 0 1 143.0625 21
            L 137.0625 21
            L 137.0625 35
            L 143.0625 35
            A 3 3 0 0 1 146.0625 38
            L 146.0625 52
            A 3 3 0 0 1 143.0625 55
            L 3 55
            A 3 3 0 0 1 0 52
            L 0 38
            A 3 3 0 0 1 3 35
            L 9 35
            L 9 21
            L 3 21
            A 3 3 0 0 1 0 18
            L 0 3
            A 3 3 0 0 1 3 0
            Z"
            fill="#FFFFFF" stroke="#A0A0A0" stroke-width="1.5"
            stroke-linejoin="round" filter="url(#dropShadow)"/>
      <!-- Name Section -->
      <path d="M 13.0 20.0
            L 27.0 20.0
            A 1 1 0 0 1 28.0 21.0
            L 28.0 24.0
            L 26.5 24.0
            L 26.5 26.666666666666668
            L 28.0 26.666666666666668
            L 28.0 35.0
            A 1 1 0 0 1 27.0 36.0
            L 13.0 36.0
            A 1 1 0 0 1 12.0 35.0
            L 12.0 26.666666666666668
            L 13.5 26.666666666666668
            L 13.5 24.0
            L 12.0 24.0
            L 12.0 21.0
            A 1 1 0 0 1 13.0 20.0
            Z"
            fill="#87CEEB" stroke="#1565C0" stroke-width="1"/>
      <text x="20.0" y="32.0"
            font-family="'TGL 0-17_std', 'TGL 0-17', 'Times New Roman', Times, serif" font-size="10" font-weight="bold"
            fill="#000000" text-anchor="middle">B</text>
      <text x="30.0" y="32.0"
            font-family="'TGL 0-16_std', 'TGL 0-16', 'Times New Roman', Times, serif" font-size="12"
            fill="#000000">PROVIDE_ARR_003…</text>
      <polygon points="141.0625,5.5 146.0625,10.5 141.0625,15.5" fill="#63B31F"/>
      <text x="140.0625" y="14.7" font-family="'TGL 0-17_std', 'TGL 0-17', 'Times New Roman', Times, serif" font-size="12"
            fill="#000000" text-anchor="end">INITO</text>
      <polygon points="0,39.5 5,44.5 0,49.5" fill="#3366FF"/>
      <text x="6" y="48.7" font-family="'TGL 0-17_std', 'TGL 0-17', 'Times New Roman', Times, serif" font-size="12"
            fill="#000000">D1</text>
      <polygon points="141.0625,39.5 146.0625,44.5 141.0625,49.5" fill="#3366FF"/>
      <text x="140.0625" y="48.7" font-family="'TGL 0-17_std', 'TGL 0-17', 'Times New Roman', Times, serif" font-size="12"
            fill="#000000" text-anchor="end">D1</text>
      <text x="-3" y="48.7" font-family="'TGL 0-17_std', 'TGL 0-17', 'Times New Roman', Times, serif" font-size="12" fill="#000000" text-anchor="end">[16#00, 16#00, 16#00, 16#…</text>

      <!-- Instance Name -->
      <text x="73.03125" y="-5"
            font-family="'TGL 0-17_std', 'TGL 0-17', 'Times New Roman', Times, serif" font-size="12"
            fill="#000000" text-anchor="middle">INIT_ARR_0032_BYTE</text>
    </g>
  </g>
</svg>