<?xml version="1.0" encoding="UTF-8"?>
<svg xmlns="http://www.w3.org/2000/svg"
     viewBox="53.0 -93.0 1126.0 588.0"
     width="1126" height="588">
  <style>
    @font-face {
      font-family: "TGL 0-17_std";
      src: local("TGL 0-17_std"), url("../../../_static/fonts/TGL-0-17_std.ttf") format("truetype");
      font-style: normal;
      font-weight: normal;
    }
    @font-face {
      font-family: "TGL 0-17";
      src: local("TGL 0-17"), local("TGL 0-17 alt"), url("../../../_static/fonts/TGL-0-17_std.ttf") format("truetype");
      font-style: normal;
      font-weight: normal;
    }
    @font-face {
      font-family: "TGL 0-16_std";
      src: local("TGL 0-16_std"), url("../../../_static/fonts/TGL-0-16_std.ttf") format("truetype");
      font-style: normal;
      font-weight: normal;
    }
    @font-face {
      font-family: "TGL 0-16";
      src: local("TGL 0-16"), url("../../../_static/fonts/TGL-0-16_std.ttf") format("truetype");
      font-style: normal;
      font-weight: normal;
    }
  </style>
  <defs>
    <filter id="dropShadow" x="-20%" y="-20%" width="140%" height="140%">
      <feGaussianBlur in="SourceAlpha" stdDeviation="3" result="blur"/>
      <feOffset in="blur" dx="1" dy="1" result="offsetBlur"/>
      <feFlood flood-color="#000000" flood-opacity="0.5" result="shadowColor"/>
      <feComposite in="shadowColor" in2="offsetBlur" operator="in" result="shadow"/>
      <feMerge>
        <feMergeNode in="shadow"/>
        <feMergeNode in="SourceGraphic"/>
      </feMerge>
    </filter>
  </defs>
  <rect x="53.0" y="-93.0" width="1126.0" height="588.0" fill="white"/>
  <rect x="60.0" y="-86.0" width="1112.0" height="574.0" fill="none" stroke="#A0A0A0" stroke-width="2"/>
  <rect x="60.0" y="-86.0" width="1112.0" height="25.0" fill="white" stroke="none"/>
  <line x1="60.0" y1="-61.5" x2="1172.0" y2="-61.5" stroke="#A0A0A0" stroke-width="1"/>
  <text x="65.0" y="-69.3" font-family="'TGL 0-17_std', 'TGL 0-17', 'Times New Roman', Times, serif" font-size="12" font-weight="bold" fill="#333333">DigitalInput_I1 auf DataPanel_1A; BLINKER</text>
  <g id="sidebars">
  </g>
  <g id="connections">
    <polyline points="827.5,85.5 917.5,85.5 922.5,80.5 922.5,29.5 917.5,24.5 350.5,24.5 345.5,29.5 345.5,110.5 350.5,115.5 404.5,115.5" fill="none" stroke="#63B31F" stroke-width="1.5" stroke-linejoin="round"/>
    <polyline points="503.5,200.5 579.9,200.5 581.5,202.1 581.5,202.9 583.1,204.5 689.5,204.5" fill="none" stroke="#845DAF" stroke-width="3" stroke-linejoin="round"/>
    <polyline points="503.5,200.5 579.9,200.5 581.5,202.1 581.5,202.9 583.1,204.5 689.5,204.5" fill="none" stroke="#DED4EA" stroke-width="1" stroke-linejoin="round"/>
  </g>
  <g id="interface_ports">
  </g>
  <g id="instances">
    <g id="fb_AX_BLINK" transform="translate(404.5, 105.0)">
      <path d="M 3 0
            L 96.0625 0
            A 3 3 0 0 1 99.0625 3
            L 99.0625 35
            A 3 3 0 0 1 96.0625 38
            L 90.0625 38
            L 90.0625 52
            L 96.0625 52
            A 3 3 0 0 1 99.0625 55
            L 99.0625 103
            A 3 3 0 0 1 96.0625 106
            L 3 106
            A 3 3 0 0 1 0 103
            L 0 55
            A 3 3 0 0 1 3 52
            L 9 52
            L 9 38
            L 3 38
            A 3 3 0 0 1 0 35
            L 0 3
            A 3 3 0 0 1 3 0
            Z"
            fill="#FFFFFF" stroke="#A0A0A0" stroke-width="1.5"
            stroke-linejoin="round" filter="url(#dropShadow)"/>
      <!-- Name Section -->
      <path d="M 15.6240234375 37.0
            L 29.6240234375 37.0
            A 1 1 0 0 1 30.6240234375 38.0
            L 30.6240234375 41.0
            L 29.1240234375 41.0
            L 29.1240234375 43.666666666666664
            L 30.6240234375 43.666666666666664
            L 30.6240234375 52.0
            A 1 1 0 0 1 29.6240234375 53.0
            L 15.6240234375 53.0
            A 1 1 0 0 1 14.6240234375 52.0
            L 14.6240234375 43.666666666666664
            L 16.1240234375 43.666666666666664
            L 16.1240234375 41.0
            L 14.6240234375 41.0
            L 14.6240234375 38.0
            A 1 1 0 0 1 15.6240234375 37.0
            Z"
            fill="#87CEEB" stroke="#1565C0" stroke-width="1"/>
      <text x="22.6240234375" y="49.0"
            font-family="'TGL 0-17_std', 'TGL 0-17', 'Times New Roman', Times, serif" font-size="10" font-weight="bold"
            fill="#000000" text-anchor="middle">C</text>
      <text x="32.6240234375" y="49.0"
            font-family="'TGL 0-16_std', 'TGL 0-16', 'Times New Roman', Times, serif" font-size="12"
            fill="#000000">AX_BLINK</text>
      <polygon points="0,5.5 5,10.5 0,15.5" fill="#63B31F"/>
      <text x="6" y="14.7" font-family="'TGL 0-17_std', 'TGL 0-17', 'Times New Roman', Times, serif" font-size="12"
            fill="#000000">START</text>
      <polygon points="0,22.5 5,27.5 0,32.5" fill="#63B31F"/>
      <text x="6" y="31.7" font-family="'TGL 0-17_std', 'TGL 0-17', 'Times New Roman', Times, serif" font-size="12"
            fill="#000000">STOP</text>
      <polygon points="0,56.5 5,61.5 0,66.5" fill="#3366FF"/>
      <text x="6" y="65.7" font-family="'TGL 0-17_std', 'TGL 0-17', 'Times New Roman', Times, serif" font-size="12"
            fill="#000000">TIMELOW</text>
      <polygon points="0,73.5 5,78.5 0,83.5" fill="#3366FF"/>
      <text x="6" y="82.7" font-family="'TGL 0-17_std', 'TGL 0-17', 'Times New Roman', Times, serif" font-size="12"
            fill="#000000">TIMEHIGH</text>
      <text x="-3" y="65.7" font-family="'TGL 0-17_std', 'TGL 0-17', 'Times New Roman', Times, serif" font-size="12" fill="#000000" text-anchor="end">T#1s</text>
      <text x="-3" y="82.7" font-family="'TGL 0-17_std', 'TGL 0-17', 'Times New Roman', Times, serif" font-size="12" fill="#000000" text-anchor="end">T#1s200ms</text>
      <path d="M 89.0625 90.5
            L 91.5625 90.5
            L 91.5625 92.16666666666667
            L 94.0625 92.16666666666667
            L 94.0625 90.5
            L 99.0625 90.5
            L 99.0625 100.5
            L 94.0625 100.5
            L 94.0625 98.83333333333333
            L 91.5625 98.83333333333333
            L 91.5625 100.5
            L 89.0625 100.5
            Z" fill="#845DAF"/>
      <text x="86.0625" y="99.7" font-family="'TGL 0-17_std', 'TGL 0-17', 'Times New Roman', Times, serif" font-size="12"
            fill="#000000" text-anchor="end">OUT</text>
      <!-- Instance Name -->
      <text x="49.53125" y="-5"
            font-family="'TGL 0-17_std', 'TGL 0-17', 'Times New Roman', Times, serif" font-size="12"
            fill="#000000" text-anchor="middle">AX_BLINK</text>
    </g>
    <g id="fb_DigitalOutput_1A" transform="translate(689.5, 75.0)">
      <path d="M 3 0
            L 135.08203125 0
            A 3 3 0 0 1 138.08203125 3
            L 138.08203125 35
            A 3 3 0 0 1 135.08203125 38
            L 129.08203125 38
            L 129.08203125 52
            L 135.08203125 52
            A 3 3 0 0 1 138.08203125 55
            L 138.08203125 137
            A 3 3 0 0 1 135.08203125 140
            L 3 140
            A 3 3 0 0 1 0 137
            L 0 55
            A 3 3 0 0 1 3 52
            L 9 52
            L 9 38
            L 3 38
            A 3 3 0 0 1 0 35
            L 0 3
            A 3 3 0 0 1 3 0
            Z"
            fill="#FFFFFF" stroke="#A0A0A0" stroke-width="1.5"
            stroke-linejoin="round" filter="url(#dropShadow)"/>
      <!-- Name Section -->
      <path d="M 13.0 37.0
            L 27.0 37.0
            A 1 1 0 0 1 28.0 38.0
            L 28.0 41.0
            L 26.5 41.0
            L 26.5 43.666666666666664
            L 28.0 43.666666666666664
            L 28.0 52.0
            A 1 1 0 0 1 27.0 53.0
            L 13.0 53.0
            A 1 1 0 0 1 12.0 52.0
            L 12.0 43.666666666666664
            L 13.5 43.666666666666664
            L 13.5 41.0
            L 12.0 41.0
            L 12.0 38.0
            A 1 1 0 0 1 13.0 37.0
            Z"
            fill="#87CEEB" stroke="#1565C0" stroke-width="1"/>
      <text x="20.0" y="49.0"
            font-family="'TGL 0-17_std', 'TGL 0-17', 'Times New Roman', Times, serif" font-size="10" font-weight="bold"
            fill="#000000" text-anchor="middle">C</text>
      <text x="30.0" y="49.0"
            font-family="'TGL 0-16_std', 'TGL 0-16', 'Times New Roman', Times, serif" font-size="12"
            fill="#000000">DataPanel_MI_QX…</text>
      <polygon points="0,5.5 5,10.5 0,15.5" fill="#63B31F"/>
      <text x="6" y="14.7" font-family="'TGL 0-17_std', 'TGL 0-17', 'Times New Roman', Times, serif" font-size="12"
            fill="#000000">INIT</text>
      <polygon points="133.08203125,5.5 138.08203125,10.5 133.08203125,15.5" fill="#63B31F"/>
      <text x="132.08203125" y="14.7" font-family="'TGL 0-17_std', 'TGL 0-17', 'Times New Roman', Times, serif" font-size="12"
            fill="#000000" text-anchor="end">INITO</text>
      <polygon points="133.08203125,22.5 138.08203125,27.5 133.08203125,32.5" fill="#63B31F"/>
      <text x="132.08203125" y="31.7" font-family="'TGL 0-17_std', 'TGL 0-17', 'Times New Roman', Times, serif" font-size="12"
            fill="#000000" text-anchor="end">CNF</text>
      <polygon points="0,56.5 5,61.5 0,66.5" fill="#A3B08F"/>
      <text x="6" y="65.7" font-family="'TGL 0-17_std', 'TGL 0-17', 'Times New Roman', Times, serif" font-size="12"
            fill="#000000">QI</text>
      <polygon points="0,73.5 5,78.5 0,83.5" fill="#BD8663"/>
      <text x="6" y="82.7" font-family="'TGL 0-17_std', 'TGL 0-17', 'Times New Roman', Times, serif" font-size="12"
            fill="#000000">PARAMS</text>
      <polygon points="0,90.5 5,95.5 0,100.5" fill="#18519E"/>
      <text x="6" y="99.7" font-family="'TGL 0-17_std', 'TGL 0-17', 'Times New Roman', Times, serif" font-size="12"
            fill="#000000">u8SAMember</text>
      <polygon points="0,107.5 5,112.5 0,117.5" fill="#3366FF"/>
      <text x="6" y="116.7" font-family="'TGL 0-17_std', 'TGL 0-17', 'Times New Roman', Times, serif" font-size="12"
            fill="#000000">Output</text>
      <polygon points="133.08203125,56.5 138.08203125,61.5 133.08203125,66.5" fill="#A3B08F"/>
      <text x="132.08203125" y="65.7" font-family="'TGL 0-17_std', 'TGL 0-17', 'Times New Roman', Times, serif" font-size="12"
            fill="#000000" text-anchor="end">QO</text>
      <polygon points="133.08203125,73.5 138.08203125,78.5 133.08203125,83.5" fill="#BD8663"/>
      <text x="132.08203125" y="82.7" font-family="'TGL 0-17_std', 'TGL 0-17', 'Times New Roman', Times, serif" font-size="12"
            fill="#000000" text-anchor="end">STATUS</text>
      <text x="-3" y="65.7" font-family="'TGL 0-17_std', 'TGL 0-17', 'Times New Roman', Times, serif" font-size="12" fill="#000000" text-anchor="end">TRUE</text>
      <text x="-3" y="99.7" font-family="'TGL 0-17_std', 'TGL 0-17', 'Times New Roman', Times, serif" font-size="12" fill="#000000" text-anchor="end">MI_00</text>
      <text x="-3" y="116.7" font-family="'TGL 0-17_std', 'TGL 0-17', 'Times New Roman', Times, serif" font-size="12" fill="#000000" text-anchor="end">DigitalOutput_1A</text>
      <path d="M 0 124.5
            L 5.0 124.5
            L 5.0 126.16666666666667
            L 7.5 126.16666666666667
            L 7.5 124.5
            L 10 124.5
            L 10 134.5
            L 7.5 134.5
            L 7.5 132.83333333333334
            L 5.0 132.83333333333334
            L 5.0 134.5
            L 0 134.5
            Z" fill="none" stroke="#845DAF" stroke-width="1"/>
      <text x="13" y="133.7" font-family="'TGL 0-17_std', 'TGL 0-17', 'Times New Roman', Times, serif" font-size="12"
            fill="#000000">OUT</text>
      <!-- Instance Name -->
      <text x="69.041015625" y="-5"
            font-family="'TGL 0-17_std', 'TGL 0-17', 'Times New Roman', Times, serif" font-size="12"
            fill="#000000" text-anchor="middle">DigitalOutput_1A</text>
    </g>
  </g>
</svg>