<?xml version="1.0" encoding="UTF-8"?>
<svg xmlns="http://www.w3.org/2000/svg"
     viewBox="53.0 -93.0 1126.0 1637.0"
     width="1126" height="1637">
  <style>
    @font-face {
      font-family: "TGL 0-17_std";
      src: local("TGL 0-17_std");
      font-style: normal;
      font-weight: normal;
    }
    @font-face {
      font-family: "TGL 0-17";
      src: local("TGL 0-17"), local("TGL 0-17 alt");
      font-style: normal;
      font-weight: normal;
    }
    @font-face {
      font-family: "TGL 0-16_std";
      src: local("TGL 0-16_std");
      font-style: normal;
      font-weight: normal;
    }
    @font-face {
      font-family: "TGL 0-16";
      src: local("TGL 0-16");
      font-style: normal;
      font-weight: normal;
    }
  </style>
  <defs>
    <filter id="dropShadow" x="-20%" y="-20%" width="140%" height="140%">
      <feGaussianBlur in="SourceAlpha" stdDeviation="3" result="blur"/>
      <feOffset in="blur" dx="1" dy="1" result="offsetBlur"/>
      <feFlood flood-color="#000000" flood-opacity="0.5" result="shadowColor"/>
      <feComposite in="shadowColor" in2="offsetBlur" operator="in" result="shadow"/>
      <feMerge>
        <feMergeNode in="shadow"/>
        <feMergeNode in="SourceGraphic"/>
      </feMerge>
    </filter>
  </defs>
  <rect x="53.0" y="-93.0" width="1126.0" height="1637.0" fill="white"/>
  <rect x="60.0" y="-86.0" width="1112.0" height="1623.0" fill="none" stroke="#A0A0A0" stroke-width="2"/>
  <rect x="60.0" y="-86.0" width="1112.0" height="25.0" fill="white" stroke="none"/>
  <line x1="60.0" y1="-61.5" x2="1172.0" y2="-61.5" stroke="#A0A0A0" stroke-width="1"/>
  <text x="65.0" y="-69.3" font-family="'TGL 0-17_std', 'TGL 0-17', 'Times New Roman', Times, serif" font-size="12" font-weight="bold" fill="#333333">Übung zu ISOBUS Name</text>
  <g id="sidebars">
  </g>
  <g id="connections">
    <polyline points="525.5,102.5 609.5,102.5 614.5,107.5 614.5,230.5 619.5,235.5 710.2,235.5" fill="none" stroke="#63B31F" stroke-width="1.5" stroke-linejoin="round"/>
    <polyline points="525.5,102.5 609.5,102.5 614.5,107.5 614.5,410.5 619.5,415.5 710.2,415.5" fill="none" stroke="#63B31F" stroke-width="1.5" stroke-linejoin="round"/>
    <polyline points="525.5,102.5 609.5,102.5 614.5,107.5 614.5,605.5 619.5,610.5 725.2,610.5" fill="none" stroke="#63B31F" stroke-width="1.5" stroke-linejoin="round"/>
    <polyline points="525.5,867.5 609.5,867.5 614.5,872.5 614.5,1370.5 619.5,1375.5 725.2,1375.5" fill="none" stroke="#63B31F" stroke-width="1.5" stroke-linejoin="round"/>
    <polyline points="525.5,867.5 609.5,867.5 614.5,872.5 614.5,1175.5 619.5,1180.5 710.2,1180.5" fill="none" stroke="#63B31F" stroke-width="1.5" stroke-linejoin="round"/>
    <polyline points="525.5,867.5 609.5,867.5 614.5,872.5 614.5,995.5 619.5,1000.5 710.2,1000.5" fill="none" stroke="#63B31F" stroke-width="1.5" stroke-linejoin="round"/>
    <polyline points="525.5,153.5 619.5,153.5 624.5,158.5 624.5,264.5 629.5,269.5 710.2,269.5" fill="none" stroke="#3366FF" stroke-width="3" stroke-linejoin="round"/>
    <polyline points="525.5,153.5 619.5,153.5 624.5,158.5 624.5,264.5 629.5,269.5 710.2,269.5" fill="none" stroke="#CCD8FF" stroke-width="1" stroke-linejoin="round"/>
    <polyline points="525.5,170.5 614.5,170.5 619.5,175.5 619.5,444.5 624.5,449.5 710.2,449.5" fill="none" stroke="#3366FF" stroke-width="3" stroke-linejoin="round"/>
    <polyline points="525.5,170.5 614.5,170.5 619.5,175.5 619.5,444.5 624.5,449.5 710.2,449.5" fill="none" stroke="#CCD8FF" stroke-width="1" stroke-linejoin="round"/>
    <polyline points="525.5,187.5 604.5,187.5 609.5,192.5 609.5,639.5 614.5,644.5 725.2,644.5" fill="none" stroke="#3366FF" stroke-width="3" stroke-linejoin="round"/>
    <polyline points="525.5,187.5 604.5,187.5 609.5,192.5 609.5,639.5 614.5,644.5 725.2,644.5" fill="none" stroke="#CCD8FF" stroke-width="1" stroke-linejoin="round"/>
    <polyline points="525.5,952.5 604.5,952.5 609.5,957.5 609.5,1404.5 614.5,1409.5 725.2,1409.5" fill="none" stroke="#3366FF" stroke-width="3" stroke-linejoin="round"/>
    <polyline points="525.5,952.5 604.5,952.5 609.5,957.5 609.5,1404.5 614.5,1409.5 725.2,1409.5" fill="none" stroke="#CCD8FF" stroke-width="1" stroke-linejoin="round"/>
    <polyline points="525.5,918.5 619.5,918.5 624.5,923.5 624.5,1029.5 629.5,1034.5 710.2,1034.5" fill="none" stroke="#3366FF" stroke-width="3" stroke-linejoin="round"/>
    <polyline points="525.5,918.5 619.5,918.5 624.5,923.5 624.5,1029.5 629.5,1034.5 710.2,1034.5" fill="none" stroke="#CCD8FF" stroke-width="1" stroke-linejoin="round"/>
    <polyline points="525.5,935.5 614.5,935.5 619.5,940.5 619.5,1209.5 624.5,1214.5 710.2,1214.5" fill="none" stroke="#3366FF" stroke-width="3" stroke-linejoin="round"/>
    <polyline points="525.5,935.5 614.5,935.5 619.5,940.5 619.5,1209.5 624.5,1214.5 710.2,1214.5" fill="none" stroke="#CCD8FF" stroke-width="1" stroke-linejoin="round"/>
  </g>
  <g id="interface_ports">
  </g>
  <g id="instances">
    <g id="fb_NmGetCfInfo" transform="translate(380.2, 75.0)">
      <path d="M 3 0
            L 142.3125 0
            A 3 3 0 0 1 145.3125 3
            L 145.3125 35
            A 3 3 0 0 1 142.3125 38
            L 136.3125 38
            L 136.3125 52
            L 142.3125 52
            A 3 3 0 0 1 145.3125 55
            L 145.3125 120
            A 3 3 0 0 1 142.3125 123
            L 3 123
            A 3 3 0 0 1 0 120
            L 0 55
            A 3 3 0 0 1 3 52
            L 9 52
            L 9 38
            L 3 38
            A 3 3 0 0 1 0 35
            L 0 3
            A 3 3 0 0 1 3 0
            Z"
            fill="#FFFFFF" stroke="#A0A0A0" stroke-width="1.5"
            stroke-linejoin="round" filter="url(#dropShadow)"/>
      <!-- Name Section -->
      <path d="M 33.25 37.0
            L 47.25 37.0
            A 1 1 0 0 1 48.25 38.0
            L 48.25 41.0
            L 46.75 41.0
            L 46.75 43.666666666666664
            L 48.25 43.666666666666664
            L 48.25 52.0
            A 1 1 0 0 1 47.25 53.0
            L 33.25 53.0
            A 1 1 0 0 1 32.25 52.0
            L 32.25 43.666666666666664
            L 33.75 43.666666666666664
            L 33.75 41.0
            L 32.25 41.0
            L 32.25 38.0
            A 1 1 0 0 1 33.25 37.0
            Z"
            fill="#87CEEB" stroke="#1565C0" stroke-width="1"/>
      <text x="40.25" y="49.0"
            font-family="'TGL 0-17_std', 'TGL 0-17', 'Times New Roman', Times, serif" font-size="10" font-weight="bold"
            fill="#000000" text-anchor="middle">Si</text>
      <text x="50.25" y="49.0"
            font-family="'TGL 0-16_std', 'TGL 0-16', 'Times New Roman', Times, serif" font-size="12"
            fill="#000000">NmGetCfInfo</text>
      <polygon points="0,5.5 5,10.5 0,15.5" fill="#63B31F"/>
      <text x="6" y="14.7" font-family="'TGL 0-17_std', 'TGL 0-17', 'Times New Roman', Times, serif" font-size="12"
            fill="#000000">INIT</text>
      <polygon points="0,22.5 5,27.5 0,32.5" fill="#63B31F"/>
      <text x="6" y="31.7" font-family="'TGL 0-17_std', 'TGL 0-17', 'Times New Roman', Times, serif" font-size="12"
            fill="#000000">RSP</text>
      <polygon points="140.3125,5.5 145.3125,10.5 140.3125,15.5" fill="#63B31F"/>
      <text x="139.3125" y="14.7" font-family="'TGL 0-17_std', 'TGL 0-17', 'Times New Roman', Times, serif" font-size="12"
            fill="#000000" text-anchor="end">INITO</text>
      <polygon points="140.3125,22.5 145.3125,27.5 140.3125,32.5" fill="#63B31F"/>
      <text x="139.3125" y="31.7" font-family="'TGL 0-17_std', 'TGL 0-17', 'Times New Roman', Times, serif" font-size="12"
            fill="#000000" text-anchor="end">IND</text>
      <polygon points="0,56.5 5,61.5 0,66.5" fill="#18519E"/>
      <text x="6" y="65.7" font-family="'TGL 0-17_std', 'TGL 0-17', 'Times New Roman', Times, serif" font-size="12"
            fill="#000000">u8CanIdx</text>
      <polygon points="0,73.5 5,78.5 0,83.5" fill="#18519E"/>
      <text x="6" y="82.7" font-family="'TGL 0-17_std', 'TGL 0-17', 'Times New Roman', Times, serif" font-size="12"
            fill="#000000">member</text>
      <polygon points="0,90.5 5,95.5 0,100.5" fill="#3366FF"/>
      <text x="6" y="99.7" font-family="'TGL 0-17_std', 'TGL 0-17', 'Times New Roman', Times, serif" font-size="12"
            fill="#000000">address</text>
      <polygon points="0,107.5 5,112.5 0,117.5" fill="#3366FF"/>
      <text x="6" y="116.7" font-family="'TGL 0-17_std', 'TGL 0-17', 'Times New Roman', Times, serif" font-size="12"
            fill="#000000">mask</text>
      <polygon points="140.3125,56.5 145.3125,61.5 140.3125,66.5" fill="#A3B08F"/>
      <text x="139.3125" y="65.7" font-family="'TGL 0-17_std', 'TGL 0-17', 'Times New Roman', Times, serif" font-size="12"
            fill="#000000" text-anchor="end">bwaitingForR…</text>
      <polygon points="140.3125,73.5 145.3125,78.5 140.3125,83.5" fill="#3366FF"/>
      <text x="139.3125" y="82.7" font-family="'TGL 0-17_std', 'TGL 0-17', 'Times New Roman', Times, serif" font-size="12"
            fill="#000000" text-anchor="end">sNetEv</text>
      <polygon points="140.3125,90.5 145.3125,95.5 140.3125,100.5" fill="#3366FF"/>
      <text x="139.3125" y="99.7" font-family="'TGL 0-17_std', 'TGL 0-17', 'Times New Roman', Times, serif" font-size="12"
            fill="#000000" text-anchor="end">sCfInfo</text>
      <polygon points="140.3125,107.5 145.3125,112.5 140.3125,117.5" fill="#3366FF"/>
      <text x="139.3125" y="116.7" font-family="'TGL 0-17_std', 'TGL 0-17', 'Times New Roman', Times, serif" font-size="12"
            fill="#000000" text-anchor="end">sNameField</text>
      <text x="-3" y="65.7" font-family="'TGL 0-17_std', 'TGL 0-17', 'Times New Roman', Times, serif" font-size="12" fill="#000000" text-anchor="end">NODE1</text>
      <text x="-3" y="82.7" font-family="'TGL 0-17_std', 'TGL 0-17', 'Times New Roman', Times, serif" font-size="12" fill="#000000" text-anchor="end">thisMember</text>
      <text x="-3" y="99.7" font-family="'TGL 0-17_std', 'TGL 0-17', 'Times New Roman', Times, serif" font-size="12" fill="#000000" text-anchor="end">ADD_ALL_PASS</text>
      <text x="-3" y="116.7" font-family="'TGL 0-17_std', 'TGL 0-17', 'Times New Roman', Times, serif" font-size="12" fill="#000000" text-anchor="end">FLT_ALL_PASS</text>

      <!-- Instance Name -->
      <text x="72.65625" y="-5"
            font-family="'TGL 0-17_std', 'TGL 0-17', 'Times New Roman', Times, serif" font-size="12"
            fill="#000000" text-anchor="middle">NmGetCfInfo</text>
    </g>
    <g id="fb_STRUCT_DEMUX" transform="translate(710.2, 225.0)">
      <path d="M 3 0
            L 123.6875 0
            A 3 3 0 0 1 126.6875 3
            L 126.6875 18
            A 3 3 0 0 1 123.6875 21
            L 117.6875 21
            L 117.6875 35
            L 123.6875 35
            A 3 3 0 0 1 126.6875 38
            L 126.6875 52
            A 3 3 0 0 1 123.6875 55
            L 3 55
            A 3 3 0 0 1 0 52
            L 0 38
            A 3 3 0 0 1 3 35
            L 9 35
            L 9 21
            L 3 21
            A 3 3 0 0 1 0 18
            L 0 3
            A 3 3 0 0 1 3 0
            Z"
            fill="#FFFFFF" stroke="#A0A0A0" stroke-width="1.5"
            stroke-linejoin="round" filter="url(#dropShadow)"/>
      <!-- Name Section -->
      <path d="M 13.0 20.0
            L 27.0 20.0
            A 1 1 0 0 1 28.0 21.0
            L 28.0 24.0
            L 26.5 24.0
            L 26.5 26.666666666666668
            L 28.0 26.666666666666668
            L 28.0 35.0
            A 1 1 0 0 1 27.0 36.0
            L 13.0 36.0
            A 1 1 0 0 1 12.0 35.0
            L 12.0 26.666666666666668
            L 13.5 26.666666666666668
            L 13.5 24.0
            L 12.0 24.0
            L 12.0 21.0
            A 1 1 0 0 1 13.0 20.0
            Z"
            fill="#87CEEB" stroke="#1565C0" stroke-width="1"/>
      <text x="20.0" y="32.0"
            font-family="'TGL 0-17_std', 'TGL 0-17', 'Times New Roman', Times, serif" font-size="10" font-weight="bold"
            fill="#000000" text-anchor="middle">B</text>
      <text x="30.0" y="32.0"
            font-family="'TGL 0-16_std', 'TGL 0-16', 'Times New Roman', Times, serif" font-size="12"
            fill="#000000">STRUCT_DEMUX</text>
      <polygon points="0,5.5 5,10.5 0,15.5" fill="#63B31F"/>
      <text x="6" y="14.7" font-family="'TGL 0-17_std', 'TGL 0-17', 'Times New Roman', Times, serif" font-size="12"
            fill="#000000">REQ</text>
      <polygon points="0,39.5 5,44.5 0,49.5" fill="#3366FF"/>
      <text x="6" y="48.7" font-family="'TGL 0-17_std', 'TGL 0-17', 'Times New Roman', Times, serif" font-size="12"
            fill="#000000">IN</text>


      <!-- Instance Name -->
      <text x="63.34375" y="-5"
            font-family="'TGL 0-17_std', 'TGL 0-17', 'Times New Roman', Times, serif" font-size="12"
            fill="#000000" text-anchor="middle">STRUCT_DEMUX</text>
    </g>
    <g id="fb_STRUCT_DEMUX_1" transform="translate(710.2, 405.0)">
      <path d="M 3 0
            L 123.6875 0
            A 3 3 0 0 1 126.6875 3
            L 126.6875 18
            A 3 3 0 0 1 123.6875 21
            L 117.6875 21
            L 117.6875 35
            L 123.6875 35
            A 3 3 0 0 1 126.6875 38
            L 126.6875 52
            A 3 3 0 0 1 123.6875 55
            L 3 55
            A 3 3 0 0 1 0 52
            L 0 38
            A 3 3 0 0 1 3 35
            L 9 35
            L 9 21
            L 3 21
            A 3 3 0 0 1 0 18
            L 0 3
            A 3 3 0 0 1 3 0
            Z"
            fill="#FFFFFF" stroke="#A0A0A0" stroke-width="1.5"
            stroke-linejoin="round" filter="url(#dropShadow)"/>
      <!-- Name Section -->
      <path d="M 13.0 20.0
            L 27.0 20.0
            A 1 1 0 0 1 28.0 21.0
            L 28.0 24.0
            L 26.5 24.0
            L 26.5 26.666666666666668
            L 28.0 26.666666666666668
            L 28.0 35.0
            A 1 1 0 0 1 27.0 36.0
            L 13.0 36.0
            A 1 1 0 0 1 12.0 35.0
            L 12.0 26.666666666666668
            L 13.5 26.666666666666668
            L 13.5 24.0
            L 12.0 24.0
            L 12.0 21.0
            A 1 1 0 0 1 13.0 20.0
            Z"
            fill="#87CEEB" stroke="#1565C0" stroke-width="1"/>
      <text x="20.0" y="32.0"
            font-family="'TGL 0-17_std', 'TGL 0-17', 'Times New Roman', Times, serif" font-size="10" font-weight="bold"
            fill="#000000" text-anchor="middle">B</text>
      <text x="30.0" y="32.0"
            font-family="'TGL 0-16_std', 'TGL 0-16', 'Times New Roman', Times, serif" font-size="12"
            fill="#000000">STRUCT_DEMUX</text>
      <polygon points="0,5.5 5,10.5 0,15.5" fill="#63B31F"/>
      <text x="6" y="14.7" font-family="'TGL 0-17_std', 'TGL 0-17', 'Times New Roman', Times, serif" font-size="12"
            fill="#000000">REQ</text>
      <polygon points="0,39.5 5,44.5 0,49.5" fill="#3366FF"/>
      <text x="6" y="48.7" font-family="'TGL 0-17_std', 'TGL 0-17', 'Times New Roman', Times, serif" font-size="12"
            fill="#000000">IN</text>


      <!-- Instance Name -->
      <text x="63.34375" y="-5"
            font-family="'TGL 0-17_std', 'TGL 0-17', 'Times New Roman', Times, serif" font-size="12"
            fill="#000000" text-anchor="middle">STRUCT_DEMUX_1</text>
    </g>
    <g id="fb_STRUCT_DEMUX_2" transform="translate(725.2, 600.0)">
      <path d="M 3 0
            L 123.6875 0
            A 3 3 0 0 1 126.6875 3
            L 126.6875 18
            A 3 3 0 0 1 123.6875 21
            L 117.6875 21
            L 117.6875 35
            L 123.6875 35
            A 3 3 0 0 1 126.6875 38
            L 126.6875 52
            A 3 3 0 0 1 123.6875 55
            L 3 55
            A 3 3 0 0 1 0 52
            L 0 38
            A 3 3 0 0 1 3 35
            L 9 35
            L 9 21
            L 3 21
            A 3 3 0 0 1 0 18
            L 0 3
            A 3 3 0 0 1 3 0
            Z"
            fill="#FFFFFF" stroke="#A0A0A0" stroke-width="1.5"
            stroke-linejoin="round" filter="url(#dropShadow)"/>
      <!-- Name Section -->
      <path d="M 13.0 20.0
            L 27.0 20.0
            A 1 1 0 0 1 28.0 21.0
            L 28.0 24.0
            L 26.5 24.0
            L 26.5 26.666666666666668
            L 28.0 26.666666666666668
            L 28.0 35.0
            A 1 1 0 0 1 27.0 36.0
            L 13.0 36.0
            A 1 1 0 0 1 12.0 35.0
            L 12.0 26.666666666666668
            L 13.5 26.666666666666668
            L 13.5 24.0
            L 12.0 24.0
            L 12.0 21.0
            A 1 1 0 0 1 13.0 20.0
            Z"
            fill="#87CEEB" stroke="#1565C0" stroke-width="1"/>
      <text x="20.0" y="32.0"
            font-family="'TGL 0-17_std', 'TGL 0-17', 'Times New Roman', Times, serif" font-size="10" font-weight="bold"
            fill="#000000" text-anchor="middle">B</text>
      <text x="30.0" y="32.0"
            font-family="'TGL 0-16_std', 'TGL 0-16', 'Times New Roman', Times, serif" font-size="12"
            fill="#000000">STRUCT_DEMUX</text>
      <polygon points="0,5.5 5,10.5 0,15.5" fill="#63B31F"/>
      <text x="6" y="14.7" font-family="'TGL 0-17_std', 'TGL 0-17', 'Times New Roman', Times, serif" font-size="12"
            fill="#000000">REQ</text>
      <polygon points="0,39.5 5,44.5 0,49.5" fill="#3366FF"/>
      <text x="6" y="48.7" font-family="'TGL 0-17_std', 'TGL 0-17', 'Times New Roman', Times, serif" font-size="12"
            fill="#000000">IN</text>


      <!-- Instance Name -->
      <text x="63.34375" y="-5"
            font-family="'TGL 0-17_std', 'TGL 0-17', 'Times New Roman', Times, serif" font-size="12"
            fill="#000000" text-anchor="middle">STRUCT_DEMUX_2</text>
    </g>
    <g id="fb_STRUCT_DEMUX_3" transform="translate(725.2, 1365.0)">
      <path d="M 3 0
            L 123.6875 0
            A 3 3 0 0 1 126.6875 3
            L 126.6875 18
            A 3 3 0 0 1 123.6875 21
            L 117.6875 21
            L 117.6875 35
            L 123.6875 35
            A 3 3 0 0 1 126.6875 38
            L 126.6875 52
            A 3 3 0 0 1 123.6875 55
            L 3 55
            A 3 3 0 0 1 0 52
            L 0 38
            A 3 3 0 0 1 3 35
            L 9 35
            L 9 21
            L 3 21
            A 3 3 0 0 1 0 18
            L 0 3
            A 3 3 0 0 1 3 0
            Z"
            fill="#FFFFFF" stroke="#A0A0A0" stroke-width="1.5"
            stroke-linejoin="round" filter="url(#dropShadow)"/>
      <!-- Name Section -->
      <path d="M 13.0 20.0
            L 27.0 20.0
            A 1 1 0 0 1 28.0 21.0
            L 28.0 24.0
            L 26.5 24.0
            L 26.5 26.666666666666668
            L 28.0 26.666666666666668
            L 28.0 35.0
            A 1 1 0 0 1 27.0 36.0
            L 13.0 36.0
            A 1 1 0 0 1 12.0 35.0
            L 12.0 26.666666666666668
            L 13.5 26.666666666666668
            L 13.5 24.0
            L 12.0 24.0
            L 12.0 21.0
            A 1 1 0 0 1 13.0 20.0
            Z"
            fill="#87CEEB" stroke="#1565C0" stroke-width="1"/>
      <text x="20.0" y="32.0"
            font-family="'TGL 0-17_std', 'TGL 0-17', 'Times New Roman', Times, serif" font-size="10" font-weight="bold"
            fill="#000000" text-anchor="middle">B</text>
      <text x="30.0" y="32.0"
            font-family="'TGL 0-16_std', 'TGL 0-16', 'Times New Roman', Times, serif" font-size="12"
            fill="#000000">STRUCT_DEMUX</text>
      <polygon points="0,5.5 5,10.5 0,15.5" fill="#63B31F"/>
      <text x="6" y="14.7" font-family="'TGL 0-17_std', 'TGL 0-17', 'Times New Roman', Times, serif" font-size="12"
            fill="#000000">REQ</text>
      <polygon points="0,39.5 5,44.5 0,49.5" fill="#3366FF"/>
      <text x="6" y="48.7" font-family="'TGL 0-17_std', 'TGL 0-17', 'Times New Roman', Times, serif" font-size="12"
            fill="#000000">IN</text>


      <!-- Instance Name -->
      <text x="63.34375" y="-5"
            font-family="'TGL 0-17_std', 'TGL 0-17', 'Times New Roman', Times, serif" font-size="12"
            fill="#000000" text-anchor="middle">STRUCT_DEMUX_3</text>
    </g>
    <g id="fb_NmGetCfInfo_1" transform="translate(380.2, 840.0)">
      <path d="M 3 0
            L 142.3125 0
            A 3 3 0 0 1 145.3125 3
            L 145.3125 35
            A 3 3 0 0 1 142.3125 38
            L 136.3125 38
            L 136.3125 52
            L 142.3125 52
            A 3 3 0 0 1 145.3125 55
            L 145.3125 120
            A 3 3 0 0 1 142.3125 123
            L 3 123
            A 3 3 0 0 1 0 120
            L 0 55
            A 3 3 0 0 1 3 52
            L 9 52
            L 9 38
            L 3 38
            A 3 3 0 0 1 0 35
            L 0 3
            A 3 3 0 0 1 3 0
            Z"
            fill="#FFFFFF" stroke="#A0A0A0" stroke-width="1.5"
            stroke-linejoin="round" filter="url(#dropShadow)"/>
      <!-- Name Section -->
      <path d="M 33.25 37.0
            L 47.25 37.0
            A 1 1 0 0 1 48.25 38.0
            L 48.25 41.0
            L 46.75 41.0
            L 46.75 43.666666666666664
            L 48.25 43.666666666666664
            L 48.25 52.0
            A 1 1 0 0 1 47.25 53.0
            L 33.25 53.0
            A 1 1 0 0 1 32.25 52.0
            L 32.25 43.666666666666664
            L 33.75 43.666666666666664
            L 33.75 41.0
            L 32.25 41.0
            L 32.25 38.0
            A 1 1 0 0 1 33.25 37.0
            Z"
            fill="#87CEEB" stroke="#1565C0" stroke-width="1"/>
      <text x="40.25" y="49.0"
            font-family="'TGL 0-17_std', 'TGL 0-17', 'Times New Roman', Times, serif" font-size="10" font-weight="bold"
            fill="#000000" text-anchor="middle">Si</text>
      <text x="50.25" y="49.0"
            font-family="'TGL 0-16_std', 'TGL 0-16', 'Times New Roman', Times, serif" font-size="12"
            fill="#000000">NmGetCfInfo</text>
      <polygon points="0,5.5 5,10.5 0,15.5" fill="#63B31F"/>
      <text x="6" y="14.7" font-family="'TGL 0-17_std', 'TGL 0-17', 'Times New Roman', Times, serif" font-size="12"
            fill="#000000">INIT</text>
      <polygon points="0,22.5 5,27.5 0,32.5" fill="#63B31F"/>
      <text x="6" y="31.7" font-family="'TGL 0-17_std', 'TGL 0-17', 'Times New Roman', Times, serif" font-size="12"
            fill="#000000">RSP</text>
      <polygon points="140.3125,5.5 145.3125,10.5 140.3125,15.5" fill="#63B31F"/>
      <text x="139.3125" y="14.7" font-family="'TGL 0-17_std', 'TGL 0-17', 'Times New Roman', Times, serif" font-size="12"
            fill="#000000" text-anchor="end">INITO</text>
      <polygon points="140.3125,22.5 145.3125,27.5 140.3125,32.5" fill="#63B31F"/>
      <text x="139.3125" y="31.7" font-family="'TGL 0-17_std', 'TGL 0-17', 'Times New Roman', Times, serif" font-size="12"
            fill="#000000" text-anchor="end">IND</text>
      <polygon points="0,56.5 5,61.5 0,66.5" fill="#18519E"/>
      <text x="6" y="65.7" font-family="'TGL 0-17_std', 'TGL 0-17', 'Times New Roman', Times, serif" font-size="12"
            fill="#000000">u8CanIdx</text>
      <polygon points="0,73.5 5,78.5 0,83.5" fill="#18519E"/>
      <text x="6" y="82.7" font-family="'TGL 0-17_std', 'TGL 0-17', 'Times New Roman', Times, serif" font-size="12"
            fill="#000000">member</text>
      <polygon points="0,90.5 5,95.5 0,100.5" fill="#3366FF"/>
      <text x="6" y="99.7" font-family="'TGL 0-17_std', 'TGL 0-17', 'Times New Roman', Times, serif" font-size="12"
            fill="#000000">address</text>
      <polygon points="0,107.5 5,112.5 0,117.5" fill="#3366FF"/>
      <text x="6" y="116.7" font-family="'TGL 0-17_std', 'TGL 0-17', 'Times New Roman', Times, serif" font-size="12"
            fill="#000000">mask</text>
      <polygon points="140.3125,56.5 145.3125,61.5 140.3125,66.5" fill="#A3B08F"/>
      <text x="139.3125" y="65.7" font-family="'TGL 0-17_std', 'TGL 0-17', 'Times New Roman', Times, serif" font-size="12"
            fill="#000000" text-anchor="end">bwaitingForR…</text>
      <polygon points="140.3125,73.5 145.3125,78.5 140.3125,83.5" fill="#3366FF"/>
      <text x="139.3125" y="82.7" font-family="'TGL 0-17_std', 'TGL 0-17', 'Times New Roman', Times, serif" font-size="12"
            fill="#000000" text-anchor="end">sNetEv</text>
      <polygon points="140.3125,90.5 145.3125,95.5 140.3125,100.5" fill="#3366FF"/>
      <text x="139.3125" y="99.7" font-family="'TGL 0-17_std', 'TGL 0-17', 'Times New Roman', Times, serif" font-size="12"
            fill="#000000" text-anchor="end">sCfInfo</text>
      <polygon points="140.3125,107.5 145.3125,112.5 140.3125,117.5" fill="#3366FF"/>
      <text x="139.3125" y="116.7" font-family="'TGL 0-17_std', 'TGL 0-17', 'Times New Roman', Times, serif" font-size="12"
            fill="#000000" text-anchor="end">sNameField</text>
      <text x="-3" y="65.7" font-family="'TGL 0-17_std', 'TGL 0-17', 'Times New Roman', Times, serif" font-size="12" fill="#000000" text-anchor="end">NODE1</text>
      <text x="-3" y="82.7" font-family="'TGL 0-17_std', 'TGL 0-17', 'Times New Roman', Times, serif" font-size="12" fill="#000000" text-anchor="end">network</text>
      <text x="-3" y="99.7" font-family="'TGL 0-17_std', 'TGL 0-17', 'Times New Roman', Times, serif" font-size="12" fill="#000000" text-anchor="end">VT_ADD</text>
      <text x="-3" y="116.7" font-family="'TGL 0-17_std', 'TGL 0-17', 'Times New Roman', Times, serif" font-size="12" fill="#000000" text-anchor="end">VT_FLT</text>

      <!-- Instance Name -->
      <text x="72.65625" y="-5"
            font-family="'TGL 0-17_std', 'TGL 0-17', 'Times New Roman', Times, serif" font-size="12"
            fill="#000000" text-anchor="middle">NmGetCfInfo_1</text>
    </g>
    <g id="fb_STRUCT_DEMUX_4" transform="translate(710.2, 1170.0)">
      <path d="M 3 0
            L 123.6875 0
            A 3 3 0 0 1 126.6875 3
            L 126.6875 18
            A 3 3 0 0 1 123.6875 21
            L 117.6875 21
            L 117.6875 35
            L 123.6875 35
            A 3 3 0 0 1 126.6875 38
            L 126.6875 52
            A 3 3 0 0 1 123.6875 55
            L 3 55
            A 3 3 0 0 1 0 52
            L 0 38
            A 3 3 0 0 1 3 35
            L 9 35
            L 9 21
            L 3 21
            A 3 3 0 0 1 0 18
            L 0 3
            A 3 3 0 0 1 3 0
            Z"
            fill="#FFFFFF" stroke="#A0A0A0" stroke-width="1.5"
            stroke-linejoin="round" filter="url(#dropShadow)"/>
      <!-- Name Section -->
      <path d="M 13.0 20.0
            L 27.0 20.0
            A 1 1 0 0 1 28.0 21.0
            L 28.0 24.0
            L 26.5 24.0
            L 26.5 26.666666666666668
            L 28.0 26.666666666666668
            L 28.0 35.0
            A 1 1 0 0 1 27.0 36.0
            L 13.0 36.0
            A 1 1 0 0 1 12.0 35.0
            L 12.0 26.666666666666668
            L 13.5 26.666666666666668
            L 13.5 24.0
            L 12.0 24.0
            L 12.0 21.0
            A 1 1 0 0 1 13.0 20.0
            Z"
            fill="#87CEEB" stroke="#1565C0" stroke-width="1"/>
      <text x="20.0" y="32.0"
            font-family="'TGL 0-17_std', 'TGL 0-17', 'Times New Roman', Times, serif" font-size="10" font-weight="bold"
            fill="#000000" text-anchor="middle">B</text>
      <text x="30.0" y="32.0"
            font-family="'TGL 0-16_std', 'TGL 0-16', 'Times New Roman', Times, serif" font-size="12"
            fill="#000000">STRUCT_DEMUX</text>
      <polygon points="0,5.5 5,10.5 0,15.5" fill="#63B31F"/>
      <text x="6" y="14.7" font-family="'TGL 0-17_std', 'TGL 0-17', 'Times New Roman', Times, serif" font-size="12"
            fill="#000000">REQ</text>
      <polygon points="0,39.5 5,44.5 0,49.5" fill="#3366FF"/>
      <text x="6" y="48.7" font-family="'TGL 0-17_std', 'TGL 0-17', 'Times New Roman', Times, serif" font-size="12"
            fill="#000000">IN</text>


      <!-- Instance Name -->
      <text x="63.34375" y="-5"
            font-family="'TGL 0-17_std', 'TGL 0-17', 'Times New Roman', Times, serif" font-size="12"
            fill="#000000" text-anchor="middle">STRUCT_DEMUX_4</text>
    </g>
    <g id="fb_STRUCT_DEMUX_5" transform="translate(710.2, 990.0)">
      <path d="M 3 0
            L 123.6875 0
            A 3 3 0 0 1 126.6875 3
            L 126.6875 18
            A 3 3 0 0 1 123.6875 21
            L 117.6875 21
            L 117.6875 35
            L 123.6875 35
            A 3 3 0 0 1 126.6875 38
            L 126.6875 52
            A 3 3 0 0 1 123.6875 55
            L 3 55
            A 3 3 0 0 1 0 52
            L 0 38
            A 3 3 0 0 1 3 35
            L 9 35
            L 9 21
            L 3 21
            A 3 3 0 0 1 0 18
            L 0 3
            A 3 3 0 0 1 3 0
            Z"
            fill="#FFFFFF" stroke="#A0A0A0" stroke-width="1.5"
            stroke-linejoin="round" filter="url(#dropShadow)"/>
      <!-- Name Section -->
      <path d="M 13.0 20.0
            L 27.0 20.0
            A 1 1 0 0 1 28.0 21.0
            L 28.0 24.0
            L 26.5 24.0
            L 26.5 26.666666666666668
            L 28.0 26.666666666666668
            L 28.0 35.0
            A 1 1 0 0 1 27.0 36.0
            L 13.0 36.0
            A 1 1 0 0 1 12.0 35.0
            L 12.0 26.666666666666668
            L 13.5 26.666666666666668
            L 13.5 24.0
            L 12.0 24.0
            L 12.0 21.0
            A 1 1 0 0 1 13.0 20.0
            Z"
            fill="#87CEEB" stroke="#1565C0" stroke-width="1"/>
      <text x="20.0" y="32.0"
            font-family="'TGL 0-17_std', 'TGL 0-17', 'Times New Roman', Times, serif" font-size="10" font-weight="bold"
            fill="#000000" text-anchor="middle">B</text>
      <text x="30.0" y="32.0"
            font-family="'TGL 0-16_std', 'TGL 0-16', 'Times New Roman', Times, serif" font-size="12"
            fill="#000000">STRUCT_DEMUX</text>
      <polygon points="0,5.5 5,10.5 0,15.5" fill="#63B31F"/>
      <text x="6" y="14.7" font-family="'TGL 0-17_std', 'TGL 0-17', 'Times New Roman', Times, serif" font-size="12"
            fill="#000000">REQ</text>
      <polygon points="0,39.5 5,44.5 0,49.5" fill="#3366FF"/>
      <text x="6" y="48.7" font-family="'TGL 0-17_std', 'TGL 0-17', 'Times New Roman', Times, serif" font-size="12"
            fill="#000000">IN</text>


      <!-- Instance Name -->
      <text x="63.34375" y="-5"
            font-family="'TGL 0-17_std', 'TGL 0-17', 'Times New Roman', Times, serif" font-size="12"
            fill="#000000" text-anchor="middle">STRUCT_DEMUX_5</text>
    </g>
  </g>
</svg>