<?xml version="1.0" encoding="UTF-8"?>
<svg xmlns="http://www.w3.org/2000/svg"
     viewBox="53.0 -93.0 1579.9 1015.0"
     width="1580" height="1015">
  <style>
    @font-face {
      font-family: "TGL 0-17_std";
      src: local("TGL 0-17_std"), url("../../../_static/fonts/TGL-0-17_std.ttf") format("truetype");
      font-style: normal;
      font-weight: normal;
    }
    @font-face {
      font-family: "TGL 0-17";
      src: local("TGL 0-17"), local("TGL 0-17 alt"), url("../../../_static/fonts/TGL-0-17_std.ttf") format("truetype");
      font-style: normal;
      font-weight: normal;
    }
    @font-face {
      font-family: "TGL 0-16_std";
      src: local("TGL 0-16_std"), url("../../../_static/fonts/TGL-0-16_std.ttf") format("truetype");
      font-style: normal;
      font-weight: normal;
    }
    @font-face {
      font-family: "TGL 0-16";
      src: local("TGL 0-16"), url("../../../_static/fonts/TGL-0-16_std.ttf") format("truetype");
      font-style: normal;
      font-weight: normal;
    }
  </style>
  <defs>
    <filter id="dropShadow" x="-20%" y="-20%" width="140%" height="140%">
      <feGaussianBlur in="SourceAlpha" stdDeviation="3" result="blur"/>
      <feOffset in="blur" dx="1" dy="1" result="offsetBlur"/>
      <feFlood flood-color="#000000" flood-opacity="0.5" result="shadowColor"/>
      <feComposite in="shadowColor" in2="offsetBlur" operator="in" result="shadow"/>
      <feMerge>
        <feMergeNode in="shadow"/>
        <feMergeNode in="SourceGraphic"/>
      </feMerge>
    </filter>
  </defs>
  <rect x="53.0" y="-93.0" width="1579.9" height="1015.0" fill="white"/>
  <rect x="60.0" y="-86.0" width="1565.9" height="1001.0" fill="none" stroke="#A0A0A0" stroke-width="2"/>
  <rect x="60.0" y="-86.0" width="1565.9" height="25.0" fill="white" stroke="none"/>
  <line x1="60.0" y1="-61.5" x2="1625.9" y2="-61.5" stroke="#A0A0A0" stroke-width="1"/>
  <text x="65.0" y="-69.3" font-family="'TGL 0-17_std', 'TGL 0-17', 'Times New Roman', Times, serif" font-size="12" font-weight="bold" fill="#333333">Spiegelabfolge 5-Kanal mit Schrittkette ENDLOS (Adapter Version)</text>
  <g id="sidebars">
  </g>
  <g id="connections">
    <polyline points="180.1,119.5 295.1,119.5 300.1,124.5 300.1,350.5 305.1,355.5 418.0,355.5" fill="none" stroke="#63B31F" stroke-width="1.5" stroke-linejoin="round"/>
    <polyline points="180.1,599.5 295.1,599.5 300.1,594.5 300.1,462.5 305.1,457.5 418.0,457.5" fill="none" stroke="#63B31F" stroke-width="1.5" stroke-linejoin="round"/>
    <polyline points="554.4,576.5 600.4,576.5 605.4,571.5 605.4,210.5 610.4,205.5 1124.0,205.5" fill="none" stroke="#845DAF" stroke-width="3" stroke-linejoin="round"/>
    <polyline points="554.4,576.5 600.4,576.5 605.4,571.5 605.4,210.5 610.4,205.5 1124.0,205.5" fill="none" stroke="#DED4EA" stroke-width="1" stroke-linejoin="round"/>
    <polyline points="1235.2,205.5 1364.2,205.5 1369.2,210.5 1369.2,225.5 1374.2,230.5 1460.0,230.5" fill="none" stroke="#845DAF" stroke-width="3" stroke-linejoin="round"/>
    <polyline points="1235.2,205.5 1364.2,205.5 1369.2,210.5 1369.2,225.5 1374.2,230.5 1460.0,230.5" fill="none" stroke="#DED4EA" stroke-width="1" stroke-linejoin="round"/>
    <polyline points="554.4,593.5 646.9,593.5 651.9,588.5 651.9,192.5 656.9,187.5 860.0,187.5" fill="none" stroke="#845DAF" stroke-width="3" stroke-linejoin="round"/>
    <polyline points="554.4,593.5 646.9,593.5 651.9,588.5 651.9,192.5 656.9,187.5 860.0,187.5" fill="none" stroke="#DED4EA" stroke-width="1" stroke-linejoin="round"/>
    <polyline points="554.4,610.5 654.4,610.5 659.4,605.5 659.4,342.5 664.4,337.5 860.0,337.5" fill="none" stroke="#845DAF" stroke-width="3" stroke-linejoin="round"/>
    <polyline points="554.4,610.5 654.4,610.5 659.4,605.5 659.4,342.5 664.4,337.5 860.0,337.5" fill="none" stroke="#DED4EA" stroke-width="1" stroke-linejoin="round"/>
    <polyline points="554.4,627.5 661.9,627.5 666.9,622.5 666.9,492.5 671.9,487.5 860.0,487.5" fill="none" stroke="#845DAF" stroke-width="3" stroke-linejoin="round"/>
    <polyline points="554.4,627.5 661.9,627.5 666.9,622.5 666.9,492.5 671.9,487.5 860.0,487.5" fill="none" stroke="#DED4EA" stroke-width="1" stroke-linejoin="round"/>
    <polyline points="554.4,644.5 671.6,644.5 674.4,641.7 674.4,640.3 677.2,637.5 860.0,637.5" fill="none" stroke="#845DAF" stroke-width="3" stroke-linejoin="round"/>
    <polyline points="554.4,644.5 671.6,644.5 674.4,641.7 674.4,640.3 677.2,637.5 860.0,637.5" fill="none" stroke="#DED4EA" stroke-width="1" stroke-linejoin="round"/>
    <polyline points="554.4,661.5 676.9,661.5 681.9,666.5 681.9,782.5 686.9,787.5 860.0,787.5" fill="none" stroke="#845DAF" stroke-width="3" stroke-linejoin="round"/>
    <polyline points="554.4,661.5 676.9,661.5 681.9,666.5 681.9,782.5 686.9,787.5 860.0,787.5" fill="none" stroke="#DED4EA" stroke-width="1" stroke-linejoin="round"/>
    <polyline points="554.4,678.5 561.6,678.5 566.4,683.3 566.4,707.5 561.4,712.5 411.0,712.5 406.0,717.5 406.0,743.7 410.8,748.5 418.0,748.5" fill="none" stroke="#845DAF" stroke-width="3" stroke-linejoin="round"/>
    <polyline points="554.4,678.5 561.6,678.5 566.4,683.3 566.4,707.5 561.4,712.5 411.0,712.5 406.0,717.5 406.0,743.7 410.8,748.5 418.0,748.5" fill="none" stroke="#DED4EA" stroke-width="1" stroke-linejoin="round"/>
  </g>
  <g id="interface_ports">
  </g>
  <g id="instances">
    <g id="fb_DigitalOutput_Q1" transform="translate(860.0, 75.0)">
      <path d="M 3 0
            L 108.58203125 0
            A 3 3 0 0 1 111.58203125 3
            L 111.58203125 35
            A 3 3 0 0 1 108.58203125 38
            L 102.58203125 38
            L 102.58203125 52
            L 108.58203125 52
            A 3 3 0 0 1 111.58203125 55
            L 111.58203125 120
            A 3 3 0 0 1 108.58203125 123
            L 3 123
            A 3 3 0 0 1 0 120
            L 0 55
            A 3 3 0 0 1 3 52
            L 9 52
            L 9 38
            L 3 38
            A 3 3 0 0 1 0 35
            L 0 3
            A 3 3 0 0 1 3 0
            Z"
            fill="#FFFFFF" stroke="#A0A0A0" stroke-width="1.5"
            stroke-linejoin="round" filter="url(#dropShadow)"/>
      <!-- Name Section -->
      <path d="M 14.3779296875 37.0
            L 28.3779296875 37.0
            A 1 1 0 0 1 29.3779296875 38.0
            L 29.3779296875 41.0
            L 27.8779296875 41.0
            L 27.8779296875 43.666666666666664
            L 29.3779296875 43.666666666666664
            L 29.3779296875 52.0
            A 1 1 0 0 1 28.3779296875 53.0
            L 14.3779296875 53.0
            A 1 1 0 0 1 13.3779296875 52.0
            L 13.3779296875 43.666666666666664
            L 14.8779296875 43.666666666666664
            L 14.8779296875 41.0
            L 13.3779296875 41.0
            L 13.3779296875 38.0
            A 1 1 0 0 1 14.3779296875 37.0
            Z"
            fill="#87CEEB" stroke="#1565C0" stroke-width="1"/>
      <text x="21.3779296875" y="49.0"
            font-family="'TGL 0-17_std', 'TGL 0-17', 'Times New Roman', Times, serif" font-size="10" font-weight="bold"
            fill="#000000" text-anchor="middle">C</text>
      <text x="31.3779296875" y="49.0"
            font-family="'TGL 0-16_std', 'TGL 0-16', 'Times New Roman', Times, serif" font-size="12"
            fill="#000000">logiBUS_QXA</text>
      <polygon points="0,5.5 5,10.5 0,15.5" fill="#63B31F"/>
      <text x="6" y="14.7" font-family="'TGL 0-17_std', 'TGL 0-17', 'Times New Roman', Times, serif" font-size="12"
            fill="#000000">INIT</text>
      <polygon points="106.58203125,5.5 111.58203125,10.5 106.58203125,15.5" fill="#63B31F"/>
      <text x="105.58203125" y="14.7" font-family="'TGL 0-17_std', 'TGL 0-17', 'Times New Roman', Times, serif" font-size="12"
            fill="#000000" text-anchor="end">INITO</text>
      <polygon points="106.58203125,22.5 111.58203125,27.5 106.58203125,32.5" fill="#63B31F"/>
      <text x="105.58203125" y="31.7" font-family="'TGL 0-17_std', 'TGL 0-17', 'Times New Roman', Times, serif" font-size="12"
            fill="#000000" text-anchor="end">CNF</text>
      <polygon points="0,56.5 5,61.5 0,66.5" fill="#A3B08F"/>
      <text x="6" y="65.7" font-family="'TGL 0-17_std', 'TGL 0-17', 'Times New Roman', Times, serif" font-size="12"
            fill="#000000">QI</text>
      <polygon points="0,73.5 5,78.5 0,83.5" fill="#BD8663"/>
      <text x="6" y="82.7" font-family="'TGL 0-17_std', 'TGL 0-17', 'Times New Roman', Times, serif" font-size="12"
            fill="#000000">PARAMS</text>
      <polygon points="0,90.5 5,95.5 0,100.5" fill="#3366FF"/>
      <text x="6" y="99.7" font-family="'TGL 0-17_std', 'TGL 0-17', 'Times New Roman', Times, serif" font-size="12"
            fill="#000000">Output</text>
      <polygon points="106.58203125,56.5 111.58203125,61.5 106.58203125,66.5" fill="#A3B08F"/>
      <text x="105.58203125" y="65.7" font-family="'TGL 0-17_std', 'TGL 0-17', 'Times New Roman', Times, serif" font-size="12"
            fill="#000000" text-anchor="end">QO</text>
      <polygon points="106.58203125,73.5 111.58203125,78.5 106.58203125,83.5" fill="#BD8663"/>
      <text x="105.58203125" y="82.7" font-family="'TGL 0-17_std', 'TGL 0-17', 'Times New Roman', Times, serif" font-size="12"
            fill="#000000" text-anchor="end">STATUS</text>
      <text x="-3" y="65.7" font-family="'TGL 0-17_std', 'TGL 0-17', 'Times New Roman', Times, serif" font-size="12" fill="#000000" text-anchor="end">TRUE</text>
      <text x="-3" y="99.7" font-family="'TGL 0-17_std', 'TGL 0-17', 'Times New Roman', Times, serif" font-size="12" fill="#000000" text-anchor="end">Output_Q1</text>
      <path d="M 0 107.5
            L 5.0 107.5
            L 5.0 109.16666666666667
            L 7.5 109.16666666666667
            L 7.5 107.5
            L 10 107.5
            L 10 117.5
            L 7.5 117.5
            L 7.5 115.83333333333333
            L 5.0 115.83333333333333
            L 5.0 117.5
            L 0 117.5
            Z" fill="none" stroke="#845DAF" stroke-width="1"/>
      <text x="13" y="116.7" font-family="'TGL 0-17_std', 'TGL 0-17', 'Times New Roman', Times, serif" font-size="12"
            fill="#000000">OUT</text>
      <!-- Instance Name -->
      <text x="55.791015625" y="-5"
            font-family="'TGL 0-17_std', 'TGL 0-17', 'Times New Roman', Times, serif" font-size="12"
            fill="#000000" text-anchor="middle">DigitalOutput_Q1</text>
    </g>
    <g id="fb_DigitalOutput_Q2" transform="translate(860.0, 225.0)">
      <path d="M 3 0
            L 108.58203125 0
            A 3 3 0 0 1 111.58203125 3
            L 111.58203125 35
            A 3 3 0 0 1 108.58203125 38
            L 102.58203125 38
            L 102.58203125 52
            L 108.58203125 52
            A 3 3 0 0 1 111.58203125 55
            L 111.58203125 120
            A 3 3 0 0 1 108.58203125 123
            L 3 123
            A 3 3 0 0 1 0 120
            L 0 55
            A 3 3 0 0 1 3 52
            L 9 52
            L 9 38
            L 3 38
            A 3 3 0 0 1 0 35
            L 0 3
            A 3 3 0 0 1 3 0
            Z"
            fill="#FFFFFF" stroke="#A0A0A0" stroke-width="1.5"
            stroke-linejoin="round" filter="url(#dropShadow)"/>
      <!-- Name Section -->
      <path d="M 14.3779296875 37.0
            L 28.3779296875 37.0
            A 1 1 0 0 1 29.3779296875 38.0
            L 29.3779296875 41.0
            L 27.8779296875 41.0
            L 27.8779296875 43.666666666666664
            L 29.3779296875 43.666666666666664
            L 29.3779296875 52.0
            A 1 1 0 0 1 28.3779296875 53.0
            L 14.3779296875 53.0
            A 1 1 0 0 1 13.3779296875 52.0
            L 13.3779296875 43.666666666666664
            L 14.8779296875 43.666666666666664
            L 14.8779296875 41.0
            L 13.3779296875 41.0
            L 13.3779296875 38.0
            A 1 1 0 0 1 14.3779296875 37.0
            Z"
            fill="#87CEEB" stroke="#1565C0" stroke-width="1"/>
      <text x="21.3779296875" y="49.0"
            font-family="'TGL 0-17_std', 'TGL 0-17', 'Times New Roman', Times, serif" font-size="10" font-weight="bold"
            fill="#000000" text-anchor="middle">C</text>
      <text x="31.3779296875" y="49.0"
            font-family="'TGL 0-16_std', 'TGL 0-16', 'Times New Roman', Times, serif" font-size="12"
            fill="#000000">logiBUS_QXA</text>
      <polygon points="0,5.5 5,10.5 0,15.5" fill="#63B31F"/>
      <text x="6" y="14.7" font-family="'TGL 0-17_std', 'TGL 0-17', 'Times New Roman', Times, serif" font-size="12"
            fill="#000000">INIT</text>
      <polygon points="106.58203125,5.5 111.58203125,10.5 106.58203125,15.5" fill="#63B31F"/>
      <text x="105.58203125" y="14.7" font-family="'TGL 0-17_std', 'TGL 0-17', 'Times New Roman', Times, serif" font-size="12"
            fill="#000000" text-anchor="end">INITO</text>
      <polygon points="106.58203125,22.5 111.58203125,27.5 106.58203125,32.5" fill="#63B31F"/>
      <text x="105.58203125" y="31.7" font-family="'TGL 0-17_std', 'TGL 0-17', 'Times New Roman', Times, serif" font-size="12"
            fill="#000000" text-anchor="end">CNF</text>
      <polygon points="0,56.5 5,61.5 0,66.5" fill="#A3B08F"/>
      <text x="6" y="65.7" font-family="'TGL 0-17_std', 'TGL 0-17', 'Times New Roman', Times, serif" font-size="12"
            fill="#000000">QI</text>
      <polygon points="0,73.5 5,78.5 0,83.5" fill="#BD8663"/>
      <text x="6" y="82.7" font-family="'TGL 0-17_std', 'TGL 0-17', 'Times New Roman', Times, serif" font-size="12"
            fill="#000000">PARAMS</text>
      <polygon points="0,90.5 5,95.5 0,100.5" fill="#3366FF"/>
      <text x="6" y="99.7" font-family="'TGL 0-17_std', 'TGL 0-17', 'Times New Roman', Times, serif" font-size="12"
            fill="#000000">Output</text>
      <polygon points="106.58203125,56.5 111.58203125,61.5 106.58203125,66.5" fill="#A3B08F"/>
      <text x="105.58203125" y="65.7" font-family="'TGL 0-17_std', 'TGL 0-17', 'Times New Roman', Times, serif" font-size="12"
            fill="#000000" text-anchor="end">QO</text>
      <polygon points="106.58203125,73.5 111.58203125,78.5 106.58203125,83.5" fill="#BD8663"/>
      <text x="105.58203125" y="82.7" font-family="'TGL 0-17_std', 'TGL 0-17', 'Times New Roman', Times, serif" font-size="12"
            fill="#000000" text-anchor="end">STATUS</text>
      <text x="-3" y="65.7" font-family="'TGL 0-17_std', 'TGL 0-17', 'Times New Roman', Times, serif" font-size="12" fill="#000000" text-anchor="end">TRUE</text>
      <text x="-3" y="99.7" font-family="'TGL 0-17_std', 'TGL 0-17', 'Times New Roman', Times, serif" font-size="12" fill="#000000" text-anchor="end">Output_Q2</text>
      <path d="M 0 107.5
            L 5.0 107.5
            L 5.0 109.16666666666667
            L 7.5 109.16666666666667
            L 7.5 107.5
            L 10 107.5
            L 10 117.5
            L 7.5 117.5
            L 7.5 115.83333333333333
            L 5.0 115.83333333333333
            L 5.0 117.5
            L 0 117.5
            Z" fill="none" stroke="#845DAF" stroke-width="1"/>
      <text x="13" y="116.7" font-family="'TGL 0-17_std', 'TGL 0-17', 'Times New Roman', Times, serif" font-size="12"
            fill="#000000">OUT</text>
      <!-- Instance Name -->
      <text x="55.791015625" y="-5"
            font-family="'TGL 0-17_std', 'TGL 0-17', 'Times New Roman', Times, serif" font-size="12"
            fill="#000000" text-anchor="middle">DigitalOutput_Q2</text>
    </g>
    <g id="fb_DigitalOutput_Q3" transform="translate(860.0, 375.0)">
      <path d="M 3 0
            L 108.58203125 0
            A 3 3 0 0 1 111.58203125 3
            L 111.58203125 35
            A 3 3 0 0 1 108.58203125 38
            L 102.58203125 38
            L 102.58203125 52
            L 108.58203125 52
            A 3 3 0 0 1 111.58203125 55
            L 111.58203125 120
            A 3 3 0 0 1 108.58203125 123
            L 3 123
            A 3 3 0 0 1 0 120
            L 0 55
            A 3 3 0 0 1 3 52
            L 9 52
            L 9 38
            L 3 38
            A 3 3 0 0 1 0 35
            L 0 3
            A 3 3 0 0 1 3 0
            Z"
            fill="#FFFFFF" stroke="#A0A0A0" stroke-width="1.5"
            stroke-linejoin="round" filter="url(#dropShadow)"/>
      <!-- Name Section -->
      <path d="M 14.3779296875 37.0
            L 28.3779296875 37.0
            A 1 1 0 0 1 29.3779296875 38.0
            L 29.3779296875 41.0
            L 27.8779296875 41.0
            L 27.8779296875 43.666666666666664
            L 29.3779296875 43.666666666666664
            L 29.3779296875 52.0
            A 1 1 0 0 1 28.3779296875 53.0
            L 14.3779296875 53.0
            A 1 1 0 0 1 13.3779296875 52.0
            L 13.3779296875 43.666666666666664
            L 14.8779296875 43.666666666666664
            L 14.8779296875 41.0
            L 13.3779296875 41.0
            L 13.3779296875 38.0
            A 1 1 0 0 1 14.3779296875 37.0
            Z"
            fill="#87CEEB" stroke="#1565C0" stroke-width="1"/>
      <text x="21.3779296875" y="49.0"
            font-family="'TGL 0-17_std', 'TGL 0-17', 'Times New Roman', Times, serif" font-size="10" font-weight="bold"
            fill="#000000" text-anchor="middle">C</text>
      <text x="31.3779296875" y="49.0"
            font-family="'TGL 0-16_std', 'TGL 0-16', 'Times New Roman', Times, serif" font-size="12"
            fill="#000000">logiBUS_QXA</text>
      <polygon points="0,5.5 5,10.5 0,15.5" fill="#63B31F"/>
      <text x="6" y="14.7" font-family="'TGL 0-17_std', 'TGL 0-17', 'Times New Roman', Times, serif" font-size="12"
            fill="#000000">INIT</text>
      <polygon points="106.58203125,5.5 111.58203125,10.5 106.58203125,15.5" fill="#63B31F"/>
      <text x="105.58203125" y="14.7" font-family="'TGL 0-17_std', 'TGL 0-17', 'Times New Roman', Times, serif" font-size="12"
            fill="#000000" text-anchor="end">INITO</text>
      <polygon points="106.58203125,22.5 111.58203125,27.5 106.58203125,32.5" fill="#63B31F"/>
      <text x="105.58203125" y="31.7" font-family="'TGL 0-17_std', 'TGL 0-17', 'Times New Roman', Times, serif" font-size="12"
            fill="#000000" text-anchor="end">CNF</text>
      <polygon points="0,56.5 5,61.5 0,66.5" fill="#A3B08F"/>
      <text x="6" y="65.7" font-family="'TGL 0-17_std', 'TGL 0-17', 'Times New Roman', Times, serif" font-size="12"
            fill="#000000">QI</text>
      <polygon points="0,73.5 5,78.5 0,83.5" fill="#BD8663"/>
      <text x="6" y="82.7" font-family="'TGL 0-17_std', 'TGL 0-17', 'Times New Roman', Times, serif" font-size="12"
            fill="#000000">PARAMS</text>
      <polygon points="0,90.5 5,95.5 0,100.5" fill="#3366FF"/>
      <text x="6" y="99.7" font-family="'TGL 0-17_std', 'TGL 0-17', 'Times New Roman', Times, serif" font-size="12"
            fill="#000000">Output</text>
      <polygon points="106.58203125,56.5 111.58203125,61.5 106.58203125,66.5" fill="#A3B08F"/>
      <text x="105.58203125" y="65.7" font-family="'TGL 0-17_std', 'TGL 0-17', 'Times New Roman', Times, serif" font-size="12"
            fill="#000000" text-anchor="end">QO</text>
      <polygon points="106.58203125,73.5 111.58203125,78.5 106.58203125,83.5" fill="#BD8663"/>
      <text x="105.58203125" y="82.7" font-family="'TGL 0-17_std', 'TGL 0-17', 'Times New Roman', Times, serif" font-size="12"
            fill="#000000" text-anchor="end">STATUS</text>
      <text x="-3" y="65.7" font-family="'TGL 0-17_std', 'TGL 0-17', 'Times New Roman', Times, serif" font-size="12" fill="#000000" text-anchor="end">TRUE</text>
      <text x="-3" y="99.7" font-family="'TGL 0-17_std', 'TGL 0-17', 'Times New Roman', Times, serif" font-size="12" fill="#000000" text-anchor="end">Output_Q3</text>
      <path d="M 0 107.5
            L 5.0 107.5
            L 5.0 109.16666666666667
            L 7.5 109.16666666666667
            L 7.5 107.5
            L 10 107.5
            L 10 117.5
            L 7.5 117.5
            L 7.5 115.83333333333333
            L 5.0 115.83333333333333
            L 5.0 117.5
            L 0 117.5
            Z" fill="none" stroke="#845DAF" stroke-width="1"/>
      <text x="13" y="116.7" font-family="'TGL 0-17_std', 'TGL 0-17', 'Times New Roman', Times, serif" font-size="12"
            fill="#000000">OUT</text>
      <!-- Instance Name -->
      <text x="55.791015625" y="-5"
            font-family="'TGL 0-17_std', 'TGL 0-17', 'Times New Roman', Times, serif" font-size="12"
            fill="#000000" text-anchor="middle">DigitalOutput_Q3</text>
    </g>
    <g id="fb_DigitalOutput_Q4" transform="translate(860.0, 525.0)">
      <path d="M 3 0
            L 108.58203125 0
            A 3 3 0 0 1 111.58203125 3
            L 111.58203125 35
            A 3 3 0 0 1 108.58203125 38
            L 102.58203125 38
            L 102.58203125 52
            L 108.58203125 52
            A 3 3 0 0 1 111.58203125 55
            L 111.58203125 120
            A 3 3 0 0 1 108.58203125 123
            L 3 123
            A 3 3 0 0 1 0 120
            L 0 55
            A 3 3 0 0 1 3 52
            L 9 52
            L 9 38
            L 3 38
            A 3 3 0 0 1 0 35
            L 0 3
            A 3 3 0 0 1 3 0
            Z"
            fill="#FFFFFF" stroke="#A0A0A0" stroke-width="1.5"
            stroke-linejoin="round" filter="url(#dropShadow)"/>
      <!-- Name Section -->
      <path d="M 14.3779296875 37.0
            L 28.3779296875 37.0
            A 1 1 0 0 1 29.3779296875 38.0
            L 29.3779296875 41.0
            L 27.8779296875 41.0
            L 27.8779296875 43.666666666666664
            L 29.3779296875 43.666666666666664
            L 29.3779296875 52.0
            A 1 1 0 0 1 28.3779296875 53.0
            L 14.3779296875 53.0
            A 1 1 0 0 1 13.3779296875 52.0
            L 13.3779296875 43.666666666666664
            L 14.8779296875 43.666666666666664
            L 14.8779296875 41.0
            L 13.3779296875 41.0
            L 13.3779296875 38.0
            A 1 1 0 0 1 14.3779296875 37.0
            Z"
            fill="#87CEEB" stroke="#1565C0" stroke-width="1"/>
      <text x="21.3779296875" y="49.0"
            font-family="'TGL 0-17_std', 'TGL 0-17', 'Times New Roman', Times, serif" font-size="10" font-weight="bold"
            fill="#000000" text-anchor="middle">C</text>
      <text x="31.3779296875" y="49.0"
            font-family="'TGL 0-16_std', 'TGL 0-16', 'Times New Roman', Times, serif" font-size="12"
            fill="#000000">logiBUS_QXA</text>
      <polygon points="0,5.5 5,10.5 0,15.5" fill="#63B31F"/>
      <text x="6" y="14.7" font-family="'TGL 0-17_std', 'TGL 0-17', 'Times New Roman', Times, serif" font-size="12"
            fill="#000000">INIT</text>
      <polygon points="106.58203125,5.5 111.58203125,10.5 106.58203125,15.5" fill="#63B31F"/>
      <text x="105.58203125" y="14.7" font-family="'TGL 0-17_std', 'TGL 0-17', 'Times New Roman', Times, serif" font-size="12"
            fill="#000000" text-anchor="end">INITO</text>
      <polygon points="106.58203125,22.5 111.58203125,27.5 106.58203125,32.5" fill="#63B31F"/>
      <text x="105.58203125" y="31.7" font-family="'TGL 0-17_std', 'TGL 0-17', 'Times New Roman', Times, serif" font-size="12"
            fill="#000000" text-anchor="end">CNF</text>
      <polygon points="0,56.5 5,61.5 0,66.5" fill="#A3B08F"/>
      <text x="6" y="65.7" font-family="'TGL 0-17_std', 'TGL 0-17', 'Times New Roman', Times, serif" font-size="12"
            fill="#000000">QI</text>
      <polygon points="0,73.5 5,78.5 0,83.5" fill="#BD8663"/>
      <text x="6" y="82.7" font-family="'TGL 0-17_std', 'TGL 0-17', 'Times New Roman', Times, serif" font-size="12"
            fill="#000000">PARAMS</text>
      <polygon points="0,90.5 5,95.5 0,100.5" fill="#3366FF"/>
      <text x="6" y="99.7" font-family="'TGL 0-17_std', 'TGL 0-17', 'Times New Roman', Times, serif" font-size="12"
            fill="#000000">Output</text>
      <polygon points="106.58203125,56.5 111.58203125,61.5 106.58203125,66.5" fill="#A3B08F"/>
      <text x="105.58203125" y="65.7" font-family="'TGL 0-17_std', 'TGL 0-17', 'Times New Roman', Times, serif" font-size="12"
            fill="#000000" text-anchor="end">QO</text>
      <polygon points="106.58203125,73.5 111.58203125,78.5 106.58203125,83.5" fill="#BD8663"/>
      <text x="105.58203125" y="82.7" font-family="'TGL 0-17_std', 'TGL 0-17', 'Times New Roman', Times, serif" font-size="12"
            fill="#000000" text-anchor="end">STATUS</text>
      <text x="-3" y="65.7" font-family="'TGL 0-17_std', 'TGL 0-17', 'Times New Roman', Times, serif" font-size="12" fill="#000000" text-anchor="end">TRUE</text>
      <text x="-3" y="99.7" font-family="'TGL 0-17_std', 'TGL 0-17', 'Times New Roman', Times, serif" font-size="12" fill="#000000" text-anchor="end">Output_Q4</text>
      <path d="M 0 107.5
            L 5.0 107.5
            L 5.0 109.16666666666667
            L 7.5 109.16666666666667
            L 7.5 107.5
            L 10 107.5
            L 10 117.5
            L 7.5 117.5
            L 7.5 115.83333333333333
            L 5.0 115.83333333333333
            L 5.0 117.5
            L 0 117.5
            Z" fill="none" stroke="#845DAF" stroke-width="1"/>
      <text x="13" y="116.7" font-family="'TGL 0-17_std', 'TGL 0-17', 'Times New Roman', Times, serif" font-size="12"
            fill="#000000">OUT</text>
      <!-- Instance Name -->
      <text x="55.791015625" y="-5"
            font-family="'TGL 0-17_std', 'TGL 0-17', 'Times New Roman', Times, serif" font-size="12"
            fill="#000000" text-anchor="middle">DigitalOutput_Q4</text>
    </g>
    <g id="fb_DigitalOutput_Q5" transform="translate(860.0, 675.0)">
      <path d="M 3 0
            L 108.58203125 0
            A 3 3 0 0 1 111.58203125 3
            L 111.58203125 35
            A 3 3 0 0 1 108.58203125 38
            L 102.58203125 38
            L 102.58203125 52
            L 108.58203125 52
            A 3 3 0 0 1 111.58203125 55
            L 111.58203125 120
            A 3 3 0 0 1 108.58203125 123
            L 3 123
            A 3 3 0 0 1 0 120
            L 0 55
            A 3 3 0 0 1 3 52
            L 9 52
            L 9 38
            L 3 38
            A 3 3 0 0 1 0 35
            L 0 3
            A 3 3 0 0 1 3 0
            Z"
            fill="#FFFFFF" stroke="#A0A0A0" stroke-width="1.5"
            stroke-linejoin="round" filter="url(#dropShadow)"/>
      <!-- Name Section -->
      <path d="M 14.3779296875 37.0
            L 28.3779296875 37.0
            A 1 1 0 0 1 29.3779296875 38.0
            L 29.3779296875 41.0
            L 27.8779296875 41.0
            L 27.8779296875 43.666666666666664
            L 29.3779296875 43.666666666666664
            L 29.3779296875 52.0
            A 1 1 0 0 1 28.3779296875 53.0
            L 14.3779296875 53.0
            A 1 1 0 0 1 13.3779296875 52.0
            L 13.3779296875 43.666666666666664
            L 14.8779296875 43.666666666666664
            L 14.8779296875 41.0
            L 13.3779296875 41.0
            L 13.3779296875 38.0
            A 1 1 0 0 1 14.3779296875 37.0
            Z"
            fill="#87CEEB" stroke="#1565C0" stroke-width="1"/>
      <text x="21.3779296875" y="49.0"
            font-family="'TGL 0-17_std', 'TGL 0-17', 'Times New Roman', Times, serif" font-size="10" font-weight="bold"
            fill="#000000" text-anchor="middle">C</text>
      <text x="31.3779296875" y="49.0"
            font-family="'TGL 0-16_std', 'TGL 0-16', 'Times New Roman', Times, serif" font-size="12"
            fill="#000000">logiBUS_QXA</text>
      <polygon points="0,5.5 5,10.5 0,15.5" fill="#63B31F"/>
      <text x="6" y="14.7" font-family="'TGL 0-17_std', 'TGL 0-17', 'Times New Roman', Times, serif" font-size="12"
            fill="#000000">INIT</text>
      <polygon points="106.58203125,5.5 111.58203125,10.5 106.58203125,15.5" fill="#63B31F"/>
      <text x="105.58203125" y="14.7" font-family="'TGL 0-17_std', 'TGL 0-17', 'Times New Roman', Times, serif" font-size="12"
            fill="#000000" text-anchor="end">INITO</text>
      <polygon points="106.58203125,22.5 111.58203125,27.5 106.58203125,32.5" fill="#63B31F"/>
      <text x="105.58203125" y="31.7" font-family="'TGL 0-17_std', 'TGL 0-17', 'Times New Roman', Times, serif" font-size="12"
            fill="#000000" text-anchor="end">CNF</text>
      <polygon points="0,56.5 5,61.5 0,66.5" fill="#A3B08F"/>
      <text x="6" y="65.7" font-family="'TGL 0-17_std', 'TGL 0-17', 'Times New Roman', Times, serif" font-size="12"
            fill="#000000">QI</text>
      <polygon points="0,73.5 5,78.5 0,83.5" fill="#BD8663"/>
      <text x="6" y="82.7" font-family="'TGL 0-17_std', 'TGL 0-17', 'Times New Roman', Times, serif" font-size="12"
            fill="#000000">PARAMS</text>
      <polygon points="0,90.5 5,95.5 0,100.5" fill="#3366FF"/>
      <text x="6" y="99.7" font-family="'TGL 0-17_std', 'TGL 0-17', 'Times New Roman', Times, serif" font-size="12"
            fill="#000000">Output</text>
      <polygon points="106.58203125,56.5 111.58203125,61.5 106.58203125,66.5" fill="#A3B08F"/>
      <text x="105.58203125" y="65.7" font-family="'TGL 0-17_std', 'TGL 0-17', 'Times New Roman', Times, serif" font-size="12"
            fill="#000000" text-anchor="end">QO</text>
      <polygon points="106.58203125,73.5 111.58203125,78.5 106.58203125,83.5" fill="#BD8663"/>
      <text x="105.58203125" y="82.7" font-family="'TGL 0-17_std', 'TGL 0-17', 'Times New Roman', Times, serif" font-size="12"
            fill="#000000" text-anchor="end">STATUS</text>
      <text x="-3" y="65.7" font-family="'TGL 0-17_std', 'TGL 0-17', 'Times New Roman', Times, serif" font-size="12" fill="#000000" text-anchor="end">TRUE</text>
      <text x="-3" y="99.7" font-family="'TGL 0-17_std', 'TGL 0-17', 'Times New Roman', Times, serif" font-size="12" fill="#000000" text-anchor="end">Output_Q5</text>
      <path d="M 0 107.5
            L 5.0 107.5
            L 5.0 109.16666666666667
            L 7.5 109.16666666666667
            L 7.5 107.5
            L 10 107.5
            L 10 117.5
            L 7.5 117.5
            L 7.5 115.83333333333333
            L 5.0 115.83333333333333
            L 5.0 117.5
            L 0 117.5
            Z" fill="none" stroke="#845DAF" stroke-width="1"/>
      <text x="13" y="116.7" font-family="'TGL 0-17_std', 'TGL 0-17', 'Times New Roman', Times, serif" font-size="12"
            fill="#000000">OUT</text>
      <!-- Instance Name -->
      <text x="55.791015625" y="-5"
            font-family="'TGL 0-17_std', 'TGL 0-17', 'Times New Roman', Times, serif" font-size="12"
            fill="#000000" text-anchor="middle">DigitalOutput_Q5</text>
    </g>
    <g id="fb_DigitalInput_CLK_I1" transform="translate(60.0, 75.0)">
      <path d="M 3 0
            L 117.130859375 0
            A 3 3 0 0 1 120.130859375 3
            L 120.130859375 52
            A 3 3 0 0 1 117.130859375 55
            L 111.130859375 55
            L 111.130859375 69
            L 117.130859375 69
            A 3 3 0 0 1 120.130859375 72
            L 120.130859375 137
            A 3 3 0 0 1 117.130859375 140
            L 3 140
            A 3 3 0 0 1 0 137
            L 0 72
            A 3 3 0 0 1 3 69
            L 9 69
            L 9 55
            L 3 55
            A 3 3 0 0 1 0 52
            L 0 3
            A 3 3 0 0 1 3 0
            Z"
            fill="#FFFFFF" stroke="#A0A0A0" stroke-width="1.5"
            stroke-linejoin="round" filter="url(#dropShadow)"/>
      <!-- Name Section -->
      <path d="M 24.4443359375 54.0
            L 38.4443359375 54.0
            A 1 1 0 0 1 39.4443359375 55.0
            L 39.4443359375 58.0
            L 37.9443359375 58.0
            L 37.9443359375 60.666666666666664
            L 39.4443359375 60.666666666666664
            L 39.4443359375 69.0
            A 1 1 0 0 1 38.4443359375 70.0
            L 24.4443359375 70.0
            A 1 1 0 0 1 23.4443359375 69.0
            L 23.4443359375 60.666666666666664
            L 24.9443359375 60.666666666666664
            L 24.9443359375 58.0
            L 23.4443359375 58.0
            L 23.4443359375 55.0
            A 1 1 0 0 1 24.4443359375 54.0
            Z"
            fill="#87CEEB" stroke="#1565C0" stroke-width="1"/>
      <text x="31.4443359375" y="66.0"
            font-family="'TGL 0-17_std', 'TGL 0-17', 'Times New Roman', Times, serif" font-size="10" font-weight="bold"
            fill="#000000" text-anchor="middle">Si</text>
      <text x="41.4443359375" y="66.0"
            font-family="'TGL 0-16_std', 'TGL 0-16', 'Times New Roman', Times, serif" font-size="12"
            fill="#000000">logiBUS_IE</text>
      <polygon points="0,5.5 5,10.5 0,15.5" fill="#63B31F"/>
      <text x="6" y="14.7" font-family="'TGL 0-17_std', 'TGL 0-17', 'Times New Roman', Times, serif" font-size="12"
            fill="#000000">INIT</text>
      <polygon points="0,22.5 5,27.5 0,32.5" fill="#63B31F"/>
      <text x="6" y="31.7" font-family="'TGL 0-17_std', 'TGL 0-17', 'Times New Roman', Times, serif" font-size="12"
            fill="#000000">REQ</text>
      <polygon points="115.130859375,5.5 120.130859375,10.5 115.130859375,15.5" fill="#63B31F"/>
      <text x="114.130859375" y="14.7" font-family="'TGL 0-17_std', 'TGL 0-17', 'Times New Roman', Times, serif" font-size="12"
            fill="#000000" text-anchor="end">INITO</text>
      <polygon points="115.130859375,22.5 120.130859375,27.5 115.130859375,32.5" fill="#63B31F"/>
      <text x="114.130859375" y="31.7" font-family="'TGL 0-17_std', 'TGL 0-17', 'Times New Roman', Times, serif" font-size="12"
            fill="#000000" text-anchor="end">CNF</text>
      <polygon points="115.130859375,39.5 120.130859375,44.5 115.130859375,49.5" fill="#63B31F"/>
      <text x="114.130859375" y="48.7" font-family="'TGL 0-17_std', 'TGL 0-17', 'Times New Roman', Times, serif" font-size="12"
            fill="#000000" text-anchor="end">IND</text>
      <polygon points="0,73.5 5,78.5 0,83.5" fill="#A3B08F"/>
      <text x="6" y="82.7" font-family="'TGL 0-17_std', 'TGL 0-17', 'Times New Roman', Times, serif" font-size="12"
            fill="#000000">QI</text>
      <polygon points="0,90.5 5,95.5 0,100.5" fill="#BD8663"/>
      <text x="6" y="99.7" font-family="'TGL 0-17_std', 'TGL 0-17', 'Times New Roman', Times, serif" font-size="12"
            fill="#000000">PARAMS</text>
      <polygon points="0,107.5 5,112.5 0,117.5" fill="#3366FF"/>
      <text x="6" y="116.7" font-family="'TGL 0-17_std', 'TGL 0-17', 'Times New Roman', Times, serif" font-size="12"
            fill="#000000">Input</text>
      <polygon points="0,124.5 5,129.5 0,134.5" fill="#3366FF"/>
      <text x="6" y="133.7" font-family="'TGL 0-17_std', 'TGL 0-17', 'Times New Roman', Times, serif" font-size="12"
            fill="#000000">InputEvent</text>
      <polygon points="115.130859375,73.5 120.130859375,78.5 115.130859375,83.5" fill="#A3B08F"/>
      <text x="114.130859375" y="82.7" font-family="'TGL 0-17_std', 'TGL 0-17', 'Times New Roman', Times, serif" font-size="12"
            fill="#000000" text-anchor="end">QO</text>
      <polygon points="115.130859375,90.5 120.130859375,95.5 115.130859375,100.5" fill="#BD8663"/>
      <text x="114.130859375" y="99.7" font-family="'TGL 0-17_std', 'TGL 0-17', 'Times New Roman', Times, serif" font-size="12"
            fill="#000000" text-anchor="end">STATUS</text>
      <text x="-3" y="82.7" font-family="'TGL 0-17_std', 'TGL 0-17', 'Times New Roman', Times, serif" font-size="12" fill="#000000" text-anchor="end">TRUE</text>
      <text x="-3" y="116.7" font-family="'TGL 0-17_std', 'TGL 0-17', 'Times New Roman', Times, serif" font-size="12" fill="#000000" text-anchor="end">Input_I1</text>
      <text x="-3" y="133.7" font-family="'TGL 0-17_std', 'TGL 0-17', 'Times New Roman', Times, serif" font-size="12" fill="#000000" text-anchor="end">BUTTON_SINGLE_CLICK</text>

      <!-- Instance Name -->
      <text x="60.0654296875" y="-5"
            font-family="'TGL 0-17_std', 'TGL 0-17', 'Times New Roman', Times, serif" font-size="12"
            fill="#000000" text-anchor="middle">DigitalInput_CLK_I1</text>
    </g>
    <g id="fb_DigitalInput_CLK_I4" transform="translate(60.0, 555.0)">
      <path d="M 3 0
            L 117.130859375 0
            A 3 3 0 0 1 120.130859375 3
            L 120.130859375 52
            A 3 3 0 0 1 117.130859375 55
            L 111.130859375 55
            L 111.130859375 69
            L 117.130859375 69
            A 3 3 0 0 1 120.130859375 72
            L 120.130859375 137
            A 3 3 0 0 1 117.130859375 140
            L 3 140
            A 3 3 0 0 1 0 137
            L 0 72
            A 3 3 0 0 1 3 69
            L 9 69
            L 9 55
            L 3 55
            A 3 3 0 0 1 0 52
            L 0 3
            A 3 3 0 0 1 3 0
            Z"
            fill="#FFFFFF" stroke="#A0A0A0" stroke-width="1.5"
            stroke-linejoin="round" filter="url(#dropShadow)"/>
      <!-- Name Section -->
      <path d="M 24.4443359375 54.0
            L 38.4443359375 54.0
            A 1 1 0 0 1 39.4443359375 55.0
            L 39.4443359375 58.0
            L 37.9443359375 58.0
            L 37.9443359375 60.666666666666664
            L 39.4443359375 60.666666666666664
            L 39.4443359375 69.0
            A 1 1 0 0 1 38.4443359375 70.0
            L 24.4443359375 70.0
            A 1 1 0 0 1 23.4443359375 69.0
            L 23.4443359375 60.666666666666664
            L 24.9443359375 60.666666666666664
            L 24.9443359375 58.0
            L 23.4443359375 58.0
            L 23.4443359375 55.0
            A 1 1 0 0 1 24.4443359375 54.0
            Z"
            fill="#87CEEB" stroke="#1565C0" stroke-width="1"/>
      <text x="31.4443359375" y="66.0"
            font-family="'TGL 0-17_std', 'TGL 0-17', 'Times New Roman', Times, serif" font-size="10" font-weight="bold"
            fill="#000000" text-anchor="middle">Si</text>
      <text x="41.4443359375" y="66.0"
            font-family="'TGL 0-16_std', 'TGL 0-16', 'Times New Roman', Times, serif" font-size="12"
            fill="#000000">logiBUS_IE</text>
      <polygon points="0,5.5 5,10.5 0,15.5" fill="#63B31F"/>
      <text x="6" y="14.7" font-family="'TGL 0-17_std', 'TGL 0-17', 'Times New Roman', Times, serif" font-size="12"
            fill="#000000">INIT</text>
      <polygon points="0,22.5 5,27.5 0,32.5" fill="#63B31F"/>
      <text x="6" y="31.7" font-family="'TGL 0-17_std', 'TGL 0-17', 'Times New Roman', Times, serif" font-size="12"
            fill="#000000">REQ</text>
      <polygon points="115.130859375,5.5 120.130859375,10.5 115.130859375,15.5" fill="#63B31F"/>
      <text x="114.130859375" y="14.7" font-family="'TGL 0-17_std', 'TGL 0-17', 'Times New Roman', Times, serif" font-size="12"
            fill="#000000" text-anchor="end">INITO</text>
      <polygon points="115.130859375,22.5 120.130859375,27.5 115.130859375,32.5" fill="#63B31F"/>
      <text x="114.130859375" y="31.7" font-family="'TGL 0-17_std', 'TGL 0-17', 'Times New Roman', Times, serif" font-size="12"
            fill="#000000" text-anchor="end">CNF</text>
      <polygon points="115.130859375,39.5 120.130859375,44.5 115.130859375,49.5" fill="#63B31F"/>
      <text x="114.130859375" y="48.7" font-family="'TGL 0-17_std', 'TGL 0-17', 'Times New Roman', Times, serif" font-size="12"
            fill="#000000" text-anchor="end">IND</text>
      <polygon points="0,73.5 5,78.5 0,83.5" fill="#A3B08F"/>
      <text x="6" y="82.7" font-family="'TGL 0-17_std', 'TGL 0-17', 'Times New Roman', Times, serif" font-size="12"
            fill="#000000">QI</text>
      <polygon points="0,90.5 5,95.5 0,100.5" fill="#BD8663"/>
      <text x="6" y="99.7" font-family="'TGL 0-17_std', 'TGL 0-17', 'Times New Roman', Times, serif" font-size="12"
            fill="#000000">PARAMS</text>
      <polygon points="0,107.5 5,112.5 0,117.5" fill="#3366FF"/>
      <text x="6" y="116.7" font-family="'TGL 0-17_std', 'TGL 0-17', 'Times New Roman', Times, serif" font-size="12"
            fill="#000000">Input</text>
      <polygon points="0,124.5 5,129.5 0,134.5" fill="#3366FF"/>
      <text x="6" y="133.7" font-family="'TGL 0-17_std', 'TGL 0-17', 'Times New Roman', Times, serif" font-size="12"
            fill="#000000">InputEvent</text>
      <polygon points="115.130859375,73.5 120.130859375,78.5 115.130859375,83.5" fill="#A3B08F"/>
      <text x="114.130859375" y="82.7" font-family="'TGL 0-17_std', 'TGL 0-17', 'Times New Roman', Times, serif" font-size="12"
            fill="#000000" text-anchor="end">QO</text>
      <polygon points="115.130859375,90.5 120.130859375,95.5 115.130859375,100.5" fill="#BD8663"/>
      <text x="114.130859375" y="99.7" font-family="'TGL 0-17_std', 'TGL 0-17', 'Times New Roman', Times, serif" font-size="12"
            fill="#000000" text-anchor="end">STATUS</text>
      <text x="-3" y="82.7" font-family="'TGL 0-17_std', 'TGL 0-17', 'Times New Roman', Times, serif" font-size="12" fill="#000000" text-anchor="end">TRUE</text>
      <text x="-3" y="116.7" font-family="'TGL 0-17_std', 'TGL 0-17', 'Times New Roman', Times, serif" font-size="12" fill="#000000" text-anchor="end">Input_I4</text>
      <text x="-3" y="133.7" font-family="'TGL 0-17_std', 'TGL 0-17', 'Times New Roman', Times, serif" font-size="12" fill="#000000" text-anchor="end">BUTTON_SINGLE_CLICK</text>

      <!-- Instance Name -->
      <text x="60.0654296875" y="-5"
            font-family="'TGL 0-17_std', 'TGL 0-17', 'Times New Roman', Times, serif" font-size="12"
            fill="#000000" text-anchor="middle">DigitalInput_CLK_I4</text>
    </g>
    <g id="fb_E_TimeOut" transform="translate(418.0, 705.0)">
      <path d="M 3 0
            L 98.2421875 0
            A 3 3 0 0 1 101.2421875 3
            L 101.2421875 18
            A 3 3 0 0 1 98.2421875 21
            L 92.2421875 21
            L 92.2421875 35
            L 98.2421875 35
            A 3 3 0 0 1 101.2421875 38
            L 101.2421875 52
            A 3 3 0 0 1 98.2421875 55
            L 3 55
            A 3 3 0 0 1 0 52
            L 0 38
            A 3 3 0 0 1 3 35
            L 9 35
            L 9 21
            L 3 21
            A 3 3 0 0 1 0 18
            L 0 3
            A 3 3 0 0 1 3 0
            Z"
            fill="#FFFFFF" stroke="#A0A0A0" stroke-width="1.5"
            stroke-linejoin="round" filter="url(#dropShadow)"/>
      <!-- Name Section -->
      <path d="M 15.9931640625 20.0
            L 29.9931640625 20.0
            A 1 1 0 0 1 30.9931640625 21.0
            L 30.9931640625 24.0
            L 29.4931640625 24.0
            L 29.4931640625 26.666666666666668
            L 30.9931640625 26.666666666666668
            L 30.9931640625 35.0
            A 1 1 0 0 1 29.9931640625 36.0
            L 15.9931640625 36.0
            A 1 1 0 0 1 14.9931640625 35.0
            L 14.9931640625 26.666666666666668
            L 16.4931640625 26.666666666666668
            L 16.4931640625 24.0
            L 14.9931640625 24.0
            L 14.9931640625 21.0
            A 1 1 0 0 1 15.9931640625 20.0
            Z"
            fill="#87CEEB" stroke="#1565C0" stroke-width="1"/>
      <text x="22.9931640625" y="32.0"
            font-family="'TGL 0-17_std', 'TGL 0-17', 'Times New Roman', Times, serif" font-size="10" font-weight="bold"
            fill="#000000" text-anchor="middle">C</text>
      <text x="32.9931640625" y="32.0"
            font-family="'TGL 0-16_std', 'TGL 0-16', 'Times New Roman', Times, serif" font-size="12"
            fill="#000000">E_TimeOut</text>



      <path d="M 0 38.5
            L 5.0 38.5
            L 5.0 40.166666666666664
            L 7.5 40.166666666666664
            L 7.5 38.5
            L 10 38.5
            L 10 48.5
            L 7.5 48.5
            L 7.5 46.833333333333336
            L 5.0 46.833333333333336
            L 5.0 48.5
            L 0 48.5
            Z" fill="none" stroke="#845DAF" stroke-width="1"/>
      <text x="13" y="47.7" font-family="'TGL 0-17_std', 'TGL 0-17', 'Times New Roman', Times, serif" font-size="12"
            fill="#000000">TimeOutSocke…</text>
      <!-- Instance Name -->
      <text x="50.62109375" y="-5"
            font-family="'TGL 0-17_std', 'TGL 0-17', 'Times New Roman', Times, serif" font-size="12"
            fill="#000000" text-anchor="middle">E_TimeOut</text>
    </g>
    <g id="fb_Q_NumericValue_AUDI" transform="translate(1460.0, 135.0)">
      <path d="M 3 0
            L 162.87890625 0
            A 3 3 0 0 1 165.87890625 3
            L 165.87890625 35
            A 3 3 0 0 1 162.87890625 38
            L 156.87890625 38
            L 156.87890625 52
            L 162.87890625 52
            A 3 3 0 0 1 165.87890625 55
            L 165.87890625 103
            A 3 3 0 0 1 162.87890625 106
            L 3 106
            A 3 3 0 0 1 0 103
            L 0 55
            A 3 3 0 0 1 3 52
            L 9 52
            L 9 38
            L 3 38
            A 3 3 0 0 1 0 35
            L 0 3
            A 3 3 0 0 1 3 0
            Z"
            fill="#FFFFFF" stroke="#A0A0A0" stroke-width="1.5"
            stroke-linejoin="round" filter="url(#dropShadow)"/>
      <!-- Name Section -->
      <path d="M 27.3525390625 37.0
            L 41.3525390625 37.0
            A 1 1 0 0 1 42.3525390625 38.0
            L 42.3525390625 41.0
            L 40.8525390625 41.0
            L 40.8525390625 43.666666666666664
            L 42.3525390625 43.666666666666664
            L 42.3525390625 52.0
            A 1 1 0 0 1 41.3525390625 53.0
            L 27.3525390625 53.0
            A 1 1 0 0 1 26.3525390625 52.0
            L 26.3525390625 43.666666666666664
            L 27.8525390625 43.666666666666664
            L 27.8525390625 41.0
            L 26.3525390625 41.0
            L 26.3525390625 38.0
            A 1 1 0 0 1 27.3525390625 37.0
            Z"
            fill="#87CEEB" stroke="#1565C0" stroke-width="1"/>
      <text x="34.3525390625" y="49.0"
            font-family="'TGL 0-17_std', 'TGL 0-17', 'Times New Roman', Times, serif" font-size="10" font-weight="bold"
            fill="#000000" text-anchor="middle">C</text>
      <text x="44.3525390625" y="49.0"
            font-family="'TGL 0-16_std', 'TGL 0-16', 'Times New Roman', Times, serif" font-size="12"
            fill="#000000">Q_NumericValue_…</text>
      <polygon points="0,5.5 5,10.5 0,15.5" fill="#63B31F"/>
      <text x="6" y="14.7" font-family="'TGL 0-17_std', 'TGL 0-17', 'Times New Roman', Times, serif" font-size="12"
            fill="#000000">INIT</text>
      <polygon points="160.87890625,5.5 165.87890625,10.5 160.87890625,15.5" fill="#63B31F"/>
      <text x="159.87890625" y="14.7" font-family="'TGL 0-17_std', 'TGL 0-17', 'Times New Roman', Times, serif" font-size="12"
            fill="#000000" text-anchor="end">INITO</text>
      <polygon points="160.87890625,22.5 165.87890625,27.5 160.87890625,32.5" fill="#63B31F"/>
      <text x="159.87890625" y="31.7" font-family="'TGL 0-17_std', 'TGL 0-17', 'Times New Roman', Times, serif" font-size="12"
            fill="#000000" text-anchor="end">CNF</text>
      <polygon points="0,56.5 5,61.5 0,66.5" fill="#18519E"/>
      <text x="6" y="65.7" font-family="'TGL 0-17_std', 'TGL 0-17', 'Times New Roman', Times, serif" font-size="12"
            fill="#000000">u16ObjId</text>
      <polygon points="160.87890625,56.5 165.87890625,61.5 160.87890625,66.5" fill="#BD8663"/>
      <text x="159.87890625" y="65.7" font-family="'TGL 0-17_std', 'TGL 0-17', 'Times New Roman', Times, serif" font-size="12"
            fill="#000000" text-anchor="end">STATUS</text>
      <polygon points="160.87890625,73.5 165.87890625,78.5 160.87890625,83.5" fill="#18519E"/>
      <text x="159.87890625" y="82.7" font-family="'TGL 0-17_std', 'TGL 0-17', 'Times New Roman', Times, serif" font-size="12"
            fill="#000000" text-anchor="end">s16result</text>
      <text x="-3" y="65.7" font-family="'TGL 0-17_std', 'TGL 0-17', 'Times New Roman', Times, serif" font-size="12" fill="#000000" text-anchor="end">OutputNumber_N1</text>
      <path d="M 0 90.5
            L 5.0 90.5
            L 5.0 92.16666666666667
            L 7.5 92.16666666666667
            L 7.5 90.5
            L 10 90.5
            L 10 100.5
            L 7.5 100.5
            L 7.5 98.83333333333333
            L 5.0 98.83333333333333
            L 5.0 100.5
            L 0 100.5
            Z" fill="none" stroke="#845DAF" stroke-width="1"/>
      <text x="13" y="99.7" font-family="'TGL 0-17_std', 'TGL 0-17', 'Times New Roman', Times, serif" font-size="12"
            fill="#000000">u32NewValue</text>
      <path d="M 155.87890625 90.5
            L 158.37890625 90.5
            L 158.37890625 92.16666666666667
            L 160.87890625 92.16666666666667
            L 160.87890625 90.5
            L 165.87890625 90.5
            L 165.87890625 100.5
            L 160.87890625 100.5
            L 160.87890625 98.83333333333333
            L 158.37890625 98.83333333333333
            L 158.37890625 100.5
            L 155.87890625 100.5
            Z" fill="#845DAF"/>
      <text x="152.87890625" y="99.7" font-family="'TGL 0-17_std', 'TGL 0-17', 'Times New Roman', Times, serif" font-size="12"
            fill="#000000" text-anchor="end">u32OldValue</text>
      <!-- Instance Name -->
      <text x="82.939453125" y="-5"
            font-family="'TGL 0-17_std', 'TGL 0-17', 'Times New Roman', Times, serif" font-size="12"
            fill="#000000" text-anchor="middle">Q_NumericValue_AUDI</text>
    </g>
    <g id="fb_AS_TO_AUDI" transform="translate(1124.0, 162.0)">
      <path d="M 3 0
            L 108.24609375 0
            A 3 3 0 0 1 111.24609375 3
            L 111.24609375 18
            A 3 3 0 0 1 108.24609375 21
            L 102.24609375 21
            L 102.24609375 35
            L 108.24609375 35
            A 3 3 0 0 1 111.24609375 38
            L 111.24609375 52
            A 3 3 0 0 1 108.24609375 55
            L 3 55
            A 3 3 0 0 1 0 52
            L 0 38
            A 3 3 0 0 1 3 35
            L 9 35
            L 9 21
            L 3 21
            A 3 3 0 0 1 0 18
            L 0 3
            A 3 3 0 0 1 3 0
            Z"
            fill="#FFFFFF" stroke="#A0A0A0" stroke-width="1.5"
            stroke-linejoin="round" filter="url(#dropShadow)"/>
      <!-- Name Section -->
      <path d="M 17.6845703125 20.0
            L 31.6845703125 20.0
            A 1 1 0 0 1 32.6845703125 21.0
            L 32.6845703125 24.0
            L 31.1845703125 24.0
            L 31.1845703125 26.666666666666668
            L 32.6845703125 26.666666666666668
            L 32.6845703125 35.0
            A 1 1 0 0 1 31.6845703125 36.0
            L 17.6845703125 36.0
            A 1 1 0 0 1 16.6845703125 35.0
            L 16.6845703125 26.666666666666668
            L 18.1845703125 26.666666666666668
            L 18.1845703125 24.0
            L 16.6845703125 24.0
            L 16.6845703125 21.0
            A 1 1 0 0 1 17.6845703125 20.0
            Z"
            fill="#87CEEB" stroke="#1565C0" stroke-width="1"/>
      <text x="24.6845703125" y="32.0"
            font-family="'TGL 0-17_std', 'TGL 0-17', 'Times New Roman', Times, serif" font-size="10" font-weight="bold"
            fill="#000000" text-anchor="middle">C</text>
      <text x="34.6845703125" y="32.0"
            font-family="'TGL 0-16_std', 'TGL 0-16', 'Times New Roman', Times, serif" font-size="12"
            fill="#000000">AS_TO_AUDI</text>



      <path d="M 0 38.5
            L 5.0 38.5
            L 5.0 40.166666666666664
            L 7.5 40.166666666666664
            L 7.5 38.5
            L 10 38.5
            L 10 48.5
            L 7.5 48.5
            L 7.5 46.833333333333336
            L 5.0 46.833333333333336
            L 5.0 48.5
            L 0 48.5
            Z" fill="none" stroke="#845DAF" stroke-width="1"/>
      <text x="13" y="47.7" font-family="'TGL 0-17_std', 'TGL 0-17', 'Times New Roman', Times, serif" font-size="12"
            fill="#000000">AS_IN</text>
      <path d="M 101.24609375 38.5
            L 103.74609375 38.5
            L 103.74609375 40.166666666666664
            L 106.24609375 40.166666666666664
            L 106.24609375 38.5
            L 111.24609375 38.5
            L 111.24609375 48.5
            L 106.24609375 48.5
            L 106.24609375 46.833333333333336
            L 103.74609375 46.833333333333336
            L 103.74609375 48.5
            L 101.24609375 48.5
            Z" fill="#845DAF"/>
      <text x="98.24609375" y="47.7" font-family="'TGL 0-17_std', 'TGL 0-17', 'Times New Roman', Times, serif" font-size="12"
            fill="#000000" text-anchor="end">AUDI_OUT</text>
      <!-- Instance Name -->
      <text x="55.623046875" y="-5"
            font-family="'TGL 0-17_std', 'TGL 0-17', 'Times New Roman', Times, serif" font-size="12"
            fill="#000000" text-anchor="middle">AS_TO_AUDI</text>
    </g>
    <g id="fb_sequence_block" transform="translate(418.0, 345.0)">
      <path d="M 3 0
            L 133.3828125 0
            A 3 3 0 0 1 136.3828125 3
            L 136.3828125 120
            A 3 3 0 0 1 133.3828125 123
            L 127.3828125 123
            L 127.3828125 137
            L 133.3828125 137
            A 3 3 0 0 1 136.3828125 140
            L 136.3828125 341
            A 3 3 0 0 1 133.3828125 344
            L 3 344
            A 3 3 0 0 1 0 341
            L 0 140
            A 3 3 0 0 1 3 137
            L 9 137
            L 9 123
            L 3 123
            A 3 3 0 0 1 0 120
            L 0 3
            A 3 3 0 0 1 3 0
            Z"
            fill="#FFFFFF" stroke="#A0A0A0" stroke-width="1.5"
            stroke-linejoin="round" filter="url(#dropShadow)"/>
      <!-- Name Section -->
      <path d="M 13.0 122.0
            L 27.0 122.0
            A 1 1 0 0 1 28.0 123.0
            L 28.0 126.0
            L 26.5 126.0
            L 26.5 128.66666666666666
            L 28.0 128.66666666666666
            L 28.0 137.0
            A 1 1 0 0 1 27.0 138.0
            L 13.0 138.0
            A 1 1 0 0 1 12.0 137.0
            L 12.0 128.66666666666666
            L 13.5 128.66666666666666
            L 13.5 126.0
            L 12.0 126.0
            L 12.0 123.0
            A 1 1 0 0 1 13.0 122.0
            Z"
            fill="#87CEEB" stroke="#1565C0" stroke-width="1"/>
      <text x="20.0" y="134.0"
            font-family="'TGL 0-17_std', 'TGL 0-17', 'Times New Roman', Times, serif" font-size="10" font-weight="bold"
            fill="#000000" text-anchor="middle">B</text>
      <text x="30.0" y="134.0"
            font-family="'TGL 0-16_std', 'TGL 0-16', 'Times New Roman', Times, serif" font-size="12"
            fill="#000000">sequence_ET_05_…</text>
      <polygon points="0,5.5 5,10.5 0,15.5" fill="#63B31F"/>
      <text x="6" y="14.7" font-family="'TGL 0-17_std', 'TGL 0-17', 'Times New Roman', Times, serif" font-size="12"
            fill="#000000">START_S1</text>
      <polygon points="0,22.5 5,27.5 0,32.5" fill="#63B31F"/>
      <text x="6" y="31.7" font-family="'TGL 0-17_std', 'TGL 0-17', 'Times New Roman', Times, serif" font-size="12"
            fill="#000000">S1_S2</text>
      <polygon points="0,39.5 5,44.5 0,49.5" fill="#63B31F"/>
      <text x="6" y="48.7" font-family="'TGL 0-17_std', 'TGL 0-17', 'Times New Roman', Times, serif" font-size="12"
            fill="#000000">S2_S3</text>
      <polygon points="0,56.5 5,61.5 0,66.5" fill="#63B31F"/>
      <text x="6" y="65.7" font-family="'TGL 0-17_std', 'TGL 0-17', 'Times New Roman', Times, serif" font-size="12"
            fill="#000000">S3_S4</text>
      <polygon points="0,73.5 5,78.5 0,83.5" fill="#63B31F"/>
      <text x="6" y="82.7" font-family="'TGL 0-17_std', 'TGL 0-17', 'Times New Roman', Times, serif" font-size="12"
            fill="#000000">S4_S5</text>
      <polygon points="0,90.5 5,95.5 0,100.5" fill="#63B31F"/>
      <text x="6" y="99.7" font-family="'TGL 0-17_std', 'TGL 0-17', 'Times New Roman', Times, serif" font-size="12"
            fill="#000000">S5_S1</text>
      <polygon points="0,107.5 5,112.5 0,117.5" fill="#63B31F"/>
      <text x="6" y="116.7" font-family="'TGL 0-17_std', 'TGL 0-17', 'Times New Roman', Times, serif" font-size="12"
            fill="#000000">RESET</text>
      <polygon points="0,141.5 5,146.5 0,151.5" fill="#3366FF"/>
      <text x="6" y="150.7" font-family="'TGL 0-17_std', 'TGL 0-17', 'Times New Roman', Times, serif" font-size="12"
            fill="#000000">DT_S1_S2</text>
      <polygon points="0,158.5 5,163.5 0,168.5" fill="#3366FF"/>
      <text x="6" y="167.7" font-family="'TGL 0-17_std', 'TGL 0-17', 'Times New Roman', Times, serif" font-size="12"
            fill="#000000">DT_S2_S3</text>
      <polygon points="0,175.5 5,180.5 0,185.5" fill="#3366FF"/>
      <text x="6" y="184.7" font-family="'TGL 0-17_std', 'TGL 0-17', 'Times New Roman', Times, serif" font-size="12"
            fill="#000000">DT_S3_S4</text>
      <polygon points="0,192.5 5,197.5 0,202.5" fill="#3366FF"/>
      <text x="6" y="201.7" font-family="'TGL 0-17_std', 'TGL 0-17', 'Times New Roman', Times, serif" font-size="12"
            fill="#000000">DT_S4_S5</text>
      <polygon points="0,209.5 5,214.5 0,219.5" fill="#3366FF"/>
      <text x="6" y="218.7" font-family="'TGL 0-17_std', 'TGL 0-17', 'Times New Roman', Times, serif" font-size="12"
            fill="#000000">DT_S5_S1</text>
      <text x="-3" y="150.7" font-family="'TGL 0-17_std', 'TGL 0-17', 'Times New Roman', Times, serif" font-size="12" fill="#000000" text-anchor="end">T#1s</text>
      <text x="-3" y="167.7" font-family="'TGL 0-17_std', 'TGL 0-17', 'Times New Roman', Times, serif" font-size="12" fill="#000000" text-anchor="end">T#1s</text>
      <text x="-3" y="184.7" font-family="'TGL 0-17_std', 'TGL 0-17', 'Times New Roman', Times, serif" font-size="12" fill="#000000" text-anchor="end">T#1s</text>
      <text x="-3" y="201.7" font-family="'TGL 0-17_std', 'TGL 0-17', 'Times New Roman', Times, serif" font-size="12" fill="#000000" text-anchor="end">T#1s</text>
      <text x="-3" y="218.7" font-family="'TGL 0-17_std', 'TGL 0-17', 'Times New Roman', Times, serif" font-size="12" fill="#000000" text-anchor="end">T#1s</text>
      <path d="M 126.3828125 226.5
            L 128.8828125 226.5
            L 128.8828125 228.16666666666666
            L 131.3828125 228.16666666666666
            L 131.3828125 226.5
            L 136.3828125 226.5
            L 136.3828125 236.5
            L 131.3828125 236.5
            L 131.3828125 234.83333333333334
            L 128.8828125 234.83333333333334
            L 128.8828125 236.5
            L 126.3828125 236.5
            Z" fill="#845DAF"/>
      <text x="123.3828125" y="235.7" font-family="'TGL 0-17_std', 'TGL 0-17', 'Times New Roman', Times, serif" font-size="12"
            fill="#000000" text-anchor="end">STATE_NR</text>
      <path d="M 126.3828125 243.5
            L 128.8828125 243.5
            L 128.8828125 245.16666666666666
            L 131.3828125 245.16666666666666
            L 131.3828125 243.5
            L 136.3828125 243.5
            L 136.3828125 253.5
            L 131.3828125 253.5
            L 131.3828125 251.83333333333334
            L 128.8828125 251.83333333333334
            L 128.8828125 253.5
            L 126.3828125 253.5
            Z" fill="#845DAF"/>
      <text x="123.3828125" y="252.7" font-family="'TGL 0-17_std', 'TGL 0-17', 'Times New Roman', Times, serif" font-size="12"
            fill="#000000" text-anchor="end">DO_S1</text>
      <path d="M 126.3828125 260.5
            L 128.8828125 260.5
            L 128.8828125 262.1666666666667
            L 131.3828125 262.1666666666667
            L 131.3828125 260.5
            L 136.3828125 260.5
            L 136.3828125 270.5
            L 131.3828125 270.5
            L 131.3828125 268.8333333333333
            L 128.8828125 268.8333333333333
            L 128.8828125 270.5
            L 126.3828125 270.5
            Z" fill="#845DAF"/>
      <text x="123.3828125" y="269.7" font-family="'TGL 0-17_std', 'TGL 0-17', 'Times New Roman', Times, serif" font-size="12"
            fill="#000000" text-anchor="end">DO_S2</text>
      <path d="M 126.3828125 277.5
            L 128.8828125 277.5
            L 128.8828125 279.1666666666667
            L 131.3828125 279.1666666666667
            L 131.3828125 277.5
            L 136.3828125 277.5
            L 136.3828125 287.5
            L 131.3828125 287.5
            L 131.3828125 285.8333333333333
            L 128.8828125 285.8333333333333
            L 128.8828125 287.5
            L 126.3828125 287.5
            Z" fill="#845DAF"/>
      <text x="123.3828125" y="286.7" font-family="'TGL 0-17_std', 'TGL 0-17', 'Times New Roman', Times, serif" font-size="12"
            fill="#000000" text-anchor="end">DO_S3</text>
      <path d="M 126.3828125 294.5
            L 128.8828125 294.5
            L 128.8828125 296.1666666666667
            L 131.3828125 296.1666666666667
            L 131.3828125 294.5
            L 136.3828125 294.5
            L 136.3828125 304.5
            L 131.3828125 304.5
            L 131.3828125 302.8333333333333
            L 128.8828125 302.8333333333333
            L 128.8828125 304.5
            L 126.3828125 304.5
            Z" fill="#845DAF"/>
      <text x="123.3828125" y="303.7" font-family="'TGL 0-17_std', 'TGL 0-17', 'Times New Roman', Times, serif" font-size="12"
            fill="#000000" text-anchor="end">DO_S4</text>
      <path d="M 126.3828125 311.5
            L 128.8828125 311.5
            L 128.8828125 313.1666666666667
            L 131.3828125 313.1666666666667
            L 131.3828125 311.5
            L 136.3828125 311.5
            L 136.3828125 321.5
            L 131.3828125 321.5
            L 131.3828125 319.8333333333333
            L 128.8828125 319.8333333333333
            L 128.8828125 321.5
            L 126.3828125 321.5
            Z" fill="#845DAF"/>
      <text x="123.3828125" y="320.7" font-family="'TGL 0-17_std', 'TGL 0-17', 'Times New Roman', Times, serif" font-size="12"
            fill="#000000" text-anchor="end">DO_S5</text>
      <path d="M 126.3828125 328.5
            L 128.8828125 328.5
            L 128.8828125 330.1666666666667
            L 131.3828125 330.1666666666667
            L 131.3828125 328.5
            L 136.3828125 328.5
            L 136.3828125 338.5
            L 131.3828125 338.5
            L 131.3828125 336.8333333333333
            L 128.8828125 336.8333333333333
            L 128.8828125 338.5
            L 126.3828125 338.5
            Z" fill="#845DAF"/>
      <text x="123.3828125" y="337.7" font-family="'TGL 0-17_std', 'TGL 0-17', 'Times New Roman', Times, serif" font-size="12"
            fill="#000000" text-anchor="end">timeOut</text>
      <!-- Instance Name -->
      <text x="68.19140625" y="-5"
            font-family="'TGL 0-17_std', 'TGL 0-17', 'Times New Roman', Times, serif" font-size="12"
            fill="#000000" text-anchor="middle">sequence_block</text>
    </g>
  </g>
</svg>