<?xml version="1.0" encoding="UTF-8"?>
<svg xmlns="http://www.w3.org/2000/svg"
     viewBox="53.0 -93.0 1126.0 902.0"
     width="1126" height="902">
  <style>
    @font-face {
      font-family: "TGL 0-17_std";
      src: local("TGL 0-17_std");
      font-style: normal;
      font-weight: normal;
    }
    @font-face {
      font-family: "TGL 0-17";
      src: local("TGL 0-17"), local("TGL 0-17 alt");
      font-style: normal;
      font-weight: normal;
    }
    @font-face {
      font-family: "TGL 0-16_std";
      src: local("TGL 0-16_std");
      font-style: normal;
      font-weight: normal;
    }
    @font-face {
      font-family: "TGL 0-16";
      src: local("TGL 0-16");
      font-style: normal;
      font-weight: normal;
    }
  </style>
  <defs>
    <filter id="dropShadow" x="-20%" y="-20%" width="140%" height="140%">
      <feGaussianBlur in="SourceAlpha" stdDeviation="3" result="blur"/>
      <feOffset in="blur" dx="1" dy="1" result="offsetBlur"/>
      <feFlood flood-color="#000000" flood-opacity="0.5" result="shadowColor"/>
      <feComposite in="shadowColor" in2="offsetBlur" operator="in" result="shadow"/>
      <feMerge>
        <feMergeNode in="shadow"/>
        <feMergeNode in="SourceGraphic"/>
      </feMerge>
    </filter>
  </defs>
  <rect x="53.0" y="-93.0" width="1126.0" height="902.0" fill="white"/>
  <rect x="60.0" y="-86.0" width="1112.0" height="888.0" fill="none" stroke="#A0A0A0" stroke-width="2"/>
  <rect x="60.0" y="-86.0" width="1112.0" height="25.0" fill="white" stroke="none"/>
  <line x1="60.0" y1="-61.5" x2="1172.0" y2="-61.5" stroke="#A0A0A0" stroke-width="1"/>
  <text x="65.0" y="-69.3" font-family="'TGL 0-17_std', 'TGL 0-17', 'Times New Roman', Times, serif" font-size="12" font-weight="bold" fill="#333333">Übung zu ISOBUS Send Message Cyclic (mit CB)</text>
  <g id="sidebars">
  </g>
  <g id="connections">
    <polyline points="253.6,132.5 337.6,132.5 342.6,137.5 342.6,635.5 347.6,640.5 453.3,640.5" fill="none" stroke="#63B31F" stroke-width="1.5" stroke-linejoin="round"/>
    <polyline points="253.6,132.5 337.6,132.5 342.6,137.5 342.6,440.5 347.6,445.5 438.3,445.5" fill="none" stroke="#63B31F" stroke-width="1.5" stroke-linejoin="round"/>
    <polyline points="253.6,132.5 337.6,132.5 342.6,137.5 342.6,260.5 347.6,265.5 438.3,265.5" fill="none" stroke="#63B31F" stroke-width="1.5" stroke-linejoin="round"/>
    <polyline points="253.6,132.5 603.6,132.5 608.6,127.5 608.6,107.5 613.6,102.5 963.3,102.5" fill="none" stroke="#63B31F" stroke-width="1.5" stroke-linejoin="round"/>
    <polyline points="253.6,217.5 332.6,217.5 337.6,222.5 337.6,669.5 342.6,674.5 453.3,674.5" fill="none" stroke="#3366FF" stroke-width="3" stroke-linejoin="round"/>
    <polyline points="253.6,217.5 332.6,217.5 337.6,222.5 337.6,669.5 342.6,674.5 453.3,674.5" fill="none" stroke="#CCD8FF" stroke-width="1" stroke-linejoin="round"/>
    <polyline points="253.6,183.5 347.6,183.5 352.6,188.5 352.6,294.5 357.6,299.5 438.3,299.5" fill="none" stroke="#3366FF" stroke-width="3" stroke-linejoin="round"/>
    <polyline points="253.6,183.5 347.6,183.5 352.6,188.5 352.6,294.5 357.6,299.5 438.3,299.5" fill="none" stroke="#CCD8FF" stroke-width="1" stroke-linejoin="round"/>
    <polyline points="253.6,200.5 342.6,200.5 347.6,205.5 347.6,474.5 352.6,479.5 438.3,479.5" fill="none" stroke="#3366FF" stroke-width="3" stroke-linejoin="round"/>
    <polyline points="253.6,200.5 342.6,200.5 347.6,205.5 347.6,474.5 352.6,479.5 438.3,479.5" fill="none" stroke="#CCD8FF" stroke-width="1" stroke-linejoin="round"/>
    <polyline points="253.6,183.5 589.6,183.5 594.6,188.5 594.6,199.5 599.6,204.5 963.3,204.5" fill="none" stroke="#3366FF" stroke-width="3" stroke-linejoin="round"/>
    <polyline points="253.6,183.5 589.6,183.5 594.6,188.5 594.6,199.5 599.6,204.5 963.3,204.5" fill="none" stroke="#CCD8FF" stroke-width="1" stroke-linejoin="round"/>
    <polyline points="834.5,328.5 887.5,328.5 892.5,323.5 892.5,277.5 897.5,272.5 963.3,272.5" fill="none" stroke="#845DAF" stroke-width="3" stroke-linejoin="round"/>
    <polyline points="834.5,328.5 887.5,328.5 892.5,323.5 892.5,277.5 897.5,272.5 963.3,272.5" fill="none" stroke="#DED4EA" stroke-width="1" stroke-linejoin="round"/>
  </g>
  <g id="interface_ports">
  </g>
  <g id="instances">
    <g id="fb_STRUCT_DEMUX_3" transform="translate(453.3, 630.0)">
      <path d="M 3 0
            L 123.6875 0
            A 3 3 0 0 1 126.6875 3
            L 126.6875 18
            A 3 3 0 0 1 123.6875 21
            L 117.6875 21
            L 117.6875 35
            L 123.6875 35
            A 3 3 0 0 1 126.6875 38
            L 126.6875 52
            A 3 3 0 0 1 123.6875 55
            L 3 55
            A 3 3 0 0 1 0 52
            L 0 38
            A 3 3 0 0 1 3 35
            L 9 35
            L 9 21
            L 3 21
            A 3 3 0 0 1 0 18
            L 0 3
            A 3 3 0 0 1 3 0
            Z"
            fill="#FFFFFF" stroke="#A0A0A0" stroke-width="1.5"
            stroke-linejoin="round" filter="url(#dropShadow)"/>
      <!-- Name Section -->
      <path d="M 13.0 20.0
            L 27.0 20.0
            A 1 1 0 0 1 28.0 21.0
            L 28.0 24.0
            L 26.5 24.0
            L 26.5 26.666666666666668
            L 28.0 26.666666666666668
            L 28.0 35.0
            A 1 1 0 0 1 27.0 36.0
            L 13.0 36.0
            A 1 1 0 0 1 12.0 35.0
            L 12.0 26.666666666666668
            L 13.5 26.666666666666668
            L 13.5 24.0
            L 12.0 24.0
            L 12.0 21.0
            A 1 1 0 0 1 13.0 20.0
            Z"
            fill="#87CEEB" stroke="#1565C0" stroke-width="1"/>
      <text x="20.0" y="32.0"
            font-family="'TGL 0-17_std', 'TGL 0-17', 'Times New Roman', Times, serif" font-size="10" font-weight="bold"
            fill="#000000" text-anchor="middle">B</text>
      <text x="30.0" y="32.0"
            font-family="'TGL 0-16_std', 'TGL 0-16', 'Times New Roman', Times, serif" font-size="12"
            fill="#000000">STRUCT_DEMUX</text>
      <polygon points="0,5.5 5,10.5 0,15.5" fill="#63B31F"/>
      <text x="6" y="14.7" font-family="'TGL 0-17_std', 'TGL 0-17', 'Times New Roman', Times, serif" font-size="12"
            fill="#000000">REQ</text>
      <polygon points="0,39.5 5,44.5 0,49.5" fill="#3366FF"/>
      <text x="6" y="48.7" font-family="'TGL 0-17_std', 'TGL 0-17', 'Times New Roman', Times, serif" font-size="12"
            fill="#000000">IN</text>


      <!-- Instance Name -->
      <text x="63.34375" y="-5"
            font-family="'TGL 0-17_std', 'TGL 0-17', 'Times New Roman', Times, serif" font-size="12"
            fill="#000000" text-anchor="middle">STRUCT_DEMUX_3</text>
    </g>
    <g id="fb_NmGetCfInfo_1" transform="translate(108.3, 105.0)">
      <path d="M 3 0
            L 142.3125 0
            A 3 3 0 0 1 145.3125 3
            L 145.3125 35
            A 3 3 0 0 1 142.3125 38
            L 136.3125 38
            L 136.3125 52
            L 142.3125 52
            A 3 3 0 0 1 145.3125 55
            L 145.3125 120
            A 3 3 0 0 1 142.3125 123
            L 3 123
            A 3 3 0 0 1 0 120
            L 0 55
            A 3 3 0 0 1 3 52
            L 9 52
            L 9 38
            L 3 38
            A 3 3 0 0 1 0 35
            L 0 3
            A 3 3 0 0 1 3 0
            Z"
            fill="#FFFFFF" stroke="#A0A0A0" stroke-width="1.5"
            stroke-linejoin="round" filter="url(#dropShadow)"/>
      <!-- Name Section -->
      <path d="M 33.25 37.0
            L 47.25 37.0
            A 1 1 0 0 1 48.25 38.0
            L 48.25 41.0
            L 46.75 41.0
            L 46.75 43.666666666666664
            L 48.25 43.666666666666664
            L 48.25 52.0
            A 1 1 0 0 1 47.25 53.0
            L 33.25 53.0
            A 1 1 0 0 1 32.25 52.0
            L 32.25 43.666666666666664
            L 33.75 43.666666666666664
            L 33.75 41.0
            L 32.25 41.0
            L 32.25 38.0
            A 1 1 0 0 1 33.25 37.0
            Z"
            fill="#87CEEB" stroke="#1565C0" stroke-width="1"/>
      <text x="40.25" y="49.0"
            font-family="'TGL 0-17_std', 'TGL 0-17', 'Times New Roman', Times, serif" font-size="10" font-weight="bold"
            fill="#000000" text-anchor="middle">Si</text>
      <text x="50.25" y="49.0"
            font-family="'TGL 0-16_std', 'TGL 0-16', 'Times New Roman', Times, serif" font-size="12"
            fill="#000000">NmGetCfInfo</text>
      <polygon points="0,5.5 5,10.5 0,15.5" fill="#63B31F"/>
      <text x="6" y="14.7" font-family="'TGL 0-17_std', 'TGL 0-17', 'Times New Roman', Times, serif" font-size="12"
            fill="#000000">INIT</text>
      <polygon points="0,22.5 5,27.5 0,32.5" fill="#63B31F"/>
      <text x="6" y="31.7" font-family="'TGL 0-17_std', 'TGL 0-17', 'Times New Roman', Times, serif" font-size="12"
            fill="#000000">RSP</text>
      <polygon points="140.3125,5.5 145.3125,10.5 140.3125,15.5" fill="#63B31F"/>
      <text x="139.3125" y="14.7" font-family="'TGL 0-17_std', 'TGL 0-17', 'Times New Roman', Times, serif" font-size="12"
            fill="#000000" text-anchor="end">INITO</text>
      <polygon points="140.3125,22.5 145.3125,27.5 140.3125,32.5" fill="#63B31F"/>
      <text x="139.3125" y="31.7" font-family="'TGL 0-17_std', 'TGL 0-17', 'Times New Roman', Times, serif" font-size="12"
            fill="#000000" text-anchor="end">IND</text>
      <polygon points="0,56.5 5,61.5 0,66.5" fill="#18519E"/>
      <text x="6" y="65.7" font-family="'TGL 0-17_std', 'TGL 0-17', 'Times New Roman', Times, serif" font-size="12"
            fill="#000000">u8CanIdx</text>
      <polygon points="0,73.5 5,78.5 0,83.5" fill="#18519E"/>
      <text x="6" y="82.7" font-family="'TGL 0-17_std', 'TGL 0-17', 'Times New Roman', Times, serif" font-size="12"
            fill="#000000">member</text>
      <polygon points="0,90.5 5,95.5 0,100.5" fill="#3366FF"/>
      <text x="6" y="99.7" font-family="'TGL 0-17_std', 'TGL 0-17', 'Times New Roman', Times, serif" font-size="12"
            fill="#000000">address</text>
      <polygon points="0,107.5 5,112.5 0,117.5" fill="#3366FF"/>
      <text x="6" y="116.7" font-family="'TGL 0-17_std', 'TGL 0-17', 'Times New Roman', Times, serif" font-size="12"
            fill="#000000">mask</text>
      <polygon points="140.3125,56.5 145.3125,61.5 140.3125,66.5" fill="#A3B08F"/>
      <text x="139.3125" y="65.7" font-family="'TGL 0-17_std', 'TGL 0-17', 'Times New Roman', Times, serif" font-size="12"
            fill="#000000" text-anchor="end">bwaitingForR…</text>
      <polygon points="140.3125,73.5 145.3125,78.5 140.3125,83.5" fill="#3366FF"/>
      <text x="139.3125" y="82.7" font-family="'TGL 0-17_std', 'TGL 0-17', 'Times New Roman', Times, serif" font-size="12"
            fill="#000000" text-anchor="end">sNetEv</text>
      <polygon points="140.3125,90.5 145.3125,95.5 140.3125,100.5" fill="#3366FF"/>
      <text x="139.3125" y="99.7" font-family="'TGL 0-17_std', 'TGL 0-17', 'Times New Roman', Times, serif" font-size="12"
            fill="#000000" text-anchor="end">sCfInfo</text>
      <polygon points="140.3125,107.5 145.3125,112.5 140.3125,117.5" fill="#3366FF"/>
      <text x="139.3125" y="116.7" font-family="'TGL 0-17_std', 'TGL 0-17', 'Times New Roman', Times, serif" font-size="12"
            fill="#000000" text-anchor="end">sNameField</text>
      <text x="-3" y="65.7" font-family="'TGL 0-17_std', 'TGL 0-17', 'Times New Roman', Times, serif" font-size="12" fill="#000000" text-anchor="end">NODE1</text>
      <text x="-3" y="82.7" font-family="'TGL 0-17_std', 'TGL 0-17', 'Times New Roman', Times, serif" font-size="12" fill="#000000" text-anchor="end">network</text>
      <text x="-3" y="99.7" font-family="'TGL 0-17_std', 'TGL 0-17', 'Times New Roman', Times, serif" font-size="12" fill="#000000" text-anchor="end">PEAK_ADD</text>
      <text x="-3" y="116.7" font-family="'TGL 0-17_std', 'TGL 0-17', 'Times New Roman', Times, serif" font-size="12" fill="#000000" text-anchor="end">PEAK_FLT</text>

      <!-- Instance Name -->
      <text x="72.65625" y="-5"
            font-family="'TGL 0-17_std', 'TGL 0-17', 'Times New Roman', Times, serif" font-size="12"
            fill="#000000" text-anchor="middle">NmGetCfInfo_1</text>
    </g>
    <g id="fb_STRUCT_DEMUX_4" transform="translate(438.3, 435.0)">
      <path d="M 3 0
            L 123.6875 0
            A 3 3 0 0 1 126.6875 3
            L 126.6875 18
            A 3 3 0 0 1 123.6875 21
            L 117.6875 21
            L 117.6875 35
            L 123.6875 35
            A 3 3 0 0 1 126.6875 38
            L 126.6875 52
            A 3 3 0 0 1 123.6875 55
            L 3 55
            A 3 3 0 0 1 0 52
            L 0 38
            A 3 3 0 0 1 3 35
            L 9 35
            L 9 21
            L 3 21
            A 3 3 0 0 1 0 18
            L 0 3
            A 3 3 0 0 1 3 0
            Z"
            fill="#FFFFFF" stroke="#A0A0A0" stroke-width="1.5"
            stroke-linejoin="round" filter="url(#dropShadow)"/>
      <!-- Name Section -->
      <path d="M 13.0 20.0
            L 27.0 20.0
            A 1 1 0 0 1 28.0 21.0
            L 28.0 24.0
            L 26.5 24.0
            L 26.5 26.666666666666668
            L 28.0 26.666666666666668
            L 28.0 35.0
            A 1 1 0 0 1 27.0 36.0
            L 13.0 36.0
            A 1 1 0 0 1 12.0 35.0
            L 12.0 26.666666666666668
            L 13.5 26.666666666666668
            L 13.5 24.0
            L 12.0 24.0
            L 12.0 21.0
            A 1 1 0 0 1 13.0 20.0
            Z"
            fill="#87CEEB" stroke="#1565C0" stroke-width="1"/>
      <text x="20.0" y="32.0"
            font-family="'TGL 0-17_std', 'TGL 0-17', 'Times New Roman', Times, serif" font-size="10" font-weight="bold"
            fill="#000000" text-anchor="middle">B</text>
      <text x="30.0" y="32.0"
            font-family="'TGL 0-16_std', 'TGL 0-16', 'Times New Roman', Times, serif" font-size="12"
            fill="#000000">STRUCT_DEMUX</text>
      <polygon points="0,5.5 5,10.5 0,15.5" fill="#63B31F"/>
      <text x="6" y="14.7" font-family="'TGL 0-17_std', 'TGL 0-17', 'Times New Roman', Times, serif" font-size="12"
            fill="#000000">REQ</text>
      <polygon points="0,39.5 5,44.5 0,49.5" fill="#3366FF"/>
      <text x="6" y="48.7" font-family="'TGL 0-17_std', 'TGL 0-17', 'Times New Roman', Times, serif" font-size="12"
            fill="#000000">IN</text>


      <!-- Instance Name -->
      <text x="63.34375" y="-5"
            font-family="'TGL 0-17_std', 'TGL 0-17', 'Times New Roman', Times, serif" font-size="12"
            fill="#000000" text-anchor="middle">STRUCT_DEMUX_4</text>
    </g>
    <g id="fb_STRUCT_DEMUX_5" transform="translate(438.3, 255.0)">
      <path d="M 3 0
            L 123.6875 0
            A 3 3 0 0 1 126.6875 3
            L 126.6875 18
            A 3 3 0 0 1 123.6875 21
            L 117.6875 21
            L 117.6875 35
            L 123.6875 35
            A 3 3 0 0 1 126.6875 38
            L 126.6875 52
            A 3 3 0 0 1 123.6875 55
            L 3 55
            A 3 3 0 0 1 0 52
            L 0 38
            A 3 3 0 0 1 3 35
            L 9 35
            L 9 21
            L 3 21
            A 3 3 0 0 1 0 18
            L 0 3
            A 3 3 0 0 1 3 0
            Z"
            fill="#FFFFFF" stroke="#A0A0A0" stroke-width="1.5"
            stroke-linejoin="round" filter="url(#dropShadow)"/>
      <!-- Name Section -->
      <path d="M 13.0 20.0
            L 27.0 20.0
            A 1 1 0 0 1 28.0 21.0
            L 28.0 24.0
            L 26.5 24.0
            L 26.5 26.666666666666668
            L 28.0 26.666666666666668
            L 28.0 35.0
            A 1 1 0 0 1 27.0 36.0
            L 13.0 36.0
            A 1 1 0 0 1 12.0 35.0
            L 12.0 26.666666666666668
            L 13.5 26.666666666666668
            L 13.5 24.0
            L 12.0 24.0
            L 12.0 21.0
            A 1 1 0 0 1 13.0 20.0
            Z"
            fill="#87CEEB" stroke="#1565C0" stroke-width="1"/>
      <text x="20.0" y="32.0"
            font-family="'TGL 0-17_std', 'TGL 0-17', 'Times New Roman', Times, serif" font-size="10" font-weight="bold"
            fill="#000000" text-anchor="middle">B</text>
      <text x="30.0" y="32.0"
            font-family="'TGL 0-16_std', 'TGL 0-16', 'Times New Roman', Times, serif" font-size="12"
            fill="#000000">STRUCT_DEMUX</text>
      <polygon points="0,5.5 5,10.5 0,15.5" fill="#63B31F"/>
      <text x="6" y="14.7" font-family="'TGL 0-17_std', 'TGL 0-17', 'Times New Roman', Times, serif" font-size="12"
            fill="#000000">REQ</text>
      <polygon points="0,39.5 5,44.5 0,49.5" fill="#3366FF"/>
      <text x="6" y="48.7" font-family="'TGL 0-17_std', 'TGL 0-17', 'Times New Roman', Times, serif" font-size="12"
            fill="#000000">IN</text>


      <!-- Instance Name -->
      <text x="63.34375" y="-5"
            font-family="'TGL 0-17_std', 'TGL 0-17', 'Times New Roman', Times, serif" font-size="12"
            fill="#000000" text-anchor="middle">STRUCT_DEMUX_5</text>
    </g>
    <g id="fb_AlPgnTxNew8Bcycl_REQ" transform="translate(963.3, 75.0)">
      <path d="M 3 0
            L 157.4375 0
            A 3 3 0 0 1 160.4375 3
            L 160.4375 86
            A 3 3 0 0 1 157.4375 89
            L 151.4375 89
            L 151.4375 103
            L 157.4375 103
            A 3 3 0 0 1 160.4375 106
            L 160.4375 205
            A 3 3 0 0 1 157.4375 208
            L 3 208
            A 3 3 0 0 1 0 205
            L 0 106
            A 3 3 0 0 1 3 103
            L 9 103
            L 9 89
            L 3 89
            A 3 3 0 0 1 0 86
            L 0 3
            A 3 3 0 0 1 3 0
            Z"
            fill="#FFFFFF" stroke="#A0A0A0" stroke-width="1.5"
            stroke-linejoin="round" filter="url(#dropShadow)"/>
      <!-- Name Section -->
      <path d="M 19.9375 88.0
            L 33.9375 88.0
            A 1 1 0 0 1 34.9375 89.0
            L 34.9375 92.0
            L 33.4375 92.0
            L 33.4375 94.66666666666667
            L 34.9375 94.66666666666667
            L 34.9375 103.0
            A 1 1 0 0 1 33.9375 104.0
            L 19.9375 104.0
            A 1 1 0 0 1 18.9375 103.0
            L 18.9375 94.66666666666667
            L 20.4375 94.66666666666667
            L 20.4375 92.0
            L 18.9375 92.0
            L 18.9375 89.0
            A 1 1 0 0 1 19.9375 88.0
            Z"
            fill="#87CEEB" stroke="#1565C0" stroke-width="1"/>
      <text x="26.9375" y="100.0"
            font-family="'TGL 0-17_std', 'TGL 0-17', 'Times New Roman', Times, serif" font-size="10" font-weight="bold"
            fill="#000000" text-anchor="middle">Si</text>
      <text x="36.9375" y="100.0"
            font-family="'TGL 0-16_std', 'TGL 0-16', 'Times New Roman', Times, serif" font-size="12"
            fill="#000000">AlPgnTxNew8Bcyc…</text>
      <polygon points="0,5.5 5,10.5 0,15.5" fill="#63B31F"/>
      <text x="6" y="14.7" font-family="'TGL 0-17_std', 'TGL 0-17', 'Times New Roman', Times, serif" font-size="12"
            fill="#000000">INIT</text>
      <polygon points="0,22.5 5,27.5 0,32.5" fill="#63B31F"/>
      <text x="6" y="31.7" font-family="'TGL 0-17_std', 'TGL 0-17', 'Times New Roman', Times, serif" font-size="12"
            fill="#000000">install</text>
      <polygon points="155.4375,5.5 160.4375,10.5 155.4375,15.5" fill="#63B31F"/>
      <text x="154.4375" y="14.7" font-family="'TGL 0-17_std', 'TGL 0-17', 'Times New Roman', Times, serif" font-size="12"
            fill="#000000" text-anchor="end">INITO</text>
      <polygon points="155.4375,22.5 160.4375,27.5 155.4375,32.5" fill="#63B31F"/>
      <text x="154.4375" y="31.7" font-family="'TGL 0-17_std', 'TGL 0-17', 'Times New Roman', Times, serif" font-size="12"
            fill="#000000" text-anchor="end">installO</text>
      <polygon points="155.4375,39.5 160.4375,44.5 155.4375,49.5" fill="#63B31F"/>
      <text x="154.4375" y="48.7" font-family="'TGL 0-17_std', 'TGL 0-17', 'Times New Roman', Times, serif" font-size="12"
            fill="#000000" text-anchor="end">CNF</text>
      <polygon points="155.4375,56.5 160.4375,61.5 155.4375,66.5" fill="#63B31F"/>
      <text x="154.4375" y="65.7" font-family="'TGL 0-17_std', 'TGL 0-17', 'Times New Roman', Times, serif" font-size="12"
            fill="#000000" text-anchor="end">dataERR</text>
      <polygon points="155.4375,73.5 160.4375,78.5 155.4375,83.5" fill="#63B31F"/>
      <text x="154.4375" y="82.7" font-family="'TGL 0-17_std', 'TGL 0-17', 'Times New Roman', Times, serif" font-size="12"
            fill="#000000" text-anchor="end">pgnERR</text>
      <polygon points="0,107.5 5,112.5 0,117.5" fill="#18519E"/>
      <text x="6" y="116.7" font-family="'TGL 0-17_std', 'TGL 0-17', 'Times New Roman', Times, serif" font-size="12"
            fill="#000000">u32Pgn</text>
      <polygon points="0,124.5 5,129.5 0,134.5" fill="#3366FF"/>
      <text x="6" y="133.7" font-family="'TGL 0-17_std', 'TGL 0-17', 'Times New Roman', Times, serif" font-size="12"
            fill="#000000">NmDestin</text>
      <polygon points="0,141.5 5,146.5 0,151.5" fill="#18519E"/>
      <text x="6" y="150.7" font-family="'TGL 0-17_std', 'TGL 0-17', 'Times New Roman', Times, serif" font-size="12"
            fill="#000000">u16DaSize</text>
      <polygon points="0,158.5 5,163.5 0,168.5" fill="#18519E"/>
      <text x="6" y="167.7" font-family="'TGL 0-17_std', 'TGL 0-17', 'Times New Roman', Times, serif" font-size="12"
            fill="#000000">u8Priority</text>
      <polygon points="0,175.5 5,180.5 0,185.5" fill="#18519E"/>
      <text x="6" y="184.7" font-family="'TGL 0-17_std', 'TGL 0-17', 'Times New Roman', Times, serif" font-size="12"
            fill="#000000">u16DefRepRat…</text>
      <polygon points="155.4375,107.5 160.4375,112.5 155.4375,117.5" fill="#18519E"/>
      <text x="154.4375" y="116.7" font-family="'TGL 0-17_std', 'TGL 0-17', 'Times New Roman', Times, serif" font-size="12"
            fill="#000000" text-anchor="end">PGN_handle</text>
      <polygon points="155.4375,124.5 160.4375,129.5 155.4375,134.5" fill="#18519E"/>
      <text x="154.4375" y="133.7" font-family="'TGL 0-17_std', 'TGL 0-17', 'Times New Roman', Times, serif" font-size="12"
            fill="#000000" text-anchor="end">dataERRC</text>
      <polygon points="155.4375,141.5 160.4375,146.5 155.4375,151.5" fill="#18519E"/>
      <text x="154.4375" y="150.7" font-family="'TGL 0-17_std', 'TGL 0-17', 'Times New Roman', Times, serif" font-size="12"
            fill="#000000" text-anchor="end">pgnERRC</text>
      <text x="-3" y="116.7" font-family="'TGL 0-17_std', 'TGL 0-17', 'Times New Roman', Times, serif" font-size="12" fill="#000000" text-anchor="end">PGN_PDU1_PropA</text>
      <text x="-3" y="150.7" font-family="'TGL 0-17_std', 'TGL 0-17', 'Times New Roman', Times, serif" font-size="12" fill="#000000" text-anchor="end">UINT#8</text>
      <text x="-3" y="167.7" font-family="'TGL 0-17_std', 'TGL 0-17', 'Times New Roman', Times, serif" font-size="12" fill="#000000" text-anchor="end">USINT#3</text>
      <text x="-3" y="184.7" font-family="'TGL 0-17_std', 'TGL 0-17', 'Times New Roman', Times, serif" font-size="12" fill="#000000" text-anchor="end">UINT#500</text>
      <path d="M 0 192.5
            L 5.0 192.5
            L 5.0 194.16666666666666
            L 7.5 194.16666666666666
            L 7.5 192.5
            L 10 192.5
            L 10 202.5
            L 7.5 202.5
            L 7.5 200.83333333333334
            L 5.0 200.83333333333334
            L 5.0 202.5
            L 0 202.5
            Z" fill="none" stroke="#845DAF" stroke-width="1"/>
      <text x="13" y="201.7" font-family="'TGL 0-17_std', 'TGL 0-17', 'Times New Roman', Times, serif" font-size="12"
            fill="#000000">CB</text>
      <!-- Instance Name -->
      <text x="80.21875" y="-5"
            font-family="'TGL 0-17_std', 'TGL 0-17', 'Times New Roman', Times, serif" font-size="12"
            fill="#000000" text-anchor="middle">AlPgnTxNew8Bcycl_REQ</text>
    </g>
    <g id="fb_DataSupply" transform="translate(693.3, 285.0)">
      <path d="M 3 0
            L 138.1875 0
            A 3 3 0 0 1 141.1875 3
            L 141.1875 18
            A 3 3 0 0 1 138.1875 21
            L 132.1875 21
            L 132.1875 35
            L 138.1875 35
            A 3 3 0 0 1 141.1875 38
            L 141.1875 52
            A 3 3 0 0 1 138.1875 55
            L 3 55
            A 3 3 0 0 1 0 52
            L 0 38
            A 3 3 0 0 1 3 35
            L 9 35
            L 9 21
            L 3 21
            A 3 3 0 0 1 0 18
            L 0 3
            A 3 3 0 0 1 3 0
            Z"
            fill="#FFFFFF" stroke="#A0A0A0" stroke-width="1.5"
            stroke-linejoin="round" filter="url(#dropShadow)"/>
      <!-- Name Section -->
      <path d="M 13.0 20.0
            L 27.0 20.0
            A 1 1 0 0 1 28.0 21.0
            L 28.0 24.0
            L 26.5 24.0
            L 26.5 26.666666666666668
            L 28.0 26.666666666666668
            L 28.0 35.0
            A 1 1 0 0 1 27.0 36.0
            L 13.0 36.0
            A 1 1 0 0 1 12.0 35.0
            L 12.0 26.666666666666668
            L 13.5 26.666666666666668
            L 13.5 24.0
            L 12.0 24.0
            L 12.0 21.0
            A 1 1 0 0 1 13.0 20.0
            Z"
            fill="#87CEEB" stroke="#1565C0" stroke-width="1"/>
      <path d="M 13.5 27.5 L 18.0 27.5 A 0.5 0.5 0 0 1 18.5 28.0 L 18.5 29.25 L 17.675 29.25 L 17.675 30.416666666666668 L 18.5 30.416666666666668 L 18.5 34.0 A 0.5 0.5 0 0 1 18.0 34.5 L 13.5 34.5 A 0.5 0.5 0 0 1 13.0 34.0 L 13.0 30.416666666666668 L 13.825 30.416666666666668 L 13.825 29.25 L 13.0 29.25 L 13.0 28.0 A 0.5 0.5 0 0 1 13.5 27.5 Z" fill="#1565C0" stroke="none"/>
      <path d="M 22.0 27.5 L 26.5 27.5 A 0.5 0.5 0 0 1 27.0 28.0 L 27.0 29.25 L 26.175 29.25 L 26.175 30.416666666666668 L 27.0 30.416666666666668 L 27.0 34.0 A 0.5 0.5 0 0 1 26.5 34.5 L 22.0 34.5 A 0.5 0.5 0 0 1 21.5 34.0 L 21.5 30.416666666666668 L 22.325 30.416666666666668 L 22.325 29.25 L 21.5 29.25 L 21.5 28.0 A 0.5 0.5 0 0 1 22.0 27.5 Z" fill="#1565C0" stroke="none"/>
      <line x1="18.5" y1="28.34" x2="21.5" y2="28.34"
            stroke="#3DA015" stroke-width="1.2"/>
      <line x1="18.5" y1="32.4" x2="21.5" y2="32.4"
            stroke="#FF0000" stroke-width="1.2"/>
      <text x="30.0" y="32.0"
            font-family="'TGL 0-16_std', 'TGL 0-16', 'Times New Roman', Times, serif" font-size="12"
            fill="#000000">CTU_TO_PCAN_Cal…</text>



      <path d="M 131.1875 38.5
            L 133.6875 38.5
            L 133.6875 40.166666666666664
            L 136.1875 40.166666666666664
            L 136.1875 38.5
            L 141.1875 38.5
            L 141.1875 48.5
            L 136.1875 48.5
            L 136.1875 46.833333333333336
            L 133.6875 46.833333333333336
            L 133.6875 48.5
            L 131.1875 48.5
            Z" fill="#845DAF"/>
      <text x="128.1875" y="47.7" font-family="'TGL 0-17_std', 'TGL 0-17', 'Times New Roman', Times, serif" font-size="12"
            fill="#000000" text-anchor="end">PLUG1</text>
      <!-- Instance Name -->
      <text x="70.59375" y="-5"
            font-family="'TGL 0-17_std', 'TGL 0-17', 'Times New Roman', Times, serif" font-size="12"
            fill="#000000" text-anchor="middle">DataSupply</text>
    </g>
  </g>
</svg>